<?xml version="1.0" encoding="utf-8"?>
<!-- Generator: Adobe Illustrator 23.1.1, SVG Export Plug-In . SVG Version: 6.00 Build 0)  -->
<svg version="1.1" id="Layer_1" xmlns="http://www.w3.org/2000/svg" xmlns:xlink="http://www.w3.org/1999/xlink" x="0px" y="0px"
	 viewBox="0 0 1280 665.93" style="enable-background:new 0 0 1280 665.93;" xml:space="preserve">
<style type="text/css">
	.st0{fill:#212121;}
	.st1{fill:#F4BECF;}
</style>
<g>
	<g>
		<path class="st0" d="M418.56,583.74h15.45c1.93,0,3.71,0.23,5.37,0.69c1.65,0.46,3.08,1.14,4.27,2.04s2.14,2.05,2.83,3.45
			c0.69,1.41,1.04,3.04,1.04,4.93c0,2.56-0.71,4.64-2.14,6.25c-1.42,1.61-3.26,2.79-5.53,3.55v0.12c1.34,0.08,2.6,0.43,3.77,1.04
			c1.17,0.61,2.19,1.41,3.05,2.39c0.86,0.98,1.54,2.12,2.04,3.42c0.5,1.29,0.75,2.7,0.75,4.21c0,2.01-0.41,3.78-1.22,5.31
			c-0.82,1.53-1.94,2.81-3.36,3.86c-1.42,1.05-3.08,1.84-4.96,2.39c-1.88,0.55-3.92,0.82-6.09,0.82h-15.26V583.74z M424.59,602.2
			h8.23c1.13,0,2.2-0.11,3.2-0.34c1.01-0.23,1.88-0.62,2.64-1.16c0.75-0.54,1.35-1.24,1.79-2.07c0.44-0.84,0.66-1.86,0.66-3.08
			c0-1.76-0.57-3.29-1.7-4.59c-1.13-1.29-2.91-1.94-5.34-1.94h-9.48V602.2z M424.59,622.92h8.85c0.92,0,1.94-0.09,3.05-0.28
			c1.11-0.19,2.15-0.56,3.11-1.13c0.96-0.56,1.78-1.33,2.45-2.29c0.67-0.96,1.01-2.24,1.01-3.83c0-2.64-0.86-4.61-2.57-5.94
			c-1.72-1.32-4.04-1.98-6.97-1.98h-8.92V622.92z"/>
		<path class="st0" d="M494.42,609.24l-16.83-25.5h7.72l12.12,19.53l12.5-19.53h7.35l-16.83,25.5v18.96h-6.03V609.24z"/>
		<path class="st0" d="M605.32,583.74h6.03v31.78c0,2.81-0.44,5.09-1.32,6.87c-0.88,1.78-1.98,3.18-3.3,4.21
			c-1.32,1.02-2.73,1.74-4.24,2.13c-1.51,0.4-2.89,0.6-4.15,0.6c-3.14,0-5.79-0.81-7.94-2.42c-2.16-1.61-3.53-4.05-4.11-7.32
			l5.9-1.32c0.34,1.67,1.03,2.99,2.07,3.96c1.05,0.96,2.41,1.44,4.08,1.44c1.51,0,2.71-0.29,3.61-0.88c0.9-0.59,1.6-1.35,2.1-2.29
			c0.5-0.94,0.84-2.02,1.01-3.23c0.17-1.21,0.25-2.45,0.25-3.71V583.74z"/>
		<path class="st0" d="M661.46,583.74h5.46l19.03,44.46h-7.03l-4.46-10.99h-21.16l-4.4,10.99h-7.03L661.46,583.74z M672.26,611.94
			l-8.29-20.41h-0.13l-8.41,20.41H672.26z"/>
		<path class="st0" d="M717.53,583.74h7.91l24.49,36.55h0.13v-36.55h6.03v44.46h-7.66l-24.74-36.55h-0.13v36.55h-6.03V583.74z"/>
		<path class="st0" d="M793.33,583.74h6.03v44.46h-6.03V583.74z"/>
		<path class="st0" d="M837.92,618.91c1.09,1.63,2.48,2.84,4.18,3.61c1.69,0.78,3.44,1.16,5.24,1.16c1,0,2.03-0.16,3.08-0.47
			c1.04-0.31,2-0.79,2.86-1.41c0.86-0.63,1.56-1.4,2.1-2.32c0.54-0.92,0.82-1.99,0.82-3.21c0-1.72-0.54-3.02-1.63-3.92
			c-1.09-0.9-2.44-1.66-4.05-2.26c-1.61-0.61-3.37-1.19-5.28-1.76s-3.66-1.35-5.27-2.36c-1.61-1-2.96-2.35-4.05-4.05
			c-1.09-1.69-1.63-3.99-1.63-6.87c0-1.3,0.28-2.68,0.85-4.15c0.56-1.46,1.45-2.8,2.67-4.02c1.21-1.21,2.78-2.23,4.68-3.05
			c1.91-0.82,4.2-1.22,6.88-1.22c2.43,0,4.75,0.34,6.97,1.01c2.22,0.67,4.16,2.03,5.84,4.08l-4.9,4.46
			c-0.76-1.17-1.82-2.11-3.21-2.82c-1.38-0.71-2.95-1.07-4.71-1.07c-1.67,0-3.07,0.22-4.18,0.66c-1.11,0.44-2,1.01-2.67,1.7
			c-0.67,0.69-1.14,1.43-1.41,2.23c-0.27,0.79-0.41,1.53-0.41,2.2c0,1.88,0.54,3.33,1.63,4.33c1.09,1.01,2.44,1.82,4.05,2.45
			c1.61,0.63,3.37,1.19,5.28,1.7c1.91,0.5,3.66,1.2,5.27,2.1c1.61,0.9,2.96,2.11,4.05,3.64c1.09,1.53,1.63,3.63,1.63,6.31
			c0,2.14-0.41,4.06-1.22,5.77c-0.82,1.72-1.91,3.16-3.3,4.33c-1.38,1.17-3.01,2.07-4.9,2.7c-1.88,0.63-3.89,0.94-6.03,0.94
			c-2.84,0-5.54-0.5-8.1-1.51c-2.55-1.01-4.59-2.55-6.09-4.65L837.92,618.91z"/>
	</g>
	<g>
		<path class="st0" d="M114.04,418.98c3.28,5.23,5.71,10.79,7.3,16.69c1.58,5.9,2.31,11.86,2.19,17.88
			c-0.12,6.02-1,11.98-2.64,17.87c-1.64,5.9-4.11,11.46-7.39,16.69c-3.77,6.08-8.45,10.94-14.04,14.59
			c-3.53,2.43-7.48,4.71-11.86,6.84c-4.38,2.13-8.82,3.86-13.32,5.2c-4.01,1.22-8.09,2.13-12.22,2.73
			c-4.14,0.61-8.15,1.22-12.04,1.83c-0.61,0-0.91-0.37-0.91-1.1c-0.24-0.61,0.06-1.03,0.91-1.27c3.89-0.61,7.87-1.21,11.95-1.83
			c4.07-0.61,8.05-1.46,11.95-2.56c4.62-1.82,8.9-4.1,12.86-6.84c3.95-2.73,7.51-6.11,10.67-10.12c5.11-6.57,8.81-13.86,11.13-21.88
			c2.31-8.03,3.16-16.17,2.55-24.44c-0.61-10.82-3.65-20.61-9.12-29.37c-6.08-9.85-14.11-16.96-24.08-21.34
			c-5.96-2.07-11.98-3.47-18.06-4.2c-1.95-0.12-3.8-0.18-5.56-0.18c-1.76,0-3.31,0-4.65,0c-1.1,0-1.73,0.37-1.91,1.1
			c-0.18,0.73-0.27,1.58-0.27,2.56v0.91c0.12,3.89,0.15,7.91,0.09,12.04c-0.06,4.14-0.09,8.15-0.09,12.04
			c0,8.64-0.09,16.6-0.27,23.89c-0.18,7.3-0.21,14.9-0.09,22.8c0.12,6.56,0.12,13.44,0,20.61c-0.12,7.17-0.18,14.04-0.18,20.61
			c0,0.97-0.06,1.98-0.18,3.01c-0.12,1.03-0.37,1.98-0.73,2.83c-0.36,0.85-0.91,1.55-1.64,2.1c-0.73,0.55-1.7,0.76-2.92,0.64
			c-1.09,0-2.19-0.37-3.28-1.1c-1.22-0.73-1.98-1.85-2.28-3.38c-0.31-1.52-0.46-2.95-0.46-4.28c-0.12-7.42-0.12-15.26,0-23.53
			c0.12-8.27,0.18-16.17,0.18-23.71v-30.82c0-4.87-0.06-9.82-0.18-14.87c-0.12-5.04-0.18-10-0.18-14.86c0-1.94-0.21-3.77-0.64-5.47
			c-0.43-1.7-1.98-2.8-4.65-3.29h-1.28c-0.85,0-1.52-0.12-2.01-0.36c-0.73-0.25-0.97-0.79-0.73-1.64c0.12-0.37,0.55-0.55,1.28-0.55
			H37.8c3.77,0,7.11-0.03,10.03-0.09c2.92-0.06,5.84,0.03,8.75,0.27c2.8,0.12,5.65,0.45,8.57,1c2.92,0.55,5.84,1.31,8.76,2.28
			c0.85,0.25,1.67,0.49,2.46,0.73c0.79,0.25,1.61,0.49,2.46,0.73c3.4,1.1,6.75,2.31,10.03,3.65c3.28,1.34,6.44,2.92,9.48,4.74
			c3.04,1.83,5.9,3.89,8.57,6.2C109.6,413.27,111.97,415.95,114.04,418.98z"/>
		<path class="st0" d="M222.56,506.35c0.12-0.12,0.39-0.37,0.82-0.73c0.42-0.37,0.85-0.7,1.28-1c0.42-0.31,0.76-0.48,1-0.55
			c0.24-0.06,0.3,0.09,0.18,0.45c-0.61,1.71-1.22,3.44-1.82,5.2c-0.61,1.76-1.22,3.49-1.83,5.2c-0.24,0.61-0.49,1.28-0.73,2.01
			c-0.25,0.73-0.49,1.46-0.73,2.19c-0.24,0.12-0.73,0.18-1.46,0.18h-56.91c-0.37,0-0.73-0.06-1.1-0.18
			c-0.36-0.12-0.79-0.24-1.28-0.37c-1.1-0.37-1.86-1.18-2.28-2.46c-0.43-1.28-0.64-2.58-0.64-3.92c0-1.46,0.03-4.89,0.09-10.3
			c0.06-5.41,0.12-11.82,0.18-19.24c0.06-7.42,0.12-15.41,0.18-23.99c0.06-8.57,0.09-16.69,0.09-24.35c0-7.66,0-14.44,0-20.34
			c0-5.9-0.06-9.94-0.18-12.13c0-1.1-0.06-1.88-0.18-2.37c-0.37-1.46-0.85-2.67-1.46-3.65c-0.61-0.97-1.76-1.64-3.47-2.01
			c-0.49-0.12-1.07-0.21-1.73-0.27c-0.67-0.06-1.25-0.21-1.73-0.45c-0.49,0-0.73-0.24-0.73-0.73c0-0.24,0.06-0.48,0.18-0.73
			c0.12-0.24,0.3-0.37,0.55-0.37h68.03c1.58,0,2.46,0.12,2.64,0.37c0.18,0.25,0.39,1.04,0.64,2.37c0.37,1.58,0.7,3.13,1,4.65
			c0.3,1.52,0.64,3.13,1,4.83v0.91c-0.12,0.61-0.43,1.04-0.91,1.28c-0.49,0.25-0.97,0.25-1.46,0c-0.49-0.37-0.91-0.79-1.28-1.28
			c-0.24-0.48-0.46-0.91-0.64-1.28c-0.18-0.36-0.39-0.79-0.64-1.27c-1.7-4.14-4.62-6.69-8.76-7.66c-0.73-0.12-1.46-0.21-2.19-0.27
			c-0.73-0.06-1.46-0.09-2.19-0.09c-2.19,0-4.96,0-8.3,0c-3.35,0-6.63,0.03-9.85,0.09c-3.22,0.06-6.02,0.09-8.39,0.09s-3.74,0-4.1,0
			c-2.55,0.61-3.83,2.07-3.83,4.38c0,4.14-0.03,8.24-0.09,12.31c-0.06,4.08-0.09,8.18-0.09,12.31c0,4.01-0.03,8.06-0.09,12.13
			c-0.06,4.08,0.03,8.12,0.27,12.13c0,0.85,0.12,1.52,0.37,2.01c0.24,0.73,0.55,1.15,0.91,1.28h27.36c2.67-0.73,4.62-2.25,5.84-4.56
			c0.12-0.12,0.27-0.34,0.46-0.64c0.18-0.3,0.39-0.45,0.64-0.45h0.91v4.01v8.39c0,0.25-0.24,0.31-0.73,0.18
			c-0.25-0.24-0.55-0.51-0.91-0.82c-0.37-0.3-0.67-0.64-0.91-1c-1.09-1.21-2.43-2.13-4.01-2.74h-27.72
			c-1.34,0.12-2.19,0.91-2.55,2.37c0,0.12,0,1.64,0,4.56c0,2.92,0,6.47,0,10.67c0,4.19,0,8.75,0,13.68s0,9.48,0,13.68
			c0,4.19,0,7.69,0,10.49c0,2.8,0,4.26,0,4.38c0.12,1.34,0.3,2.31,0.55,2.92c0.24,0.61,1.03,0.97,2.37,1.1
			c1.7,0.12,3.52,0.18,5.47,0.18c1.94,0,3.77,0,5.47,0h22.98c0.97,0,1.88,0,2.74,0c0.85,0,1.76-0.12,2.74-0.36
			c3.28-0.61,5.71-2.19,7.3-4.74c0.37-0.49,0.67-0.94,0.91-1.37c0.24-0.42,0.55-0.88,0.91-1.37c0.24-0.48,0.52-0.97,0.82-1.46
			C221.86,507.32,222.2,506.84,222.56,506.35z"/>
		<path class="st0" d="M316.31,517.11c0,0.49-0.18,0.91-0.55,1.28c-0.49,0.61-1.25,0.91-2.28,0.91c-1.03,0-2.04,0-3.01,0h-50.52
			c-0.97,0-1.52-0.48-1.64-1.46c-0.12-0.97-0.18-1.76-0.18-2.37c-0.12-1.94-0.18-5.68-0.18-11.22s0.03-12.04,0.09-19.52
			c0.06-7.48,0.12-15.47,0.18-23.99c0.06-8.51,0.15-16.78,0.27-24.8c0.12-8.03,0.21-15.38,0.27-22.07
			c0.06-6.69,0.09-11.85,0.09-15.5c0-0.49-0.18-1.01-0.55-1.55c-0.37-0.55-0.73-0.94-1.1-1.18c-1.22-1.21-2.86-1.82-4.92-1.82
			c-0.37,0-0.79-0.03-1.28-0.09c-0.49-0.06-0.91-0.27-1.28-0.64c-0.37-0.37-0.43-0.79-0.18-1.28c0.24-0.24,0.67-0.37,1.28-0.37h27.9
			c0.61,0,1.03,0.18,1.28,0.55c0.24,0.85,0,1.4-0.73,1.64c-0.61,0.24-1.28,0.36-2.01,0.36c-2.07,0-3.71,0.61-4.92,1.83
			c-0.37,0.25-0.73,0.58-1.1,1c-0.37,0.43-0.55,0.88-0.55,1.37c0,0.97-0.03,3.1-0.09,6.38c-0.06,3.29-0.15,7.36-0.27,12.22
			c-0.12,4.86-0.21,10.3-0.27,16.32c-0.06,6.02-0.15,12.25-0.27,18.69c-0.12,6.45-0.25,12.86-0.37,19.24
			c-0.12,6.38-0.21,12.37-0.27,17.96c-0.06,5.6-0.12,10.55-0.18,14.87c-0.06,4.32-0.09,7.63-0.09,9.94c0,2.67,1.82,4.01,5.47,4.01
			h23.16c1.21,0,2.4,0,3.56,0c1.15,0,2.4-0.06,3.74-0.18c1.82,0,3.56-0.55,5.2-1.64c1.64-1.1,3.01-2.49,4.11-4.19
			c0.61-0.85,1.03-1.83,1.28-2.92c0-0.24,0.15-0.39,0.46-0.45c0.3-0.06,0.46,0.03,0.46,0.27V517.11z"/>
		<path class="st0" d="M375.22,517.11c0.73,0.25,0.97,0.79,0.73,1.64c-0.24,0.37-0.67,0.55-1.28,0.55h-4.74H365h-13.13h-5.29
			c-0.73,0-1.16-0.18-1.28-0.55c-0.24-0.85,0-1.4,0.73-1.64c0.48-0.24,1.15-0.36,2.01-0.36c2.07,0,3.71-0.61,4.92-1.83
			c0.61-0.37,1.03-0.97,1.28-1.83c0.24-0.85,0.37-1.76,0.37-2.73v-111.8c0-0.97-0.43-1.83-1.28-2.56c-1.22-1.21-2.86-1.83-4.92-1.83
			c-0.85,0-1.52-0.12-2.01-0.36c-0.61-0.25-0.91-0.52-0.91-0.82c0-0.3,0.06-0.57,0.18-0.82c0.24-0.48,0.61-0.73,1.1-0.73h4.56h18.42
			h5.29c0.24,0,0.49,0.06,0.73,0.18c0.24,0.12,0.37,0.31,0.37,0.55c0.12,0.25,0.18,0.52,0.18,0.82c0,0.31-0.31,0.58-0.91,0.82
			c-0.49,0.24-1.09,0.36-1.82,0.36c-2.07,0-3.77,0.61-5.11,1.83c-0.12,0.12-0.34,0.37-0.64,0.73c-0.31,0.37-0.46,0.97-0.46,1.83
			v113.08c0-0.24,0.03,0.09,0.09,1c0.06,0.91,0.39,1.67,1,2.28c1.34,1.22,3.04,1.83,5.11,1.83
			C374.18,516.75,374.73,516.87,375.22,517.11z"/>
		<path class="st0" d="M489.75,494.68c1.58-0.24,2.61,0.06,3.1,0.91c0.49,0.85,0.7,1.86,0.64,3.01c-0.06,1.15-0.37,2.37-0.91,3.65
			c-0.55,1.28-1,2.28-1.37,3.01c-2.31,3.53-5.35,6.33-9.12,8.39c-2.8,1.44-5.72,2.56-8.75,3.37c-3.04,0.81-6.08,1.39-9.12,1.74
			c-5.23,0.61-10.4,0.64-15.5,0.09c-5.11-0.55-10.21-1.86-15.32-3.92c-4.26-1.7-8.12-3.95-11.58-6.75c-3.47-2.79-6.6-6.08-9.39-9.85
			c-5.35-7.17-8.64-15.01-9.85-23.53c-0.49-3.16-0.76-6.23-0.82-9.21c-0.06-2.98,0.03-6.05,0.27-9.21c0.24-2.06,0.46-4.68,0.64-7.84
			c0.18-3.16,0.52-5.77,1.01-7.84c0.85-4.62,2.16-8.94,3.93-12.95c1.77-4.01,4.05-7.9,6.85-11.67c7.06-9.48,15.9-16.48,26.5-20.98
			c5.48-2.55,11.45-3.71,17.91-3.46c4.63,0,9.38,0.85,14.25,2.55c2.8,0.98,5.72,2.07,8.77,3.29c3.04,1.21,5.79,2.73,8.23,4.56
			c0.85,0.61,1.49,1.1,1.92,1.46c0.43,0.37,0.82,1.04,1.19,2.01c0,1.83,0,3.65,0,5.47c0,1.82-0.06,3.65-0.18,5.47
			c0,0.97-0.18,1.82-0.55,2.55c-0.37,1.1-1.22,1.46-2.56,1.1c-1.34-0.24-2.2-1.03-2.56-2.37c-0.24-0.61-0.37-1.12-0.37-1.55
			c0-0.42-0.12-0.94-0.37-1.55c-0.24-0.97-0.46-1.88-0.64-2.73c-0.18-0.85-0.39-1.76-0.64-2.74c-0.12-0.61-0.28-1.18-0.46-1.73
			c-0.18-0.55-0.39-1.12-0.64-1.73c-0.73-1.1-1.59-2.13-2.56-3.1c-1.71-1.34-3.44-2.56-5.21-3.65c-1.77-1.09-3.69-2.06-5.76-2.92
			c-3.29-1.1-6.28-1.76-8.96-2.01c-1.83-0.24-3.66-0.33-5.49-0.27c-1.83,0.06-3.66,0.21-5.48,0.45c-0.97,0.25-1.98,0.49-3.02,0.73
			c-1.04,0.25-2.04,0.55-3.01,0.91c-5.73,1.83-10.54,5.05-14.44,9.68c-1.71,1.7-3.17,3.53-4.39,5.48c-1.22,1.95-2.32,3.96-3.29,6.03
			c-1.71,3.29-3.11,6.7-4.2,10.23c-1.1,3.53-2.01,7.12-2.74,10.78c-0.61,3.04-1.13,6.58-1.56,10.6c-0.43,4.02-0.7,7.55-0.82,10.59
			c-0.12,5.36,0.3,10.53,1.28,15.53c0.97,4.99,2.67,9.87,5.11,14.61c3.16,6.45,7.41,11.87,12.77,16.26
			c2.92,2.43,5.99,4.47,9.21,6.12c3.22,1.65,6.72,2.77,10.49,3.38c4.25,0.7,8.45,0.75,12.58,0.16c4.13-0.59,8.09-2.1,11.86-4.53
			c6.32-3.89,10.58-9.24,12.77-16.05H489.75z"/>
		<path class="st0" d="M621.8,518.39c0.12,0.25,0.06,0.46-0.18,0.64c-0.24,0.18-0.43,0.27-0.55,0.27h-18.42
			c-0.73-0.12-1.25-0.45-1.55-1c-0.31-0.55-0.27-1.19,0.09-1.91c0-0.12,0.24-0.42,0.73-0.91c1.46-1.46,1.82-3.22,1.09-5.29
			c-0.49-1.94-1-3.92-1.55-5.93c-0.55-2.01-1.19-3.92-1.91-5.75c-0.98-2.55-1.92-5.17-2.83-7.84c-0.91-2.67-1.98-5.74-3.19-9.21
			c-1.22-3.47-2.62-7.45-4.19-11.95c-1.58-4.5-3.47-9.85-5.65-16.05H545.2l-19.88,57.82c-0.12,0.48-0.18,0.97-0.18,1.46
			c-0.12,2.44,1.03,3.89,3.47,4.38c0.61,0,1.15,0.12,1.64,0.37c0.73,0.25,1.03,0.85,0.91,1.83h-1.83h-13.86
			c-0.36,0-0.73,0.03-1.09,0.09c-0.37,0.06-0.55-0.09-0.55-0.45c-0.12-0.48,0.24-0.88,1.1-1.18c0.85-0.3,1.46-0.52,1.82-0.64
			c2.07-0.36,3.71-1.52,4.92-3.46c0.48-0.85,0.91-1.7,1.28-2.55c2.8-8.03,4.95-14.32,6.47-18.88c1.52-4.56,2.83-8.42,3.92-11.58
			c1.09-3.16,2.1-6.08,3.01-8.75c0.91-2.67,2.12-6.14,3.65-10.4c1.52-4.25,3.46-9.73,5.84-16.41c2.37-6.69,5.56-15.69,9.58-27
			c0.97-3.4,2.07-6.78,3.28-10.12c1.21-3.34,2.37-6.78,3.46-10.3c0.12-0.48,0.43-1.21,0.91-2.19c0.97-1.7,2.31-2.85,4.01-3.46
			c0.85-0.24,1.55-0.42,2.1-0.55c0.55-0.12,1.25-0.06,2.1,0.18c1.58,0.61,2.61,1.58,3.1,2.92c0.49,0.98,0.79,1.71,0.91,2.19
			c3.16,8.39,6.2,16.84,9.12,25.35c2.92,8.52,5.77,16.96,8.57,25.35c3.65,10.7,7.36,21.41,11.13,32.1
			c3.77,10.7,7.78,21.34,12.04,31.92c0.61,1.7,1.25,2.86,1.92,3.46c0.67,0.61,1.31,1.15,1.91,1.64c0.24,0.24,0.61,0.48,1.09,0.73
			C621.56,517.54,621.8,517.9,621.8,518.39z M583.14,451.45c-2.68-8.75-5.75-17.47-9.21-26.17c-3.46-8.69-6.78-17.36-9.94-25.99
			c-4.62,13.01-8.15,23.04-10.58,30.1c-2.43,7.06-4.19,12.22-5.29,15.5l-2.19,6.56H583.14z"/>
		<path class="st0" d="M725.76,393.27c0,0.12,0.03,1,0.09,2.64c0.06,1.64,0.03,3.07-0.09,4.28l-0.37,0.18
			c-0.37,0.12-0.67,0.12-0.91,0l-0.37-0.37c-0.25-0.37-0.49-0.73-0.73-1.1c-0.25-0.36-0.49-0.79-0.73-1.27
			c-0.49-0.97-1.15-1.7-2-2.19c-0.85-0.48-1.77-0.91-2.74-1.28c-0.61-0.12-1.15-0.21-1.64-0.27c-0.49-0.06-0.98-0.09-1.46-0.09
			h-28.64c-2.92,0.36-4.86,1.76-5.84,4.19c-0.49,1.58-0.85,3.35-1.1,5.29v104.15c0,0.61,0.03,1.27,0.09,2
			c0.06,0.73,0.15,1.4,0.27,2.01c0.48,1.58,1.15,2.73,2.01,3.46c1.21,1.22,2.86,1.83,4.92,1.83c0.85,0,1.52,0.12,2.01,0.36
			c0.61,0.25,0.91,0.52,0.91,0.82c0,0.31-0.06,0.58-0.18,0.82c-0.24,0.37-0.67,0.55-1.28,0.55h-27.54c-0.24,0-0.49-0.03-0.73-0.09
			c-0.25-0.06-0.37-0.21-0.37-0.46c-0.12-0.24-0.18-0.51-0.18-0.82c0-0.3,0.3-0.58,0.91-0.82c0.48-0.24,1.09-0.36,1.82-0.36
			c0.48,0,0.94-0.06,1.37-0.18c0.42-0.12,0.88-0.24,1.37-0.37c0.97-0.48,1.82-1.1,2.55-1.83c0.36-0.48,0.55-1.1,0.55-1.83
			c0.12-0.73,0.18-1.49,0.18-2.28c0-0.79,0-1.55,0-2.28V405.31c0-0.97,0-1.88,0-2.73c0-0.85-0.12-1.7-0.37-2.56
			c-0.49-1.7-1.25-3.13-2.28-4.28c-1.03-1.15-2.77-1.8-5.2-1.91c-4.5-0.25-9.39-0.31-14.68-0.18c-5.29,0.12-10.67,0.18-16.14,0.18
			c-1.22,0-2.25,0.36-3.1,1.09c-0.85,0.73-1.58,1.64-2.19,2.74c-0.25,0.37-0.46,0.73-0.64,1.09c-0.18,0.37-0.39,0.67-0.64,0.91
			l-0.55,0.55c-0.25,0.25-0.49,0.18-0.73-0.18c-0.12-0.24-0.18-0.61-0.18-1.1v-5.47c0.12-0.97,0.42-1.55,0.91-1.74
			c0.48-0.18,1.21-0.27,2.19-0.27c0.97,0,1.88,0.03,2.74,0.09c0.85,0.06,1.76,0.09,2.73,0.09c0.12,0,0.39,0,0.82,0
			c0.42,0,1.49,0,3.19,0c1.7,0,4.29,0,7.75,0c3.47,0,8.3,0,14.5,0c6.2,0,14.07,0,23.62,0c9.55,0,21.25,0,35.11,0
			c1.21,0,2.37,0,3.46,0c1.1,0,2.25-0.06,3.46-0.18c0.73,0,1.49,0.09,2.28,0.27C724.82,391.9,725.4,392.42,725.76,393.27z"/>
		<path class="st0" d="M823.34,506.35c0.12-0.12,0.39-0.37,0.82-0.73c0.42-0.37,0.85-0.7,1.27-1c0.42-0.31,0.76-0.48,1.01-0.55
			c0.24-0.06,0.3,0.09,0.18,0.45c-0.61,1.71-1.22,3.44-1.83,5.2c-0.61,1.76-1.22,3.49-1.83,5.2c-0.24,0.61-0.48,1.28-0.73,2.01
			c-0.25,0.73-0.49,1.46-0.73,2.19c-0.25,0.12-0.73,0.18-1.46,0.18h-56.91c-0.37,0-0.73-0.06-1.1-0.18
			c-0.36-0.12-0.79-0.24-1.27-0.37c-1.1-0.37-1.86-1.18-2.28-2.46c-0.43-1.28-0.64-2.58-0.64-3.92c0-1.46,0.03-4.89,0.09-10.3
			c0.06-5.41,0.12-11.82,0.18-19.24c0.06-7.42,0.12-15.41,0.18-23.99c0.06-8.57,0.09-16.69,0.09-24.35c0-7.66,0-14.44,0-20.34
			c0-5.9-0.06-9.94-0.18-12.13c0-1.1-0.06-1.88-0.18-2.37c-0.37-1.46-0.85-2.67-1.46-3.65c-0.61-0.97-1.77-1.64-3.47-2.01
			c-0.48-0.12-1.07-0.21-1.73-0.27c-0.67-0.06-1.25-0.21-1.73-0.45c-0.49,0-0.73-0.24-0.73-0.73c0-0.24,0.06-0.48,0.18-0.73
			c0.12-0.24,0.3-0.37,0.55-0.37h68.03c1.58,0,2.46,0.12,2.64,0.37c0.18,0.25,0.39,1.04,0.64,2.37c0.37,1.58,0.7,3.13,1,4.65
			c0.3,1.52,0.64,3.13,1,4.83v0.91c-0.12,0.61-0.42,1.04-0.91,1.28c-0.49,0.25-0.98,0.25-1.46,0c-0.49-0.37-0.91-0.79-1.28-1.28
			c-0.24-0.48-0.45-0.91-0.64-1.28c-0.18-0.36-0.39-0.79-0.64-1.27c-1.71-4.14-4.62-6.69-8.76-7.66c-0.73-0.12-1.46-0.21-2.19-0.27
			c-0.73-0.06-1.46-0.09-2.19-0.09c-2.19,0-4.95,0-8.3,0c-3.35,0-6.63,0.03-9.85,0.09c-3.23,0.06-6.02,0.09-8.39,0.09
			c-2.37,0-3.74,0-4.1,0c-2.56,0.61-3.83,2.07-3.83,4.38c0,4.14-0.03,8.24-0.09,12.31c-0.06,4.08-0.09,8.18-0.09,12.31
			c0,4.01-0.03,8.06-0.09,12.13c-0.06,4.08,0.03,8.12,0.28,12.13c0,0.85,0.12,1.52,0.37,2.01c0.24,0.73,0.54,1.15,0.91,1.28h27.36
			c2.67-0.73,4.62-2.25,5.83-4.56c0.12-0.12,0.28-0.34,0.46-0.64c0.18-0.3,0.39-0.45,0.64-0.45h0.91v4.01v8.39
			c0,0.25-0.25,0.31-0.73,0.18c-0.25-0.24-0.55-0.51-0.91-0.82c-0.37-0.3-0.67-0.64-0.91-1c-1.09-1.21-2.43-2.13-4.01-2.74h-27.72
			c-1.34,0.12-2.19,0.91-2.55,2.37c0,0.12,0,1.64,0,4.56c0,2.92,0,6.47,0,10.67c0,4.19,0,8.75,0,13.68s0,9.48,0,13.68
			c0,4.19,0,7.69,0,10.49c0,2.8,0,4.26,0,4.38c0.12,1.34,0.3,2.31,0.55,2.92c0.24,0.61,1.03,0.97,2.37,1.1
			c1.7,0.12,3.52,0.18,5.47,0.18c1.94,0,3.77,0,5.47,0h22.98c0.97,0,1.88,0,2.73,0c0.85,0,1.76-0.12,2.74-0.36
			c3.28-0.61,5.71-2.19,7.29-4.74c0.37-0.49,0.67-0.94,0.91-1.37c0.24-0.42,0.55-0.88,0.91-1.37c0.24-0.48,0.51-0.97,0.82-1.46
			C822.63,507.32,822.97,506.84,823.34,506.35z"/>
		<path class="st0" d="M925.11,483.37c0.24,4.14-0.37,8.15-1.83,12.04c-1.34,3.53-3.22,6.96-5.65,10.3
			c-2.44,3.35-5.29,5.99-8.58,7.93c-1.34,0.98-2.73,1.71-4.19,2.19c-1.46,0.49-2.92,0.91-4.38,1.27c-2.67,0.85-5.44,1.43-8.3,1.74
			c-2.86,0.3-5.87,0.45-9.03,0.45c-1.22,0-2.46-0.03-3.74-0.09c-1.28-0.06-2.46-0.15-3.56-0.28l-9.67-0.37
			c-2.8-0.24-5.17-0.67-7.11-1.28c-3.16-0.97-4.99-2.85-5.47-5.65c0-0.24-0.09-0.73-0.27-1.46c-0.18-0.73-0.31-1.46-0.37-2.19
			c-0.06-0.73-0.03-1.43,0.09-2.1c0.12-0.67,0.37-1.06,0.73-1.18c0.61-0.24,1.18-0.03,1.73,0.64c0.55,0.67,0.94,1.19,1.19,1.55
			c2.67,3.28,6.26,5.77,10.76,7.48c4.01,1.46,8.15,2.37,12.41,2.73c5.83,0.25,11.34-0.12,16.51-1.09c5.17-0.97,9.63-3.16,13.4-6.57
			c2.56-2.55,4.44-5.74,5.65-9.57c1.21-3.83,1.7-7.69,1.46-11.58c-0.37-3.89-1.52-7.42-3.47-10.58c-1.94-3.16-4.32-5.99-7.11-8.48
			c-2.8-2.49-5.9-4.68-9.3-6.56c-3.4-1.88-6.69-3.56-9.85-5.02c-3.89-1.82-7.72-3.74-11.49-5.74c-3.77-2.01-7.42-4.35-10.94-7.02
			c-1.34-1.1-2.64-2.19-3.92-3.28c-1.28-1.1-2.53-2.31-3.74-3.65c-1.94-2.06-3.4-4.38-4.38-6.93c-0.97-2.56-1.55-5.2-1.73-7.93
			c-0.18-2.74,0.03-5.47,0.64-8.21c0.61-2.74,1.64-5.32,3.1-7.75c1.94-3.4,4.53-6.17,7.75-8.3c3.22-2.13,6.72-3.77,10.49-4.92
			c3.77-1.15,7.66-1.88,11.67-2.19c4.01-0.3,7.78-0.27,11.31,0.09c2.43,0.25,4.77,0.52,7.02,0.82c2.25,0.31,4.59,0.64,7.02,1.01
			c0.73,0.12,1.58,0.21,2.56,0.27c0.97,0.06,1.85,0.25,2.64,0.55c0.79,0.31,1.46,0.7,2,1.18c0.55,0.49,0.82,1.28,0.82,2.37
			c0,2.07,0.06,3.95,0.18,5.65c0.12,1.71,0.06,3.59-0.18,5.65c-0.12,0.49-0.24,0.94-0.36,1.37c-0.12,0.43-0.49,0.7-1.1,0.82
			c-0.61,0-1.16-0.61-1.64-1.83c-0.37-1.21-0.7-2.4-1-3.56c-0.31-1.15-0.76-2.28-1.37-3.37c-1.83-3.89-4.87-6.39-9.12-7.48
			c-5.11-1.34-10.15-1.82-15.14-1.46c-2.43,0.12-4.99,0.42-7.66,0.91c-2.67,0.49-5.23,1.25-7.66,2.28
			c-2.43,1.04-4.68,2.37-6.75,4.01c-2.07,1.64-3.71,3.62-4.92,5.93c-1.22,2.31-1.89,4.77-2.01,7.39c-0.12,2.62,0.3,5.14,1.28,7.57
			c0.85,1.82,1.97,3.53,3.37,5.1c1.4,1.58,2.89,3.04,4.47,4.38c3.89,3.16,7.99,5.96,12.31,8.39c4.31,2.43,8.72,4.68,13.22,6.75
			c3.89,1.94,7.72,4.04,11.49,6.29c3.77,2.25,7.05,5.01,9.85,8.3C920.85,467.44,924.13,474.86,925.11,483.37z"/>
		<path class="st0" d="M1022.86,483.37c0.24,4.14-0.37,8.15-1.83,12.04c-1.34,3.53-3.22,6.96-5.65,10.3
			c-2.44,3.35-5.29,5.99-8.58,7.93c-1.34,0.98-2.73,1.71-4.19,2.19c-1.46,0.49-2.92,0.91-4.38,1.27c-2.67,0.85-5.44,1.43-8.3,1.74
			c-2.86,0.3-5.87,0.45-9.03,0.45c-1.22,0-2.46-0.03-3.74-0.09c-1.28-0.06-2.46-0.15-3.56-0.28l-9.67-0.37
			c-2.8-0.24-5.17-0.67-7.11-1.28c-3.16-0.97-4.99-2.85-5.47-5.65c0-0.24-0.09-0.73-0.27-1.46c-0.18-0.73-0.31-1.46-0.37-2.19
			c-0.06-0.73-0.03-1.43,0.09-2.1c0.12-0.67,0.37-1.06,0.73-1.18c0.61-0.24,1.18-0.03,1.73,0.64c0.55,0.67,0.94,1.19,1.19,1.55
			c2.67,3.28,6.26,5.77,10.76,7.48c4.01,1.46,8.15,2.37,12.41,2.73c5.83,0.25,11.34-0.12,16.51-1.09c5.17-0.97,9.63-3.16,13.4-6.57
			c2.56-2.55,4.44-5.74,5.65-9.57c1.21-3.83,1.7-7.69,1.46-11.58c-0.37-3.89-1.52-7.42-3.47-10.58s-4.32-5.99-7.11-8.48
			c-2.8-2.49-5.9-4.68-9.3-6.56c-3.4-1.88-6.69-3.56-9.85-5.02c-3.89-1.82-7.72-3.74-11.49-5.74c-3.77-2.01-7.42-4.35-10.94-7.02
			c-1.34-1.1-2.64-2.19-3.92-3.28c-1.28-1.1-2.53-2.31-3.74-3.65c-1.94-2.06-3.4-4.38-4.38-6.93c-0.97-2.56-1.55-5.2-1.73-7.93
			c-0.18-2.74,0.03-5.47,0.64-8.21c0.61-2.74,1.64-5.32,3.1-7.75c1.94-3.4,4.53-6.17,7.75-8.3c3.22-2.13,6.72-3.77,10.49-4.92
			c3.77-1.15,7.66-1.88,11.67-2.19c4.01-0.3,7.78-0.27,11.31,0.09c2.43,0.25,4.77,0.52,7.02,0.82c2.25,0.31,4.59,0.64,7.02,1.01
			c0.73,0.12,1.58,0.21,2.56,0.27c0.97,0.06,1.85,0.25,2.64,0.55c0.79,0.31,1.46,0.7,2,1.18c0.55,0.49,0.82,1.28,0.82,2.37
			c0,2.07,0.06,3.95,0.18,5.65c0.12,1.71,0.06,3.59-0.18,5.65c-0.12,0.49-0.24,0.94-0.36,1.37c-0.12,0.43-0.49,0.7-1.1,0.82
			c-0.61,0-1.16-0.61-1.64-1.83c-0.37-1.21-0.7-2.4-1-3.56c-0.31-1.15-0.76-2.28-1.37-3.37c-1.83-3.89-4.87-6.39-9.12-7.48
			c-5.11-1.34-10.15-1.82-15.14-1.46c-2.43,0.12-4.99,0.42-7.66,0.91c-2.67,0.49-5.23,1.25-7.66,2.28
			c-2.43,1.04-4.68,2.37-6.75,4.01c-2.07,1.64-3.71,3.62-4.92,5.93c-1.22,2.31-1.89,4.77-2.01,7.39c-0.12,2.62,0.3,5.14,1.28,7.57
			c0.85,1.82,1.97,3.53,3.37,5.1c1.4,1.58,2.89,3.04,4.47,4.38c3.89,3.16,7.99,5.96,12.31,8.39c4.31,2.43,8.72,4.68,13.22,6.75
			c3.89,1.94,7.72,4.04,11.49,6.29c3.77,2.25,7.05,5.01,9.85,8.3C1018.61,467.44,1021.89,474.86,1022.86,483.37z"/>
		<path class="st0" d="M1120.81,506.35c0.12-0.12,0.39-0.37,0.82-0.73c0.42-0.37,0.85-0.7,1.28-1c0.42-0.31,0.76-0.48,1-0.55
			c0.24-0.06,0.3,0.09,0.18,0.45c-0.61,1.71-1.21,3.44-1.82,5.2c-0.61,1.76-1.22,3.49-1.83,5.2c-0.25,0.61-0.49,1.28-0.73,2.01
			c-0.25,0.73-0.49,1.46-0.73,2.19c-0.24,0.12-0.73,0.18-1.46,0.18h-56.91c-0.37,0-0.73-0.06-1.1-0.18
			c-0.37-0.12-0.79-0.24-1.28-0.37c-1.1-0.37-1.86-1.18-2.28-2.46c-0.42-1.28-0.64-2.58-0.64-3.92c0-1.46,0.03-4.89,0.09-10.3
			c0.06-5.41,0.12-11.82,0.18-19.24s0.12-15.41,0.18-23.99c0.06-8.57,0.09-16.69,0.09-24.35c0-7.66,0-14.44,0-20.34
			c0-5.9-0.06-9.94-0.18-12.13c0-1.1-0.06-1.88-0.18-2.37c-0.37-1.46-0.85-2.67-1.46-3.65c-0.61-0.97-1.76-1.64-3.46-2.01
			c-0.49-0.12-1.07-0.21-1.73-0.27c-0.67-0.06-1.25-0.21-1.73-0.45c-0.49,0-0.73-0.24-0.73-0.73c0-0.24,0.06-0.48,0.18-0.73
			c0.12-0.24,0.3-0.37,0.55-0.37h68.03c1.58,0,2.46,0.12,2.64,0.37c0.18,0.25,0.39,1.04,0.64,2.37c0.37,1.58,0.7,3.13,1.01,4.65
			c0.3,1.52,0.64,3.13,1,4.83v0.91c-0.12,0.61-0.43,1.04-0.91,1.28c-0.49,0.25-0.97,0.25-1.46,0c-0.48-0.37-0.91-0.79-1.27-1.28
			c-0.25-0.48-0.46-0.91-0.64-1.28c-0.18-0.36-0.39-0.79-0.64-1.27c-1.7-4.14-4.62-6.69-8.75-7.66c-0.73-0.12-1.46-0.21-2.19-0.27
			c-0.73-0.06-1.46-0.09-2.19-0.09c-2.19,0-4.96,0-8.3,0c-3.35,0-6.63,0.03-9.85,0.09c-3.22,0.06-6.02,0.09-8.39,0.09
			c-2.37,0-3.74,0-4.11,0c-2.55,0.61-3.83,2.07-3.83,4.38c0,4.14-0.03,8.24-0.09,12.31c-0.06,4.08-0.09,8.18-0.09,12.31
			c0,4.01-0.03,8.06-0.09,12.13c-0.06,4.08,0.03,8.12,0.27,12.13c0,0.85,0.12,1.52,0.37,2.01c0.24,0.73,0.55,1.15,0.91,1.28h27.36
			c2.67-0.73,4.62-2.25,5.84-4.56c0.12-0.12,0.27-0.34,0.45-0.64c0.18-0.3,0.39-0.45,0.64-0.45h0.91v4.01v8.39
			c0,0.25-0.24,0.31-0.73,0.18c-0.25-0.24-0.55-0.51-0.91-0.82c-0.37-0.3-0.67-0.64-0.91-1c-1.1-1.21-2.43-2.13-4.01-2.74h-27.72
			c-1.34,0.12-2.19,0.91-2.56,2.37c0,0.12,0,1.64,0,4.56c0,2.92,0,6.47,0,10.67c0,4.19,0,8.75,0,13.68s0,9.48,0,13.68
			c0,4.19,0,7.69,0,10.49c0,2.8,0,4.26,0,4.38c0.12,1.34,0.3,2.31,0.55,2.92c0.24,0.61,1.03,0.97,2.37,1.1
			c1.7,0.12,3.52,0.18,5.47,0.18c1.94,0,3.77,0,5.47,0h22.98c0.97,0,1.89,0,2.74,0c0.85,0,1.76-0.12,2.73-0.36
			c3.29-0.61,5.71-2.19,7.3-4.74c0.37-0.49,0.67-0.94,0.91-1.37c0.25-0.42,0.55-0.88,0.91-1.37c0.24-0.48,0.52-0.97,0.82-1.46
			C1120.1,507.32,1120.44,506.84,1120.81,506.35z"/>
		<path class="st0" d="M1255.13,392.08c-0.18,0.31-0.34,0.46-0.45,0.46c-0.49,0.37-0.97,0.61-1.46,0.73
			c-1.21,0.61-2.13,1.31-2.73,2.1c-0.61,0.79-0.98,1.86-1.1,3.19c0,7.29,0,14.62,0,21.97c0,7.36,0.03,14.9,0.09,22.62
			c0.06,7.72,0.09,15.75,0.09,24.08c0,8.33,0,17.05,0,26.17v19.51c0,0.61,0,1.22,0,1.83c0,0.61-0.06,1.22-0.18,1.83
			c0,0.73-0.34,1.31-1,1.73c-0.67,0.42-1.46,0.7-2.37,0.82c-0.91,0.12-1.82,0.15-2.73,0.09c-0.91-0.06-1.61-0.15-2.1-0.28
			c-1.46-0.24-2.67-0.88-3.65-1.91c-0.98-1.03-1.83-2.16-2.56-3.38c-1.7-2.55-3.35-5.11-4.92-7.66c-1.58-2.56-3.22-5.04-4.92-7.48
			c-7.42-11.31-14.77-22.49-22.07-33.56c-7.29-11.06-14.66-22.31-22.07-33.74c-2.92-4.38-5.81-8.72-8.66-13.04
			c-2.86-4.31-5.74-8.6-8.66-12.86c-0.12-0.24-0.24-0.48-0.36-0.73c-0.12-0.24-0.25-0.48-0.37-0.73c-0.37-0.37-0.85-0.55-1.46-0.55
			c-0.61,0-1.04,0.31-1.28,0.91c0,0.25-0.03,0.55-0.09,0.91c-0.06,0.37-0.09,0.73-0.09,1.1c-0.12,2.55-0.21,5.11-0.27,7.66
			c-0.06,2.56-0.09,5.11-0.09,7.66c0,1.82,0,4.98,0,9.48s0.03,9.7,0.09,15.59c0.06,5.9,0.09,12.13,0.09,18.7
			c0,6.56,0.03,12.8,0.09,18.69c0.06,5.9,0.09,11.13,0.09,15.69s0,7.69,0,9.39v3.1c0,1.21,0.28,2.13,0.82,2.73
			c0.54,0.61,1.37,1.22,2.46,1.83c0.36,0.24,0.7,0.39,1,0.45c0.3,0.06,0.7,0.21,1.18,0.45c0.24,0.25,0.46,0.43,0.64,0.55
			c0.18,0.12,0.28,0.49,0.28,1.1h-15.69c0-0.48,0.18-0.91,0.55-1.28c0.24-0.12,0.52-0.21,0.82-0.27c0.31-0.06,0.58-0.21,0.82-0.46
			c1.94-0.97,3.16-2.19,3.65-3.65V400.93c0-2.19-0.67-3.89-2.01-5.11c-1.21-1.21-2.86-1.83-4.92-1.83c-0.85,0-1.52-0.12-2-0.36
			c-0.61-0.25-0.91-0.52-0.91-0.82c0-0.3,0.06-0.57,0.18-0.82c0.12-0.37,0.55-0.55,1.28-0.55h19.33c0.73,0,1.34,0.31,1.82,0.91
			s0.97,1.21,1.46,1.82c8.02,11.8,16.02,24.08,23.98,36.85c7.96,12.77,15.96,25.05,23.99,36.84c2.06,3.04,4.53,6.69,7.39,10.94
			c2.85,4.26,5.62,8.36,8.3,12.31c2.67,3.95,4.98,7.36,6.93,10.21c1.94,2.86,3.04,4.35,3.28,4.47c0.48,0.49,0.88,0.58,1.18,0.27
			c0.31-0.3,0.49-0.76,0.55-1.37c0.06-0.61,0.09-1.28,0.09-2c0-0.73,0-1.34,0-1.83v-32.46c0-3.53,0-7.69,0-12.49
			c0-4.8,0-9.76,0-14.86c0-5.11,0-10.15,0-15.14c0-4.98,0-9.45,0-13.41c0-3.95,0-7.17,0-9.67s0-3.8,0-3.92
			c0-2.43-1.16-4.25-3.46-5.47c-0.98-0.24-1.71-0.49-2.19-0.73c-0.25-0.12-0.43-0.3-0.55-0.55c-0.12-0.24-0.18-0.48-0.18-0.73h15.14
			C1255.34,391.57,1255.31,391.78,1255.13,392.08z"/>
	</g>
	<path class="st1" d="M342.08,48.18c5.66-1.04,11.45-2.09,17.24-3.17c2.16-0.4,4.29-0.97,6.46-1.28c3.39-0.49,6.8-0.89,10.22-1.2
		c5.91-0.53,11.83-1.06,17.76-1.4c2.91-0.17,5.84,0.14,8.76,0.14c1.38,0,2.77-0.35,4.15-0.32c2.07,0.05,4.16,0.17,6.2,0.49
		c3.41,0.54,6.78,1.29,10.18,1.91c2.26,0.41,4.56,0.62,6.78,1.17c9.38,2.32,18.74,4.72,28.09,7.14c3.03,0.79,6.09,1.55,9.02,2.66
		c2.88,1.09,5.61,2.6,8.4,3.93c1.11,0.53,2.17,1.27,3.34,1.57c3.06,0.8,5.65,2.49,8.35,4.01c1.69,0.95,3.53,1.65,5.26,2.55
		c1.59,0.83,3.13,1.75,4.68,2.66c3.43,2.03,6.87,4.04,10.26,6.12c1.41,0.86,2.66,1.96,4.07,2.83c5.46,3.38,10.97,6.68,16.43,10.06
		c3.71,2.3,7.35,4.69,11.03,7.02c5.31,3.37,10.67,6.66,15.91,10.12c3.15,2.08,6.13,4.42,9.19,6.64c3.36,2.44,6.69,4.92,10.12,7.27
		c5.04,3.46,10.2,6.76,15.22,10.24c5.34,3.7,10.62,7.48,15.86,11.33c3.87,2.84,7.65,5.81,11.42,8.79c3.94,3.12,7.76,6.37,11.72,9.46
		c4.62,3.62,9.29,7.18,14.01,10.67c6.15,4.55,12.4,8.96,18.56,13.5c4.85,3.58,9.61,7.27,14.42,10.89c3.43,2.57,6.81,5.23,10.36,7.62
		c3.22,2.16,6.64,4.01,9.97,5.99c1.93,1.15,3.84,2.36,5.82,3.41c3.21,1.71,6.48,3.32,9.71,4.99c2.08,1.08,4.15,2.2,6.23,3.27
		c0.37,0.19,0.79,0.26,1.2,0.36c3.79,0.91,7.54,2.05,11.38,2.66c4.19,0.66,8.13,2.01,12.08,3.41c3.32,1.18,6.74,2.22,9.86,3.82
		c3.85,1.98,7.92,3.27,11.97,4.68c1.45,0.5,2.79,1.33,4.19,1.98c1.31,0.61,2.61,1.24,3.95,1.78c3.07,1.23,6.17,2.4,9.24,3.62
		c3.83,1.52,7.68,3,11.47,4.63c3.45,1.48,6.8,3.18,10.23,4.69c1.52,0.67,3.17,1.03,4.7,1.66c2,0.81,3.95,1.75,5.93,2.63
		c0.42,0.19,0.87,0.33,1.31,0.49c4.17,1.45,8.34,2.89,12.51,4.35c2.74,0.96,5.49,1.88,8.18,2.94c3.26,1.28,6.47,2.71,9.71,4.06
		c2.1,0.87,4.2,1.71,6.31,2.55c2.89,1.14,5.78,2.27,8.67,3.4c0.24,0.09,0.5,0.16,0.75,0.23c2.75,0.82,5.55,1.52,8.25,2.48
		c2.38,0.84,4.65,1.96,6.98,2.95c0.24,0.1,0.5,0.17,0.75,0.24c4.27,1.29,8.55,2.49,12.46,4.78c1.36,0.8,3.01,1.12,4.54,1.63
		c3.56,1.18,7.17,2.22,10.67,3.53c3.13,1.18,6.14,2.69,9.23,3.98c1.49,0.62,3.07,1,4.56,1.6c3.5,1.41,6.96,2.91,10.46,4.31
		c1.59,0.64,3.23,1.16,4.88,1.65c2.95,0.89,5.92,1.71,8.87,2.6c0.59,0.18,1.13,0.53,1.66,0.86c3.09,1.89,6.53,2.84,9.98,3.79
		c2.77,0.76,5.48,1.76,8.28,2.37c1.61,0.35,3.37,0.29,5.02,0.1c2.08-0.24,3.74,0.65,4.15,2.72c0.31,1.56,0.43,3.04-0.48,4.63
		c-0.8,1.41-0.78,3.26-1.33,4.85c-0.76,2.19-1.7,4.32-2.58,6.47c-0.23,0.57-0.56,1.11-0.73,1.7c-0.98,3.36-1.86,6.76-2.91,10.1
		c-0.9,2.88-1.91,5.72-2.97,8.54c-0.63,1.66-1.79,2.98-3.67,3.1c-1.83,0.11-3.25-1.02-4.31-2.37c-2.25-2.83-4.95-4.83-8.54-5.69
		c-3.35-0.8-6.65-1.87-9.96-2.83c-2.5-0.73-5.1-1.26-7.48-2.28c-3.94-1.69-8.48-1.83-12-4.62c-0.34-0.27-0.9-0.25-1.36-0.38
		c-3.22-0.92-6.44-1.83-9.64-2.78c-2-0.59-3.98-1.23-5.95-1.9c-0.68-0.23-1.42-0.5-1.92-0.98c-1.38-1.31-3.13-1.56-4.84-2.02
		c-3.18-0.86-6.34-1.77-9.49-2.73c-3.89-1.19-7.77-2.41-11.62-3.71c-1.06-0.36-1.95-1.16-3-1.58c-2.35-0.95-4.75-1.77-7.12-2.68
		c-4.67-1.79-9.72-2.58-13.95-5.54c-1.15-0.81-2.68-1.1-4.07-1.54c-2.38-0.77-4.82-1.39-7.18-2.21c-1.8-0.63-3.51-1.49-5.27-2.23
		c-1.71-0.72-3.41-1.5-5.17-2.09c-3.85-1.3-7.77-2.37-11.58-3.76c-3.35-1.22-6.56-2.79-9.87-4.14c-1.49-0.61-3.03-1.09-4.57-1.56
		c-2.64-0.82-5.34-1.49-7.95-2.4c-2.87-1-5.67-2.22-8.5-3.32c-1.4-0.54-2.81-1.09-4.25-1.55c-2.28-0.74-4.62-1.31-6.87-2.14
		c-3.55-1.31-7.31-1.95-10.7-3.81c-2.25-1.23-4.84-1.82-7.25-2.79c-2.87-1.15-5.71-2.4-8.56-3.61c-1.23-0.53-2.46-1.07-3.67-1.62
		c-3.56-1.61-7.1-3.26-10.67-4.85c-2.59-1.15-5.31-2.02-7.78-3.37c-3.45-1.88-7.15-3.54-9.14-7.33c-0.92-1.74-2.76-2.3-4.47-2.88
		c-3.65-1.23-7.47-2.08-10.95-3.68c-2.6-1.19-5.22-2.01-7.94-2.72c-2.88-0.76-5.7-1.73-8.58-2.47c-10.51-2.7-21.02-5.4-31.56-7.96
		c-4.93-1.2-9.94-2.1-14.92-3.11c-3.28-0.66-6.56-1.36-9.87-1.84c-2.7-0.39-5.46-0.45-8.18-0.7c-1.66-0.15-3.3-0.38-4.95-0.62
		c-2.01-0.29-4-0.69-6.01-0.91c-2.51-0.27-5.04-0.39-7.57-0.58c-1.35-0.1-2.71-0.13-4.04-0.34c-4.32-0.67-8.63-1.48-12.96-2.09
		c-3.59-0.5-7.21-0.74-10.8-1.2c-3.45-0.44-6.88-1.09-10.34-1.49c-2.65-0.31-5.34-0.34-8-0.59c-1.86-0.18-3.7-0.54-5.56-0.77
		c-3.75-0.46-7.51-0.87-11.27-1.32c-2.93-0.35-5.85-0.76-8.78-1.09c-3.3-0.37-6.61-0.67-9.91-1.01c-0.37-0.04-0.72-0.13-1.09-0.2
		c-3.62-0.7-7.22-1.4-10.95-1.3c-1.9,0.05-3.82-0.49-5.72-0.79c-4.29-0.68-8.57-1.4-12.94-1.25c-0.16,0.01-0.31-0.03-0.47-0.06
		c-3.49-0.67-6.98-1.36-10.48-2.01c-5.33-0.98-10.67-1.93-16.01-2.89c-2.57-0.46-5.16-0.79-7.69-1.39
		c-6.06-1.43-12.32-1.62-18.36-3.31c-7.24-2.03-14.66-3.44-21.94-5.37c-3.23-0.85-6.29-2.32-9.43-3.51
		c-0.44-0.17-0.9-0.26-1.35-0.41c-4.17-1.31-8.41-2.45-12.5-3.99c-2.81-1.06-5.39-2.72-8.1-4.05c-2.81-1.38-5.68-2.63-8.47-4.04
		c-3.1-1.57-6.18-3.21-9.2-4.92c-3.11-1.77-6.21-3.56-9.18-5.54c-3.05-2.04-5.99-4.25-8.87-6.53c-2.09-1.66-4.1-3.46-5.95-5.39
		c-2.25-2.35-4.44-4.79-6.41-7.37c-4.84-6.36-8.67-13.36-12.34-20.44c-1.93-3.73-4.05-7.36-5.94-11.1
		c-0.76-1.51-1.31-3.17-1.65-4.83c-0.8-3.91-1.48-7.82-1.66-11.84c-0.13-2.95-0.07-5.82,0.21-8.75c0.22-2.33-0.17-4.73-0.29-7.09
		c-0.02-0.31-0.11-0.63-0.06-0.92c0.42-2.52,0.6-5.13,1.38-7.54c1.14-3.54,1.85-7.24,4.57-10.22c2.22-2.44,3.59-5.64,5.7-8.19
		c3.81-4.59,8.21-8.61,13.55-11.42C336.9,50.48,339.42,49.42,342.08,48.18z M341.03,82.62c0.01,0.15,0.03,0.29,0.04,0.44
		c-1.25,0.38-2.54,0.68-3.74,1.19c-0.56,0.24-1.33,0.92-1.3,1.35c0.04,0.57,0.66,1.31,1.23,1.59c2.27,1.11,4.58,2.17,6.94,3.07
		c3.82,1.47,7.7,2.81,11.56,4.18c1.77,0.63,3.6,1.08,5.32,1.82c3.45,1.49,6.76,3.34,10.28,4.63c3.64,1.34,7.41,2.29,10.94,4.02
		c3.06,1.49,6.35,2.53,9.56,3.74c3.63,1.36,7.26,2.74,10.93,4c3.69,1.27,7.44,2.4,11.15,3.62c1.48,0.48,3.04,0.84,4.38,1.59
		c2.98,1.66,6.19,2.63,9.43,3.55c0.4,0.11,0.81,0.22,1.21,0.36c3.25,1.21,6.49,2.45,9.75,3.64c1.03,0.37,2.16,0.5,3.18,0.89
		c2.6,1,5.16,2.1,7.76,3.12c1.45,0.57,2.97,0.98,4.39,1.6c3.63,1.57,7.2,3.27,10.83,4.84c3.5,1.51,6.99,3.07,10.57,4.36
		c3.97,1.43,8.04,2.57,12.06,3.85c1.69,0.54,3.37,1.09,5.03,1.7c0.97,0.35,1.89,0.83,2.83,1.25c1.97,0.89,3.89,1.88,5.9,2.64
		c3.01,1.14,6.1,2.09,9.14,3.16c1.12,0.39,2.22,0.87,3.32,1.31c2.68,1.08,5.36,2.16,8.04,3.24c1.78,0.71,3.57,1.38,5.33,2.14
		c2.27,0.99,4.47,2.13,6.75,3.06c1.73,0.71,3.56,1.15,5.32,1.8c1.5,0.55,3.08,1.03,4.41,1.88c3.54,2.26,7.57,3.25,11.44,4.64
		c2.35,0.84,4.78,1.47,7.18,2.21c0.24,0.07,0.44,0.28,0.67,0.38c2.88,1.24,5.73,2.59,8.67,3.67c2.64,0.97,5.39,1.62,8.09,2.44
		c0.29,0.09,0.53,0.32,0.81,0.45c2.13,1.05,4.21,2.2,6.4,3.11c1.82,0.76,3.77,1.19,5.63,1.87c1.7,0.62,3.36,1.34,5.02,2.05
		c2.52,1.07,5.01,2.18,7.53,3.24c1.1,0.46,2.24,0.82,3.35,1.27c1.48,0.61,3.02,1.12,4.38,1.93c2.74,1.61,5.55,2.9,8.68,3.58
		c1.68,0.37,3.19,1.49,4.86,1.99c2.37,0.72,4.81,1.17,7.22,1.75c0.45,0.11,0.94,0.23,1.31,0.49c3.77,2.61,8.13,3.77,12.41,5.11
		c0.5,0.16,1.04,0.22,1.51,0.44c4.26,2.04,8.61,3.77,13.2,4.97c3.82,1,7.54,2.39,11.31,3.61c0.05,0.02,0.09,0.05,0.14,0.07
		c2.97,1.31,5.89,2.75,8.93,3.89c3.51,1.32,7.11,2.37,10.68,3.54c0.25,0.08,0.5,0.16,0.74,0.26c3.18,1.35,6.35,2.7,9.54,4.04
		c1.29,0.54,2.6,1.05,3.9,1.55c1.87,0.72,3.73,1.5,5.64,2.08c0.46,0.14,1.51-0.31,1.62-0.69c0.15-0.51-0.16-1.49-0.59-1.77
		c-1.2-0.78-2.55-1.32-3.87-1.91c-1.36-0.61-2.78-1.1-4.13-1.75c-3.29-1.59-6.54-3.25-9.82-4.85c-3.04-1.49-6.1-2.94-9.14-4.42
		c-1.99-0.97-3.96-1.97-5.96-2.92c-1.72-0.81-3.5-1.49-5.19-2.37c-2.86-1.49-5.65-3.12-8.51-4.63c-3.52-1.86-7.11-3.58-10.6-5.5
		c-4.62-2.55-9.15-5.24-13.72-7.87c-3.24-1.86-6.51-3.65-9.69-5.61c-4.09-2.51-8.1-5.15-12.13-7.74c-1.73-1.11-3.41-2.28-5.18-3.33
		c-3.66-2.16-7.37-4.23-11.03-6.39c-1.67-0.98-3.26-2.1-4.92-3.1c-4.23-2.58-8.46-5.16-12.73-7.68c-2.78-1.65-5.62-3.2-8.44-4.78
		c-0.54-0.3-1.09-0.58-1.64-0.87c-3.05-1.6-6.11-3.18-9.16-4.79c-2.32-1.23-4.6-2.54-6.95-3.73c-2.57-1.3-5.21-2.45-7.77-3.77
		c-1.81-0.93-3.48-2.12-5.28-3.07c-3.09-1.64-6.21-3.21-9.33-4.78c-2.75-1.39-5.51-2.77-8.29-4.12c-1.93-0.94-3.89-1.83-5.85-2.73
		c-2.34-1.07-4.67-2.17-7.05-3.15c-2.39-0.98-4.85-1.8-7.25-2.75c-2.54-1.01-5.05-2.09-7.57-3.13c-1.58-0.66-3.18-1.26-4.72-1.99
		c-1.8-0.85-3.47-2.02-5.33-2.7c-3.66-1.34-7.45-2.35-11.13-3.65c-2.97-1.05-5.83-2.42-8.81-3.45c-3.89-1.35-7.83-2.53-11.76-3.75
		c-2.59-0.81-5.2-1.56-7.8-2.34c-0.2-0.06-0.38-0.18-0.57-0.26c-2.79-1.09-5.52-2.43-8.4-3.2c-2.48-0.66-5.19-0.41-7.7-1.01
		c-7.65-1.84-15.25-3.93-22.88-5.83c-2.12-0.53-4.34-0.62-6.46-1.13c-9.21-2.21-18.41-4.35-27.89-5.31
		c-3.65-0.37-7.26-1.15-10.97-1.1c-2.06,0.03-4.12-0.14-6.17-0.11c-2.3,0.04-4.61,0.11-6.9,0.32
		C350.43,81.61,345.73,82.13,341.03,82.62z M329.58,94.09c0.96,1.35,2.24,3.45,3.83,5.29c3.44,4,6.91,7.98,10.59,11.74
		c2.98,3.04,6.16,5.93,9.51,8.57c3.05,2.41,6.44,4.39,9.68,6.56c2.98,1.99,5.92,4.03,8.95,5.94c1.38,0.87,2.93,1.46,4.38,2.22
		c2.4,1.24,4.78,2.55,7.2,3.76c1.42,0.71,2.99,1.15,4.35,1.95c2.69,1.56,5.27,3.25,8.38,3.96c1.43,0.33,2.75,1.14,4.12,1.74
		c3.35,1.46,6.68,2.97,10.05,4.37c3.1,1.29,6.25,2.46,9.37,3.69c2.79,1.11,5.55,2.27,8.35,3.34c2.61,1,5.26,1.91,7.89,2.88
		c3.36,1.24,6.68,2.58,10.07,3.72c2.92,0.98,5.91,1.74,8.87,2.61c0.25,0.07,0.48,0.21,0.72,0.31c3.27,1.35,6.51,2.76,9.82,4.03
		c1.37,0.52,2.89,0.62,4.27,1.13c2.66,0.98,5.22,2.23,7.89,3.16c2.76,0.96,5.59,1.7,8.41,2.49c4.44,1.24,8.89,2.43,13.33,3.67
		c2.82,0.79,5.61,1.66,8.43,2.45c4.54,1.27,9.07,2.61,13.65,3.7c4.84,1.15,9.78,1.89,14.61,3.07c12.87,3.13,25.73,6.28,38.54,9.65
		c7.67,2.02,15.65,2.85,23,6.25c3.14,1.46,6.69,2.06,10.08,2.93c1.4,0.36,2.91,0.27,4.31,0.63c3.95,1.02,7.86,2.19,11.81,3.24
		c6.33,1.69,12.69,3.31,19.02,5c4.04,1.08,8.07,2.22,12.1,3.34c3.96,1.1,8.02,1.71,11.81,3.62c3.3,1.66,7.02,2.52,10.61,3.56
		c4.88,1.41,9.8,2.7,14.72,3.97c3.21,0.83,6.46,1.53,9.68,2.33c0.64,0.16,1.2,0.62,1.84,0.77c2.19,0.5,4.38,0.95,6.59,1.34
		c0.33,0.06,0.74-0.35,1.12-0.55c-0.23-0.32-0.39-0.77-0.71-0.93c-1.34-0.67-2.69-1.37-4.1-1.84c-2.78-0.91-5.6-1.67-8.4-2.49
		c-0.2-0.06-0.4-0.14-0.59-0.23c-2.32-1.14-4.55-2.5-6.96-3.38c-4.11-1.49-8.34-2.66-12.51-3.99c-0.73-0.23-1.47-0.5-2.13-0.89
		c-2.55-1.51-5.19-2.75-8.09-3.44c-1.1-0.26-2.14-0.79-3.21-1.19c-1.41-0.53-2.82-1.04-4.23-1.58c-2.9-1.12-5.78-2.28-8.69-3.36
		c-1.86-0.68-3.79-1.16-5.64-1.87c-3.76-1.45-7.47-3.02-11.22-4.49c-4.24-1.66-8.48-3.32-12.74-4.9c-3.92-1.46-7.89-2.82-11.82-4.24
		c-1.37-0.49-2.72-1.02-4.07-1.57c-2.34-0.96-4.65-1.97-6.99-2.92c-1.35-0.54-2.76-0.92-4.09-1.51c-2.68-1.19-5.26-2.6-7.98-3.67
		c-3.86-1.53-7.8-2.85-11.71-4.25c-1.57-0.56-3.16-1.05-4.7-1.67c-2.34-0.95-4.6-2.11-6.98-2.95c-3.73-1.32-7.53-2.43-11.29-3.65
		c-1.38-0.45-2.84-0.81-4.08-1.52c-4.16-2.36-8.86-3.22-13.25-4.94c-1.26-0.49-2.54-0.93-3.8-1.42c-3.04-1.17-6.07-2.38-9.13-3.52
		c-1.81-0.67-3.69-1.13-5.48-1.85c-3.26-1.31-6.43-2.84-9.71-4.09c-3.15-1.21-6.41-2.14-9.6-3.28c-1.61-0.57-3.15-1.31-4.72-1.99
		c-1.7-0.73-3.37-1.55-5.11-2.18c-2.06-0.75-4.19-1.28-6.25-2c-1.46-0.51-2.87-1.19-4.29-1.81c-2.56-1.11-5.07-2.33-7.67-3.33
		c-2.14-0.82-4.39-1.33-6.55-2.09c-1.95-0.68-3.89-1.44-5.77-2.31c-1.43-0.66-2.66-1.83-4.13-2.3c-5.32-1.71-10.7-3.23-16.05-4.83
		c-0.54-0.16-1.08-0.39-1.57-0.66c-2.96-1.65-6.09-2.85-9.33-3.79c-2.45-0.71-4.9-1.47-7.34-2.22c-0.28-0.09-0.53-0.31-0.78-0.49
		c-3.25-2.34-7.15-3.16-10.8-4.55c-2.72-1.04-5.6-1.69-8.4-2.52c-0.2-0.06-0.41-0.12-0.57-0.24c-3.97-2.8-8.7-3.74-13.15-5.36
		c-2.78-1.01-5.6-1.92-8.37-2.97c-1.1-0.42-2.07-1.15-3.15-1.64c-1.93-0.87-3.92-1.59-5.82-2.5c-1.97-0.95-3.8-2.23-5.82-3.04
		c-3.08-1.23-6.28-2.17-9.42-3.24c-0.44-0.15-0.86-0.36-1.29-0.54c-2.14-0.9-4.26-1.84-6.41-2.68c-1.6-0.62-3.25-1.11-4.87-1.67
		c-2.8-0.96-5.57-2.02-8.4-2.87C329.84,90.55,328.9,91.61,329.58,94.09z M347.71,55.68c-2.16,1.11-4.75,2.19-7.05,3.69
		c-3.64,2.38-7.22,4.9-10.59,7.66c-2.26,1.85-4.16,4.17-6.1,6.38c-0.31,0.35-0.22,1.36,0.06,1.84c0.19,0.33,1.07,0.45,1.59,0.36
		c0.74-0.13,1.44-0.53,2.16-0.81c3-1.18,5.9-2.77,9.01-3.46c5.82-1.29,11.74-2.14,17.65-2.99c2.22-0.32,4.52-0.12,6.79-0.13
		c2.81-0.02,5.63-0.02,8.45-0.01c1.28,0.01,2.55,0.11,3.83,0.11c2.05,0,4.09-0.14,6.14-0.06c3.54,0.13,7.08,0.52,10.62,0.56
		c3.81,0.04,7.56,0.33,11.25,1.32c0.6,0.16,1.23,0.27,1.85,0.34c3.07,0.31,6.18,0.43,9.21,0.94c2.96,0.5,5.76,1.53,8.56,2.78
		c3.49,1.56,7.4,2.21,11.12,3.26c3.11,0.88,6.23,1.76,9.33,2.69c1.84,0.55,3.68,1.14,5.49,1.8c3.31,1.2,6.54,2.61,9.89,3.67
		c4.09,1.29,8.27,2.29,12.4,3.46c2.71,0.77,5.41,1.6,8.11,2.4c0.1,0.03,0.2,0.07,0.29,0.11c3.79,1.66,7.47,3.52,11.5,4.62
		c2.36,0.65,4.58,1.88,6.82,2.94c1.66,0.79,3.22,1.81,4.89,2.58c1.97,0.91,4.05,1.58,6.01,2.5c3.53,1.67,7.02,3.43,10.5,5.2
		c3.2,1.63,6.39,3.28,9.55,4.99c1.95,1.05,3.79,2.28,5.75,3.31c4.14,2.17,8.39,4.14,12.47,6.41c3.22,1.79,6.24,3.92,9.39,5.85
		c3.96,2.42,8.03,4.66,11.91,7.21c3.26,2.14,6.25,4.69,9.46,6.92c2.87,2,5.89,3.78,8.79,5.73c4.19,2.82,8.32,5.73,12.49,8.58
		c8.11,5.55,16.21,11.13,24.37,16.6c3.42,2.29,6.98,4.39,10.51,6.52c4.64,2.8,9.14,5.83,13.98,8.33c4.39,2.27,8.52,5.05,12.76,7.6
		c2.21,1.32,4.42,2.64,6.63,3.96c0.39,0.23,0.75,0.52,1.16,0.71c1.99,0.97,4,1.89,5.98,2.87c2.34,1.15,4.65,2.38,7.01,3.51
		c1.44,0.69,2.96,1.2,4.4,1.88c2.63,1.25,5.23,2.57,7.85,3.86c1.06,0.52,2.11,1.1,3.19,1.57c1.99,0.86,3.99,1.68,6.02,2.45
		c0.29,0.11,0.72-0.15,1.08-0.24c-0.13-0.31-0.18-0.72-0.41-0.91c-1.19-0.97-2.37-2-3.67-2.81c-3.52-2.2-7.19-4.16-10.64-6.47
		c-5.39-3.61-10.67-7.39-15.95-11.16c-4.79-3.42-9.52-6.93-14.29-10.39c-2.11-1.53-4.27-2.98-6.34-4.56
		c-3.58-2.73-7.08-5.58-10.67-8.3c-3.22-2.44-6.53-4.77-9.79-7.16c-4.91-3.6-9.83-7.19-14.71-10.82c-6.72-5-13.41-10.04-20.11-15.07
		c-2.54-1.9-5.01-3.9-7.62-5.68c-3.44-2.34-7.03-4.45-10.49-6.75c-2.77-1.84-5.41-3.9-8.19-5.72c-3.11-2.04-6.35-3.88-9.49-5.88
		c-1.65-1.05-3.18-2.27-4.81-3.34c-1.19-0.78-2.53-1.36-3.7-2.17c-2.7-1.86-5.34-3.81-8-5.73c-0.21-0.15-0.41-0.32-0.63-0.46
		c-3.32-2.14-6.66-4.24-9.95-6.42c-2.22-1.47-4.31-3.17-6.59-4.53c-2.28-1.36-4.75-2.41-7.11-3.65c-2-1.05-3.93-2.22-5.94-3.24
		c-1.78-0.91-3.64-1.68-5.45-2.54c-0.84-0.39-1.65-0.85-2.49-1.25c-1.72-0.82-3.45-1.62-5.17-2.44c-2.16-1.04-4.31-2.11-6.48-3.13
		c-1.96-0.92-3.95-1.76-5.92-2.66c-3.94-1.8-7.7-4.04-12.02-4.9c-2.27-0.45-4.46-1.01-6.21-2.68c-0.28-0.26-0.74-0.34-1.13-0.47
		c-1.67-0.57-3.35-1.12-5.02-1.71c-3.91-1.38-7.79-2.85-11.73-4.12c-1.41-0.45-3.01-0.3-4.46-0.66c-7.48-1.82-15-3.43-22.64-4.45
		c-3.05-0.41-6.07-1.06-9.09-1.67c-3.15-0.64-6.23-1.35-9.53-1.44c-4.2-0.12-8.3-1.57-12.61-1.53c-3.81,0.03-7.65-0.84-11.43-0.62
		c-2.6,0.16-5.22,0.36-7.82,0.61c-4.18,0.41-8.32,1.23-12.47,1.95C357,53.92,352.55,54.78,347.71,55.68z M319.79,111.99
		c0.71,1.32,1.44,2.7,2.18,4.07c0.4,0.74,0.82,1.47,1.24,2.2c1.42,2.44,2.59,5.09,4.33,7.28c2.86,3.59,5.94,7.02,9.19,10.25
		c4.72,4.7,9.61,9.23,14.53,13.73c4.29,3.92,9.3,6.84,14.32,9.7c2.32,1.32,4.8,2.34,7.17,3.58c1.95,1.02,3.8,2.21,5.76,3.21
		c3.53,1.79,7.11,3.48,10.66,5.23c2.02,0.99,3.95,2.21,6.04,3c4.28,1.61,8.64,2.99,12.97,4.48c0.88,0.3,1.75,0.64,2.6,1.03
		c1.35,0.62,2.63,1.44,4.03,1.91c2.72,0.92,5.49,1.67,8.25,2.46c3.83,1.09,7.65,2.18,11.5,3.21c5.77,1.55,11.55,3.09,17.33,4.59
		c8.9,2.3,17.8,4.55,26.71,6.81c1.93,0.49,3.87,0.97,5.82,1.39c5.9,1.27,11.8,2.49,17.7,3.75c7.13,1.52,14.26,3.08,21.39,4.6
		c5.54,1.18,11.09,2.31,16.62,3.49c6.47,1.37,12.91,2.84,19.39,4.12c8.16,1.61,16,4.72,24.46,4.93c1.68,0.04,3.34,0.72,5.03,0.96
		c1.48,0.21,2.99,0.14,4.47,0.33c2.12,0.27,4.21,0.7,6.32,1c1.12,0.16,2.3,0.42,3.39,0.24c3.79-0.61,7.43,0.11,11.08,0.88
		c0.41,0.09,0.82,0.23,1.23,0.27c4.17,0.39,8.36,0.64,12.51,1.17c3.26,0.42,6.52,1.03,9.71,1.81c12.15,2.98,24.27,6.05,36.4,9.11
		c8.96,2.26,17.91,4.56,26.86,6.86c0.49,0.13,0.94,0.43,1.43,0.59c2.16,0.74,4.3,1.57,6.5,2.13c0.52,0.13,1.54-0.47,1.82-1
		c0.21-0.4-0.23-1.44-0.69-1.82c-0.7-0.57-1.64-0.91-2.52-1.16c-3.82-1.11-7.65-2.17-11.49-3.22c-5-1.37-10.03-2.66-15.02-4.07
		c-1.18-0.33-2.24-1.06-3.39-1.51c-2.7-1.05-5.4-2.12-8.15-3.03c-1.11-0.37-2.37-0.25-3.52-0.51c-0.9-0.2-1.71-0.77-2.61-0.98
		c-19.16-4.42-38.34-8.81-57.5-13.24c-1.31-0.3-2.52-1.02-3.82-1.32c-1.51-0.35-3.11-0.35-4.63-0.69c-4.47-1-8.92-2.1-13.38-3.15
		c-0.46-0.11-0.93-0.2-1.39-0.24c-2.79-0.24-5.61-0.26-8.35-0.73c-4.9-0.84-9.76-1.97-14.64-2.95c-3.9-0.79-7.81-1.52-11.7-2.32
		c-5.59-1.15-11.18-2.33-16.76-3.52c-2.11-0.45-4.18-1.13-6.31-1.42c-2.82-0.38-5.72-0.21-8.5-0.74c-6.8-1.29-13.58-2.72-20.31-4.34
		c-9.44-2.27-18.84-4.75-28.25-7.17c-0.95-0.24-1.87-0.62-2.77-1.02c-1.5-0.66-2.91-1.6-4.46-2.05c-4.77-1.4-9.6-2.61-14.4-3.94
		c-2.82-0.78-5.61-1.65-8.42-2.45c-3.57-1.02-7.15-1.99-10.72-3.02c-0.79-0.23-1.56-0.57-2.3-0.94c-1.2-0.59-2.32-1.36-3.56-1.83
		c-2.05-0.77-4.21-1.25-6.25-2.03c-2.49-0.96-4.92-2.07-7.36-3.17c-1.07-0.48-2.05-1.18-3.13-1.61c-2.35-0.95-4.91-1.51-7.09-2.75
		c-3.24-1.86-6.52-3.51-10.07-4.68c-1.78-0.59-3.44-1.57-5.13-2.42c-1.22-0.61-2.38-1.34-3.61-1.94c-2.08-1.01-4.22-1.89-6.27-2.95
		c-1.07-0.55-1.95-1.45-2.98-2.07c-3.39-2.01-7.04-3.67-10.18-6.02c-5.07-3.8-9.85-7.99-14.66-12.13
		c-5.54-4.76-9.91-10.56-14.04-16.51c-1.97-2.83-3.33-6.07-5.21-8.96c-2.54-3.89-3.95-8.28-5.88-12.44
		c-0.31-0.66-1.04-1.13-1.57-1.69c-0.58,0.6-1.59,1.16-1.65,1.81c-0.21,2.38-0.52,4.89-0.01,7.17
		C317.01,103.76,318.5,107.8,319.79,111.99z M890.81,309.89c0.1,0.16,0.2,0.31,0.29,0.47c0.65-0.13,1.34-0.15,1.94-0.4
		c1.13-0.47,2.04-0.15,2.51,0.83c0.81,1.7,2.15,1.85,3.66,1.49c1.6-0.39,2.32,0.53,2.85,1.71c0.6,1.34-0.54,1.84-1.37,2.44
		c-0.25,0.18-0.64,0.25-0.78,0.48c-0.35,0.58-0.6,1.22-0.88,1.84c0.6,0.21,1.22,0.65,1.78,0.58c0.91-0.1,1.77-0.54,2.66-0.83
		c0.82-0.28,1.67-0.5,2.46-0.84c1.01-0.44,1.22,0.17,1.47,0.92c0.17,0.49,0.57,1.33,0.75,1.3c0.79-0.13,1.68-0.36,2.25-0.87
		c0.33-0.3,0.37-1.31,0.13-1.81c-1.18-2.51-0.18-5.04,2.37-6.21c2.62-1.2,5.25-0.44,7.79-0.04c3.53,0.56,7.02,1.44,10.44,2.47
		c1.88,0.57,3.62,1.68,5.37,2.64c1.21,0.66,2.3,1.54,3.49,2.23c1.85,1.06,3.24,2.3,4.17,4.42c0.73,1.68,2.03,3.7,4.43,3.67
		c1.94-0.02,3.88-0.43,5.33-1.87c0.41-0.41,0.67-1.33,0.51-1.88c-0.63-2.27-2.31-3.42-4.57-3.93c-0.66-0.15-1.2-0.78-1.8-1.19
		c0.57-0.38,1.13-0.78,1.72-1.13c1.22-0.72,2.59-1.24,3.64-2.15c1.13-0.97,0.92-1.78-0.35-2.57c-0.39-0.24-0.87-0.34-1.33-0.45
		c-3.89-0.94-7.83-1.7-11.66-2.85c-2.08-0.62-4.35-1.49-5.87-2.94c-2.53-2.41-5.66-2.75-8.65-3.11c-3.54-0.42-6.77-1.4-9.96-2.88
		c-1.68-0.78-3.48-1.39-5.29-1.8c-2.7-0.62-5.46-0.95-8.17-1.49c-1.06-0.21-2.29-0.42-3.05-1.09c-3.18-2.79-7.01-3.87-11.01-4.64
		c-0.85-0.16-1.6-0.75-2.44-1.01c-5.09-1.55-10.2-3.05-15.29-4.62c-1.02-0.31-2.04-0.75-2.92-1.34c-1.06-0.71-2.1-1.36-3.39-1.05
		c-1.61,0.38-2.82-0.22-3.98-1.23c-0.49-0.43-1.07-0.86-1.68-1.04c-3.15-0.96-6.35-1.78-9.47-2.8c-0.95-0.31-1.91-0.97-2.55-1.74
		c-1.2-1.44-3.26-2.63-5.36-1.45c-0.5,0.28-1.02,0.68-1.55,0.71c-0.75,0.05-1.6-0.02-2.23-0.37c-0.29-0.16-0.32-1.15-0.16-1.68
		c0.36-1.19-0.25-1.86-1.14-2.23c-2.09-0.89-4.18-1.95-6.39-2.41c-3.41-0.71-5.86-2.53-7.74-5.33c-0.17-0.25-0.43-0.44-0.64-0.67
		c-0.67-0.73-1.25-0.36-1.68,0.22c-1.41,1.93-1.38,1.93-3.47,1.1c-0.58-0.23-1.23-0.28-1.84-0.47c-2.35-0.7-4.7-1.38-7.02-2.18
		c-0.47-0.16-1.13-0.86-1.08-1.22c0.07-0.5,0.67-1,1.16-1.33c0.48-0.33,1.09-0.46,1.66-0.68c-0.83-1.65-3.08-3.09-4.39-2.35
		c-2.5,1.41-4.78-0.19-7.16-0.01c-1.07,0.08-2.23,0.01-3.24-0.32c-2.26-0.72-4.49-1.58-6.69-2.49c-3.38-1.4-6.77-2.8-10.08-4.34
		c-2.99-1.39-6.01-2.53-9.33-2.91c-1.33-0.15-2.65-0.83-3.85-1.49c-2.37-1.31-4.36-3.23-7.22-3.73c-1.63-0.28-2-1.57-1.82-3.29
		c0.06-0.61-0.44-1.37-0.88-1.9c-0.33-0.41-0.93-0.71-1.46-0.81c-1.48-0.29-2.88-1.34-4.51-0.37c-2.48,1.47-2.99,1.28-5.3-0.59
		c-0.74-0.6-2.02-0.92-2.98-0.81c-1.28,0.16-2.49,0.53-3.82,0.15c-0.48-0.14-1.29,0.11-1.6,0.48c-0.22,0.25,0.05,1.08,0.3,1.54
		c1.35,2.47,3.38,3.82,6.25,3.25c1.71-0.35,2.33,0.37,2.53,1.86c0.18,1.37,0.89,1.98,2.32,1.88c0.47-0.03,0.98,0.35,1.47,0.54
		c-0.31,0.39-0.57,0.82-0.93,1.15c-0.24,0.21-0.63,0.25-0.94,0.4c-2.89,1.31-5.8,2.58-8.63,4c-0.48,0.24-0.99,1.25-0.86,1.71
		c0.24,0.82,0.9,1.51,2.07,1.1c1.51-0.54,3.08-0.91,4.61-1.4c1.14-0.37,1.9-0.09,2.42,1.03c0.4,0.85,0.98,1.25,2.13,1.15
		c1.42-0.12,2.9,0.15,4.31,0.45c2.81,0.59,6.25-0.85,7.35-3.44c0.48-1.13,1.18-1.22,2.06-1.02c1.89,0.43,3.82,0.83,5.63,1.5
		c1.2,0.44,2.24,1.33,3.34,2.01c-0.1,0.23-0.21,0.46-0.31,0.7c-1.63-0.28-3.26-0.54-4.89-0.86c-2.1-0.42-6.21,1.05-6.92,2.75
		c-0.59,1.41-1.45,2.34-2.79,2.98c-0.43,0.21-0.75,0.66-1.53,1.39c1.1,0.19,1.81,0.53,2.39,0.37c1.7-0.47,3.4-1.02,5-1.75
		c2.16-0.99,5.76-0.48,6.95,1.25c0.92,1.35,2.08,1.7,3.63,1.38c1.92-0.39,4.34,1.03,4.93,2.91c0.37,1.19,1.08,1.44,2.13,1.05
		c0.72-0.27,1.39-0.65,2.11-0.91c1.04-0.38,2.02-1.28,3.59-0.42c-0.69,0.62-1.15,1.16-1.73,1.54c-1.58,1.02-3.19,1.99-4.82,2.95
		c-1.05,0.62-1.75,1.43-1.22,2.65c0.49,1.11,1.76,1.22,3.16,0.4c0.73-0.42,1.39-0.97,2.15-1.31c1.02-0.46,1.78-0.43,1.88,1.08
		c0.12,1.82,1.26,2.52,2.95,1.84c1.4-0.56,2.73-1.32,4.06-2.06c1.54-0.86,3.01-1.86,4.57-2.68c0.36-0.19,0.97,0.08,1.46,0.14
		c-0.21,0.51-0.28,1.2-0.65,1.51c-1.16,0.95-2.49,1.71-3.65,2.65c-0.4,0.33-0.82,1.1-0.7,1.5c0.16,0.54,0.79,1.2,1.32,1.31
		c0.69,0.14,1.55-0.07,2.22-0.38c1.7-0.79,3.31-1.75,4.99-2.58c0.72-0.36,1.5-0.58,2.26-0.86c0.1,0.11,0.2,0.22,0.3,0.34
		c-0.37,0.63-0.79,1.24-1.1,1.9c-0.25,0.52-0.36,1.1-0.54,1.65c0.63,0.04,1.3,0.23,1.89,0.08c1.11-0.28,2.15-0.84,3.27-1.09
		c0.56-0.12,1.62,0.04,1.75,0.36c0.67,1.64,1.91,1.3,3.15,1.16c0.49-0.05,0.99-0.1,1.48-0.15c0.24,2,0.67,2.32,2.56,1.97
		c0.79-0.15,1.6-0.32,2.33-0.64c1.08-0.46,1.79-0.16,2.37,0.77c0.8,1.29,1.97,1.43,3.29,1c0.5-0.16,0.99-0.36,1.48-0.52
		c1.31-0.42,2.01,0.16,1.83,1.52c-0.17,1.34-0.63,2.48-1.94,3.18c-1.32,0.69-1.4,2.1-1.26,3.29c0.17,1.47,2.25,1.97,3.89,1.16
		c1.12-0.55,2.29-1.01,3.46-1.43c0.86-0.3,1.39,0.15,1.61,1c0.51,1.97,1.52,2.37,3.33,1.35c1.22-0.68,2.45-1.35,3.73-1.91
		c0.47-0.21,1.08-0.07,1.63-0.1c0.08,0.2,0.17,0.41,0.25,0.61c-1.99,1.63-3.98,3.25-5.97,4.88c0.1,0.2,0.2,0.4,0.3,0.59
		c0.7-0.18,1.46-0.26,2.1-0.56c2.18-1.02,4.29-2.21,6.51-3.12c0.75-0.31,1.78-0.07,2.66,0.07c1.39,0.21,2.76,0.56,4.14,0.83
		c0.82,0.16,1.64,0.28,2.46,0.42c-0.4,0.65-0.84,1.29-1.2,1.96c-0.21,0.39-0.32,0.84-0.47,1.27c0.46,0.12,0.96,0.42,1.37,0.33
		c1.27-0.29,2.5-0.77,3.77-1.07c0.42-0.1,0.91,0.11,1.38,0.18c-0.31,0.4-0.54,0.93-0.95,1.17c-1.33,0.77-2.79,1.31-4.04,2.18
		c-0.49,0.34-0.55,1.31-0.81,1.99c0.69,0.19,1.48,0.71,2.04,0.52c2.03-0.7,3.97-1.68,5.97-2.45c0.53-0.21,1.2-0.08,1.8-0.1
		c-0.38,0.47-0.76,0.94-1.16,1.39c-0.09,0.1-0.3,0.1-0.43,0.18c-1.44,0.91-2.94,1.75-4.29,2.79c-0.44,0.35-0.47,1.23-0.69,1.87
		c0.72,0.11,1.57,0.52,2.13,0.27c3.09-1.37,6.15-2.82,9.14-4.4c3.15-1.66,4.41-1.19,6.32,0.44c0.72,0.61,1.01,1.25,0.3,1.97
		c-0.75,0.76-1.53,0.56-2.13-0.26c-0.8-1.08-1.8-1.26-3.02-0.82c-1.49,0.54-2.76,1.26-3.38,3.3c1.47-0.05,2.64-0.17,3.8-0.09
		c0.44,0.03,1.13,0.44,1.23,0.81c0.26,0.93,0.63,1.28,1.64,1.14c0.96-0.13,1.95-0.01,2.93,0.01c-0.66,0.99-1.46,1.58-2.12,2.3
		c-0.33,0.36-0.4,0.97-0.59,1.47c0.46,0.08,0.93,0.24,1.38,0.21c0.46-0.03,0.9-0.26,1.35-0.4c1.67-0.54,3.33-1.11,5.01-1.6
		c0.35-0.1,0.77,0.07,1.16,0.12c0.02,0.15,0.04,0.3,0.07,0.45c-1.97,1.07-3.97,2.09-5.9,3.23c-0.58,0.34-0.94,1.03-1.41,1.57
		c0.73,0.25,1.47,0.74,2.18,0.69c0.94-0.06,1.87-0.49,2.77-0.84c2.86-1.09,5.71-2.22,8.56-3.33c1.8-0.7,3.5-0.89,5.23,0.35
		c0.88,0.63,0.91,1.02,0.2,1.68C892.05,308.72,891.43,309.31,890.81,309.89z M534.95,196.64c0.05-0.22,0.09-0.44,0.14-0.66
		c-1.12-0.5-2.2-1.11-3.37-1.47c-6.29-1.9-12.86-2.67-18.99-5.37c-4.03-1.78-8.54-2.45-12.82-3.66c-2.61-0.74-5.21-1.54-7.81-2.31
		c-2.6-0.77-5.19-1.58-7.8-2.32c-3.98-1.13-7.98-2.18-11.94-3.34c-1.28-0.38-2.5-0.98-3.72-1.55c-0.7-0.33-1.29-0.94-2.01-1.16
		c-4.93-1.54-9.88-3.01-14.83-4.5c-2.65-0.79-5.3-1.57-7.95-2.36c-0.2-0.06-0.4-0.15-0.56-0.27c-3.35-2.52-7.45-3.3-11.22-4.85
		c-3.59-1.47-7.27-2.73-10.92-4.08c-3.55-1.31-7.11-2.61-10.66-3.91c-0.34-0.13-0.71-0.2-1.04-0.35c-3.43-1.55-6.83-3.16-10.28-4.66
		c-2.84-1.23-5.77-2.27-8.61-3.51c-2.21-0.96-4.43-1.97-6.52-3.17c-3.16-1.81-6.17-3.89-9.32-5.71c-4-2.31-8.16-4.35-12.1-6.75
		c-4.4-2.67-8.72-5.5-12.92-8.47c-2.74-1.94-5.29-4.18-7.78-6.44c-2.22-2.02-4.22-4.26-6.35-6.38c-0.54-0.54-1.14-1.11-1.82-1.39
		c-0.92-0.39-1.47,0.03-1.1,1.07c0.26,0.73,0.58,1.47,1.04,2.09c2.94,3.94,5.88,7.89,8.92,11.76c1.01,1.28,2.23,2.44,3.49,3.48
		c3.72,3.08,7.68,5.89,11.23,9.16c5.4,4.96,11.86,8.08,18.23,11.43c3,1.58,5.98,3.17,8.98,4.74c3.05,1.6,6.09,3.23,9.18,4.74
		c2.5,1.21,5.07,2.28,7.63,3.36c2.42,1.03,4.84,2.07,7.3,2.99c1.85,0.7,3.73,1.39,5.66,1.79c3.97,0.81,7.46,2.86,11.24,4.11
		c4.06,1.34,8.15,2.6,12.24,3.84c3.2,0.97,6.42,1.86,9.63,2.79c0.2,0.06,0.4,0.13,0.59,0.2c3.1,1.18,6.16,2.47,9.3,3.51
		c3.22,1.07,6.52,1.9,9.78,2.84c0.15,0.04,0.3,0.1,0.45,0.15c3.6,1.3,7.15,2.74,10.8,3.87c2.96,0.92,6.02,1.53,9.06,2.19
		c6.3,1.37,12.59,2.76,18.92,4c3.1,0.61,6.29,0.8,9.4,1.37c4.68,0.85,9.33,1.93,14.01,2.79
		C531.44,196.61,533.21,196.54,534.95,196.64z M323.52,132.32c0.82,1.66,1.41,3.15,2.25,4.5c2.15,3.47,4.29,6.94,6.65,10.27
		c1.89,2.66,3.98,5.2,6.18,7.62c2.76,3.05,5.51,6.17,8.64,8.8c3.28,2.76,7,4.99,10.55,7.43c0.84,0.58,1.74,1.08,2.64,1.56
		c3.62,1.92,7.27,3.79,10.87,5.75c1.9,1.03,3.64,2.38,5.59,3.3c3.39,1.59,6.85,3.05,10.34,4.39c3.97,1.52,8.02,2.85,12.04,4.26
		c1.37,0.48,2.76,0.9,4.1,1.46c1.28,0.53,2.45,1.36,3.76,1.78c3.19,1.02,6.39,2.02,9.65,2.77c10.24,2.35,20.51,4.59,30.76,6.87
		c0.51,0.11,1.02,0.25,1.54,0.3c3.19,0.33,6.4,0.46,9.55,0.99c4.49,0.75,8.93,1.81,13.41,2.67c6.21,1.2,12.44,2.3,18.65,3.52
		c2.28,0.45,4.36-0.01,6.57-1.06c-0.75-0.58-1.57-0.99-2.44-1.24c-3.67-1.07-7.34-2.13-11.04-3.09c-1.25-0.32-2.6-0.21-3.86-0.5
		c-9.85-2.3-19.69-4.59-29.51-7c-9.54-2.34-19.05-4.81-28.56-7.28c-1.35-0.35-2.64-0.94-3.93-1.48c-2.29-0.95-4.52-2.03-6.83-2.9
		c-2.87-1.09-5.8-2-8.68-3.05c-1.26-0.46-2.46-1.07-3.69-1.62c-2.59-1.14-5.18-2.28-7.77-3.43c-2.08-0.92-4.16-1.85-6.23-2.78
		c-2.39-1.07-4.79-2.15-7.18-3.23c-1.03-0.47-2.08-0.91-3.06-1.47c-1.95-1.11-3.89-2.24-5.79-3.43c-4-2.5-8.03-4.96-11.94-7.6
		c-2.88-1.94-5.65-4.05-8.37-6.22c-2.55-2.02-5.03-4.14-7.42-6.34c-4.35-4.03-8.6-8.16-12.92-12.23
		C326.91,133.51,326.11,131.79,323.52,132.32z M524.93,120.7c0.05-0.13,0.09-0.25,0.14-0.38c-0.46-0.32-0.9-0.67-1.38-0.94
		c-2.08-1.15-4.17-2.3-6.28-3.41c-2.74-1.45-5.48-2.9-8.25-4.28c-2.02-1.01-4.09-1.93-6.15-2.87c-1.22-0.55-2.55-0.91-3.65-1.63
		c-3.38-2.21-7.19-3.36-10.95-4.65c-2.98-1.02-6.11-1.67-8.76-3.51c-0.34-0.23-0.64-0.54-1.02-0.68c-2.89-1.03-5.75-2.15-8.7-2.99
		c-5.75-1.63-11.55-3.07-17.32-4.63c-0.79-0.21-1.53-0.6-2.29-0.92c-3.56-1.5-7.03-3.27-10.7-4.45c-5.08-1.63-10.27-2.96-15.47-4.18
		c-7.82-1.83-15.68-3.47-23.53-5.15c-4.81-1.03-9.64-1.99-14.46-2.96c-0.64-0.13-1.33-0.15-1.99-0.12c-1.7,0.07-3.39,0.27-5.09,0.27
		c-2.77,0-5.54-0.06-8.31-0.19c-2.99-0.14-5.97-0.45-8.96-0.58c-1.7-0.08-3.45-0.14-5.11,0.14c-2.27,0.38-4.46,1.26-6.73,1.64
		c-4.59,0.77-9.24,1.21-13.82,2.04c-2.26,0.41-4.45,1.26-6.59,2.13c-0.65,0.26-1,1.26-1.49,1.92c0.7,0.21,1.4,0.56,2.11,0.6
		c0.9,0.05,1.84-0.06,2.73-0.24c3.77-0.76,7.49-1.75,11.29-2.33c4.97-0.75,9.98-1.38,14.99-1.69c3.77-0.24,7.58,0.12,11.37,0.17
		c2.62,0.04,5.25-0.11,7.85,0.06c3.56,0.24,7.12,0.6,10.65,1.12c3.36,0.49,6.68,1.24,10.02,1.86c4.34,0.81,8.52,2.13,13.05,2.37
		c4.39,0.23,8.72,1.84,13.06,2.92c3.88,0.97,7.79,1.72,11.46,3.56c2.62,1.31,5.66,1.77,8.52,2.6c2.96,0.86,5.92,1.69,8.87,2.57
		c4.95,1.48,9.89,2.98,14.83,4.48c0.29,0.09,0.55,0.28,0.84,0.39c2.23,0.93,4.44,1.92,6.7,2.77c2.72,1.03,5.61,1.69,8.18,2.99
		c2.6,1.31,5.2,2.46,8,3.26c2.73,0.79,5.38,1.87,8.06,2.83c0.23,0.08,0.42,0.3,0.64,0.43c2.72,1.66,5.58,2.95,8.71,3.67
		c1.72,0.4,3.42,1.02,5.04,1.74c1.84,0.81,3.55,1.93,5.39,2.74C521.87,119.84,523.42,120.21,524.93,120.7z M934.31,321.97
		c1.39-0.39,1.65-1.23,0.72-1.89c-1.37-0.98-2.8-2.02-4.37-2.53c-2.79-0.9-5.69-1.47-8.57-2.05c-0.55-0.11-1.21,0.32-1.82,0.5
		c0.24,0.64,0.29,1.56,0.75,1.88c1.17,0.8,2.47,1.54,3.83,1.93c2.72,0.8,5.5,1.36,8.27,2C933.61,321.91,934.13,321.94,934.31,321.97
		z M395.75,47.85c-0.16-3.23-1.7-4.75-3.88-4.2c-1.52,0.38-3,0.91-4.46,1.49c-0.54,0.22-1.04,0.71-1.37,1.2
		c-0.21,0.31-0.23,0.95-0.05,1.25c0.2,0.32,0.86,0.67,1.13,0.56c0.98-0.4,2.03-0.83,2.77-1.55c1.36-1.33,2.58-1,4.05-0.03
		C394.47,46.92,394.97,47.29,395.75,47.85z M812.21,281.95c1.65-0.82,3.04-1.35,4.22-2.18c0.55-0.39,0.7-1.35,1.03-2.05
		c-0.85-0.18-1.83-0.73-2.51-0.47c-1.36,0.52-2.63,1.39-3.76,2.32c-0.46,0.38-0.46,1.31-0.66,1.99
		C811.16,281.7,811.79,281.85,812.21,281.95z M924.18,325.88c0.12-0.13,0.83-0.54,0.84-0.98c0.02-0.48-0.51-1.24-0.97-1.41
		c-1.21-0.47-2.51-0.75-3.8-0.95c-0.38-0.06-1.08,0.32-1.21,0.66c-0.16,0.43-0.08,1.22,0.22,1.52
		C920.49,325.93,921.96,326.65,924.18,325.88z M817.15,287.99c1.33,0.93,2.74,1.14,4.01,0.03c0.74-0.65,1.26-1.73,0.54-2.62
		c-0.41-0.52-1.36-0.82-2.07-0.83C818.37,284.54,817.44,285.96,817.15,287.99z M780.74,270.39c-1.66,0.27-1.83,1.45-1.67,2.47
		c0.07,0.39,1.26,0.95,1.83,0.84c1.22-0.23,1.76-1.33,1.59-2.49C782.33,270.11,781.41,270.16,780.74,270.39z M788.61,276.41
		c0.51-1.21,1.1-2.01,1.11-2.82c0.01-0.74-0.74-1.15-1.64-0.83c-1.09,0.4-1.96,1.56-1.48,2.34
		C786.89,275.58,787.63,275.8,788.61,276.41z M821.61,289.77c-0.55,0.95-0.89,1.55-1.24,2.15c0.53,0.21,1.13,0.68,1.56,0.56
		c0.53-0.15,0.92-0.81,1.37-1.24C822.85,290.84,822.4,290.45,821.61,289.77z M826.84,288.93c1.32,0.73,2.19,0.36,2.61-0.82
		c0.07-0.2-0.71-0.96-1.15-1.03C826.96,286.9,826.89,287.91,826.84,288.93z M731.78,229.27c-0.99-0.16-1.67-0.4-2.31-0.31
		c-0.27,0.04-0.46,0.74-0.69,1.15c0.67,0.27,1.33,0.67,2.02,0.75C731.02,230.88,731.34,230.03,731.78,229.27z M828.44,292.76
		c0.12,0.21,0.23,0.43,0.35,0.64c0.61-0.14,1.27-0.19,1.82-0.45c0.18-0.09,0.27-0.77,0.13-1.04c-0.14-0.26-0.77-0.57-0.93-0.46
		C829.3,291.78,828.89,292.3,828.44,292.76z M912.32,321.95c0.85,0.53,1.69,0.67,2.25-0.32c0.11-0.19-0.29-0.94-0.57-1.01
		C913.1,320.39,912.32,320.59,912.32,321.95z M962.06,320.57c0.25,0.04,0.49,0.09,0.74,0.13c0.05-0.46,0.28-1,0.11-1.35
		c-0.14-0.28-0.78-0.45-1.16-0.4c-0.21,0.03-0.5,0.64-0.46,0.94C961.32,320.15,961.79,320.34,962.06,320.57z"/>
</g>
</svg>
