<?xml version="1.0" encoding="utf-8"?>
<!-- Generator: Adobe Illustrator 23.1.1, SVG Export Plug-In . SVG Version: 6.00 Build 0)  -->
<svg version="1.1" id="Layer_1" xmlns="http://www.w3.org/2000/svg" xmlns:xlink="http://www.w3.org/1999/xlink" x="0px" y="0px"
	 viewBox="0 0 1080 592.94" style="enable-background:new 0 0 1080 592.94;" xml:space="preserve">
<style type="text/css">
	.st0{fill:#F4BECF;}
</style>
<path class="st0" d="M120.85,88.13c7.95-1.46,16.08-2.94,24.21-4.46c3.03-0.57,6.02-1.37,9.07-1.8c4.77-0.68,9.55-1.25,14.35-1.68
	c8.3-0.75,16.61-1.49,24.94-1.97c4.08-0.23,8.2,0.2,12.31,0.2c1.94,0,3.89-0.5,5.83-0.45c2.91,0.07,5.84,0.23,8.7,0.69
	c4.78,0.76,9.52,1.81,14.29,2.68c3.17,0.58,6.4,0.87,9.52,1.64c13.17,3.26,26.31,6.62,39.45,10.02c4.26,1.1,8.56,2.18,12.66,3.73
	c4.05,1.53,7.88,3.65,11.8,5.52c1.57,0.75,3.05,1.78,4.7,2.21c4.3,1.12,7.94,3.49,11.73,5.63c2.38,1.34,4.96,2.32,7.38,3.58
	c2.23,1.16,4.4,2.46,6.57,3.74c4.82,2.84,9.64,5.67,14.41,8.6c1.97,1.21,3.74,2.76,5.71,3.98c7.67,4.74,15.41,9.37,23.08,14.12
	c5.2,3.22,10.32,6.58,15.49,9.86c7.45,4.73,14.98,9.35,22.35,14.21c4.42,2.92,8.6,6.21,12.9,9.32c4.72,3.42,9.4,6.91,14.21,10.21
	c7.08,4.86,14.32,9.49,21.37,14.38c7.5,5.19,14.92,10.51,22.26,15.91c5.43,3.99,10.74,8.16,16.03,12.35
	c5.53,4.38,10.9,8.94,16.45,13.29c6.49,5.08,13.05,10.09,19.68,14.99c8.64,6.39,17.41,12.58,26.06,18.96
	c6.81,5.02,13.49,10.21,20.26,15.29c4.82,3.61,9.56,7.34,14.55,10.7c4.51,3.03,9.32,5.63,14.01,8.41c2.71,1.61,5.39,3.31,8.17,4.8
	c4.51,2.41,9.09,4.66,13.63,7c2.93,1.51,5.82,3.08,8.75,4.59c0.51,0.26,1.12,0.37,1.69,0.5c5.32,1.28,10.59,2.88,15.98,3.73
	c5.88,0.93,11.42,2.82,16.96,4.79c4.67,1.66,9.47,3.12,13.84,5.37c5.41,2.78,11.11,4.59,16.8,6.56c2.04,0.71,3.92,1.87,5.89,2.79
	c1.83,0.86,3.66,1.74,5.54,2.49c4.31,1.73,8.66,3.37,12.98,5.09c5.38,2.14,10.79,4.21,16.1,6.5c4.84,2.08,9.55,4.47,14.37,6.59
	c2.13,0.94,4.44,1.45,6.61,2.33c2.81,1.14,5.55,2.46,8.32,3.69c0.6,0.26,1.22,0.47,1.84,0.68c5.86,2.04,11.72,4.06,17.57,6.11
	c3.84,1.35,7.71,2.64,11.49,4.13c4.58,1.8,9.08,3.81,13.63,5.69c2.94,1.22,5.9,2.4,8.87,3.58c4.05,1.6,8.12,3.18,12.18,4.77
	c0.34,0.13,0.7,0.22,1.05,0.33c3.87,1.15,7.79,2.14,11.59,3.48c3.34,1.18,6.54,2.76,9.8,4.15c0.34,0.14,0.7,0.23,1.05,0.34
	c5.99,1.81,12.01,3.49,17.49,6.71c1.92,1.12,4.23,1.57,6.38,2.28c5,1.65,10.06,3.11,14.98,4.96c4.4,1.65,8.62,3.78,12.97,5.59
	c2.09,0.87,4.31,1.41,6.41,2.25c4.91,1.98,9.77,4.09,14.68,6.06c2.23,0.89,4.54,1.62,6.85,2.32c4.14,1.25,8.32,2.4,12.46,3.66
	c0.82,0.25,1.58,0.75,2.33,1.2c4.34,2.65,9.17,3.98,14.02,5.32c3.89,1.07,7.69,2.48,11.62,3.32c2.26,0.49,4.73,0.41,7.05,0.14
	c2.93-0.33,5.25,0.92,5.83,3.82c0.43,2.2,0.61,4.26-0.67,6.51c-1.13,1.98-1.1,4.58-1.87,6.81c-1.06,3.08-2.39,6.06-3.62,9.08
	c-0.33,0.8-0.79,1.56-1.03,2.38c-1.38,4.72-2.62,9.49-4.08,14.19c-1.26,4.04-2.68,8.03-4.17,11.99c-0.88,2.34-2.52,4.19-5.15,4.35
	c-2.58,0.16-4.56-1.44-6.06-3.32c-3.16-3.98-6.95-6.78-11.99-7.99c-4.71-1.13-9.33-2.62-13.98-3.97c-3.52-1.02-7.16-1.77-10.5-3.2
	c-5.53-2.38-11.9-2.57-16.84-6.48c-0.48-0.38-1.27-0.35-1.91-0.53c-4.52-1.29-9.04-2.56-13.54-3.9c-2.8-0.83-5.59-1.72-8.36-2.67
	c-0.95-0.32-1.99-0.7-2.7-1.37c-1.93-1.84-4.39-2.19-6.8-2.84c-4.46-1.21-8.91-2.49-13.33-3.84c-5.46-1.67-10.9-3.38-16.31-5.21
	c-1.48-0.5-2.74-1.63-4.21-2.23c-3.3-1.33-6.68-2.48-10-3.76c-6.56-2.51-13.65-3.62-19.59-7.78c-1.62-1.13-3.77-1.54-5.71-2.17
	c-3.35-1.07-6.76-1.95-10.08-3.11c-2.52-0.88-4.93-2.1-7.4-3.13c-2.41-1.01-4.79-2.1-7.26-2.93c-5.4-1.82-10.92-3.33-16.27-5.28
	c-4.7-1.72-9.22-3.92-13.85-5.82c-2.09-0.85-4.26-1.53-6.42-2.19c-3.71-1.15-7.49-2.09-11.16-3.37c-4.03-1.41-7.96-3.11-11.94-4.66
	c-1.97-0.77-3.95-1.53-5.96-2.18c-3.2-1.04-6.49-1.84-9.64-3.01c-4.99-1.84-10.27-2.74-15.03-5.35c-3.16-1.73-6.8-2.56-10.18-3.91
	c-4.03-1.62-8.02-3.37-12.01-5.07c-1.73-0.74-3.45-1.5-5.16-2.28c-5-2.26-9.97-4.58-14.99-6.8c-3.63-1.61-7.46-2.84-10.93-4.73
	c-4.85-2.64-10.04-4.96-12.84-10.29c-1.29-2.45-3.87-3.23-6.28-4.05c-5.12-1.73-10.48-2.92-15.37-5.16
	c-3.64-1.67-7.33-2.82-11.15-3.83c-4.04-1.06-8-2.43-12.05-3.47c-14.76-3.79-29.52-7.58-44.32-11.18
	c-6.93-1.68-13.95-2.95-20.95-4.36c-4.61-0.93-9.21-1.92-13.86-2.59c-3.8-0.55-7.66-0.63-11.49-0.98c-2.32-0.22-4.64-0.54-6.95-0.87
	c-2.82-0.4-5.61-0.97-8.44-1.27c-3.53-0.38-7.08-0.54-10.62-0.81c-1.89-0.14-3.8-0.19-5.67-0.47c-6.07-0.94-12.12-2.08-18.2-2.94
	c-5.04-0.71-10.12-1.05-15.17-1.69c-4.85-0.62-9.66-1.52-14.51-2.09c-3.72-0.44-7.49-0.48-11.23-0.83c-2.61-0.25-5.2-0.76-7.81-1.08
	c-5.27-0.64-10.55-1.22-15.82-1.86c-4.11-0.49-8.21-1.07-12.32-1.53c-4.63-0.52-9.28-0.94-13.92-1.42
	c-0.51-0.05-1.02-0.19-1.53-0.28c-5.08-0.98-10.14-1.97-15.38-1.83c-2.67,0.07-5.36-0.68-8.04-1.11
	c-6.02-0.95-12.03-1.96-18.16-1.76c-0.22,0.01-0.44-0.04-0.66-0.08c-4.9-0.94-9.8-1.91-14.71-2.82c-7.49-1.38-14.99-2.71-22.49-4.05
	c-3.6-0.65-7.25-1.11-10.8-1.95c-8.51-2.01-17.3-2.28-25.78-4.65c-10.17-2.85-20.59-4.83-30.81-7.53c-4.53-1.2-8.83-3.26-13.24-4.92
	c-0.62-0.23-1.27-0.37-1.9-0.57c-5.86-1.84-11.81-3.44-17.55-5.61c-3.95-1.49-7.57-3.82-11.38-5.69c-3.94-1.94-7.97-3.69-11.89-5.68
	c-4.36-2.21-8.67-4.5-12.92-6.91c-4.36-2.48-8.72-4.99-12.89-7.78c-4.28-2.86-8.42-5.96-12.45-9.17c-2.94-2.33-5.76-4.86-8.35-7.56
	c-3.16-3.3-6.23-6.72-9-10.35c-6.8-8.93-12.17-18.75-17.32-28.7c-2.71-5.23-5.69-10.33-8.34-15.59c-1.07-2.12-1.84-4.45-2.31-6.78
	c-1.12-5.48-2.08-10.98-2.33-16.63c-0.18-4.14-0.1-8.17,0.29-12.28c0.31-3.28-0.23-6.63-0.4-9.96c-0.02-0.43-0.16-0.88-0.09-1.29
	c0.59-3.54,0.84-7.2,1.93-10.59c1.6-4.97,2.6-10.17,6.42-14.36c3.12-3.42,5.04-7.91,8.01-11.5c5.35-6.45,11.53-12.09,19.03-16.03
	C113.58,91.34,117.12,89.86,120.85,88.13z M119.38,136.48c0.02,0.2,0.04,0.41,0.06,0.61c-1.76,0.54-3.57,0.96-5.25,1.67
	c-0.78,0.33-1.86,1.29-1.82,1.9c0.06,0.8,0.93,1.85,1.72,2.24c3.19,1.56,6.43,3.05,9.74,4.32c5.37,2.06,10.81,3.94,16.23,5.87
	c2.48,0.88,5.06,1.52,7.47,2.56c4.85,2.09,9.5,4.68,14.44,6.5c5.12,1.88,10.41,3.22,15.37,5.64c4.3,2.1,8.92,3.56,13.42,5.25
	c5.1,1.91,10.2,3.85,15.35,5.62c5.19,1.79,10.44,3.37,15.65,5.08c2.08,0.68,4.27,1.18,6.15,2.23c4.18,2.33,8.69,3.7,13.24,4.99
	c0.57,0.16,1.14,0.31,1.69,0.51c4.56,1.7,9.11,3.45,13.69,5.11c1.45,0.53,3.03,0.71,4.47,1.26c3.65,1.4,7.25,2.95,10.89,4.38
	c2.04,0.8,4.17,1.37,6.17,2.24c5.09,2.21,10.12,4.59,15.21,6.79c4.91,2.12,9.81,4.31,14.84,6.12c5.57,2.01,11.29,3.61,16.94,5.41
	c2.37,0.76,4.73,1.53,7.06,2.38c1.36,0.5,2.65,1.16,3.97,1.75c2.76,1.25,5.46,2.64,8.29,3.71c4.23,1.6,8.56,2.94,12.83,4.43
	c1.58,0.55,3.11,1.22,4.66,1.84c3.77,1.51,7.53,3.04,11.3,4.55c2.49,1,5.02,1.93,7.48,3c3.18,1.39,6.27,2.99,9.48,4.3
	c2.43,0.99,5,1.62,7.47,2.53c2.11,0.77,4.32,1.45,6.19,2.64c4.98,3.17,10.63,4.57,16.07,6.52c3.31,1.19,6.72,2.07,10.08,3.11
	c0.34,0.1,0.61,0.39,0.94,0.53c4.05,1.74,8.04,3.64,12.17,5.15c3.71,1.36,7.57,2.28,11.36,3.42c0.41,0.12,0.75,0.44,1.13,0.64
	c2.99,1.47,5.92,3.08,8.99,4.36c2.55,1.07,5.3,1.68,7.91,2.62c2.38,0.86,4.71,1.89,7.05,2.88c3.53,1.5,7.04,3.06,10.58,4.55
	c1.54,0.65,3.15,1.15,4.7,1.79c2.07,0.85,4.24,1.58,6.15,2.71c3.84,2.27,7.79,4.08,12.19,5.03c2.36,0.51,4.48,2.09,6.82,2.79
	c3.32,1,6.76,1.64,10.14,2.46c0.64,0.15,1.32,0.32,1.84,0.68c5.29,3.66,11.41,5.3,17.43,7.18c0.7,0.22,1.46,0.31,2.12,0.62
	c5.98,2.86,12.09,5.3,18.53,6.98c5.37,1.41,10.59,3.35,15.88,5.06c0.07,0.02,0.13,0.07,0.2,0.1c4.17,1.84,8.27,3.86,12.53,5.46
	c4.92,1.85,9.99,3.33,14.99,4.97c0.35,0.11,0.7,0.23,1.03,0.37c4.47,1.89,8.92,3.8,13.39,5.67c1.81,0.76,3.65,1.48,5.48,2.18
	c2.63,1.01,5.23,2.1,7.92,2.91c0.65,0.19,2.11-0.44,2.27-0.96c0.21-0.72-0.22-2.09-0.83-2.49c-1.68-1.09-3.58-1.85-5.43-2.68
	c-1.92-0.85-3.91-1.54-5.8-2.45c-4.62-2.23-9.19-4.56-13.79-6.81c-4.27-2.09-8.56-4.13-12.84-6.21c-2.8-1.36-5.57-2.77-8.37-4.1
	c-2.41-1.14-4.92-2.1-7.29-3.33c-4.02-2.09-7.94-4.38-11.95-6.5c-4.94-2.61-9.99-5.03-14.88-7.73c-6.48-3.58-12.85-7.36-19.27-11.06
	c-4.54-2.62-9.15-5.13-13.61-7.87c-5.74-3.53-11.37-7.24-17.04-10.87c-2.43-1.56-4.79-3.21-7.27-4.67
	c-5.13-3.04-10.34-5.95-15.49-8.97c-2.35-1.38-4.58-2.94-6.91-4.36c-5.94-3.62-11.89-7.24-17.88-10.78
	c-3.91-2.31-7.9-4.49-11.85-6.72c-0.76-0.43-1.53-0.82-2.3-1.22c-4.29-2.24-8.59-4.46-12.86-6.72c-3.26-1.73-6.47-3.57-9.76-5.24
	c-3.61-1.83-7.32-3.44-10.91-5.29c-2.54-1.31-4.89-2.97-7.41-4.31c-4.33-2.31-8.72-4.51-13.1-6.72c-3.87-1.95-7.74-3.89-11.64-5.78
	c-2.71-1.32-5.46-2.57-8.21-3.83c-3.29-1.5-6.56-3.05-9.9-4.42c-3.36-1.38-6.81-2.52-10.18-3.86c-3.56-1.41-7.08-2.93-10.62-4.4
	c-2.21-0.92-4.47-1.77-6.63-2.79c-2.53-1.2-4.88-2.84-7.49-3.79c-5.15-1.88-10.46-3.3-15.63-5.12c-4.17-1.47-8.19-3.4-12.37-4.85
	c-5.46-1.9-11-3.55-16.51-5.27c-3.64-1.13-7.3-2.19-10.95-3.29c-0.28-0.08-0.53-0.25-0.81-0.36c-3.92-1.53-7.75-3.41-11.8-4.49
	c-3.48-0.93-7.29-0.58-10.81-1.42c-10.75-2.58-21.41-5.52-32.13-8.19c-2.97-0.74-6.1-0.87-9.08-1.59
	c-12.94-3.1-25.86-6.11-39.16-7.45c-5.13-0.52-10.2-1.62-15.41-1.54c-2.89,0.04-5.78-0.2-8.67-0.15c-3.23,0.05-6.47,0.16-9.69,0.45
	C132.57,135.06,125.98,135.8,119.38,136.48z M103.29,152.59c1.35,1.89,3.15,4.84,5.38,7.43c4.83,5.61,9.7,11.2,14.88,16.48
	c4.19,4.27,8.65,8.33,13.35,12.04c4.28,3.38,9.04,6.17,13.59,9.21c4.18,2.79,8.32,5.66,12.57,8.34c1.93,1.22,4.11,2.06,6.15,3.11
	c3.38,1.75,6.71,3.58,10.11,5.28c2,1,4.19,1.62,6.11,2.73c3.77,2.19,7.4,4.57,11.77,5.56c2.01,0.46,3.87,1.6,5.79,2.44
	c4.7,2.05,9.37,4.17,14.11,6.13c4.35,1.81,8.77,3.45,13.15,5.19c3.91,1.55,7.8,3.18,11.73,4.69c3.67,1.41,7.39,2.69,11.08,4.05
	c4.71,1.74,9.38,3.62,14.14,5.22c4.1,1.38,8.3,2.45,12.45,3.67c0.35,0.1,0.67,0.3,1.01,0.44c4.59,1.9,9.15,3.88,13.78,5.66
	c1.92,0.74,4.06,0.87,5.99,1.58c3.73,1.38,7.33,3.13,11.09,4.44c3.87,1.35,7.86,2.39,11.81,3.49c6.23,1.74,12.49,3.41,18.72,5.15
	c3.95,1.11,7.88,2.33,11.83,3.44c6.38,1.78,12.73,3.66,19.17,5.19c6.8,1.61,13.73,2.65,20.52,4.3c18.07,4.4,36.13,8.82,54.12,13.56
	c10.78,2.84,21.98,4,32.29,8.78c4.41,2.04,9.39,2.89,14.15,4.12c1.96,0.51,4.09,0.37,6.06,0.88c5.55,1.43,11.04,3.08,16.58,4.55
	c8.89,2.37,17.81,4.65,26.71,7.02c5.68,1.51,11.33,3.12,16.99,4.7c5.56,1.55,11.26,2.4,16.58,5.08c4.63,2.33,9.86,3.54,14.9,5
	c6.85,1.99,13.76,3.79,20.66,5.57c4.51,1.17,9.07,2.15,13.59,3.27c0.9,0.22,1.69,0.88,2.59,1.08c3.07,0.7,6.16,1.34,9.26,1.88
	c0.47,0.08,1.04-0.49,1.57-0.77c-0.33-0.44-0.55-1.08-0.99-1.3c-1.88-0.94-3.77-1.93-5.76-2.58c-3.9-1.28-7.86-2.34-11.8-3.5
	c-0.28-0.08-0.56-0.19-0.82-0.32c-3.25-1.6-6.39-3.51-9.78-4.74c-5.77-2.09-11.71-3.74-17.57-5.6c-1.03-0.33-2.07-0.7-2.99-1.25
	c-3.58-2.12-7.29-3.86-11.36-4.83c-1.55-0.37-3.01-1.11-4.51-1.67c-1.98-0.74-3.97-1.46-5.94-2.22c-4.07-1.57-8.12-3.21-12.21-4.72
	c-2.61-0.96-5.32-1.63-7.92-2.63c-5.28-2.04-10.49-4.24-15.76-6.31c-5.95-2.34-11.91-4.66-17.89-6.88
	c-5.51-2.05-11.07-3.96-16.6-5.96c-1.92-0.69-3.82-1.43-5.71-2.2c-3.28-1.35-6.53-2.77-9.81-4.1c-1.89-0.76-3.88-1.3-5.74-2.12
	c-3.76-1.67-7.39-3.64-11.2-5.16c-5.42-2.15-10.95-4-16.44-5.96c-2.2-0.79-4.44-1.47-6.6-2.34c-3.29-1.33-6.46-2.96-9.8-4.14
	c-5.24-1.85-10.57-3.41-15.86-5.13c-1.94-0.63-3.98-1.14-5.73-2.13c-5.84-3.32-12.44-4.52-18.6-6.94c-1.76-0.69-3.56-1.31-5.33-1.99
	c-4.27-1.64-8.52-3.35-12.81-4.94c-2.54-0.94-5.18-1.59-7.69-2.59c-4.58-1.84-9.03-3.98-13.63-5.75c-4.43-1.69-9-3.01-13.47-4.6
	c-2.25-0.8-4.43-1.85-6.63-2.79c-2.39-1.02-4.73-2.17-7.18-3.06c-2.89-1.05-5.88-1.79-8.78-2.81c-2.05-0.72-4.03-1.67-6.03-2.54
	c-3.59-1.56-7.12-3.27-10.77-4.67c-3-1.15-6.16-1.87-9.2-2.94c-2.74-0.96-5.47-2.02-8.1-3.24c-2.01-0.93-3.74-2.57-5.8-3.23
	c-7.47-2.41-15.03-4.53-22.54-6.78c-0.76-0.23-1.51-0.54-2.2-0.93c-4.15-2.31-8.55-4-13.11-5.33c-3.45-1-6.87-2.06-10.3-3.12
	c-0.4-0.12-0.75-0.43-1.1-0.68c-4.57-3.28-10.05-4.44-15.17-6.4c-3.83-1.46-7.86-2.37-11.79-3.54c-0.28-0.08-0.57-0.17-0.81-0.34
	c-5.58-3.93-12.22-5.25-18.47-7.52c-3.91-1.42-7.87-2.7-11.75-4.18c-1.54-0.59-2.91-1.62-4.43-2.3c-2.7-1.22-5.51-2.23-8.18-3.51
	c-2.77-1.33-5.34-3.13-8.18-4.27c-4.33-1.73-8.82-3.05-13.23-4.56c-0.62-0.21-1.21-0.5-1.81-0.76c-3-1.26-5.98-2.58-9.01-3.77
	c-2.24-0.88-4.56-1.57-6.84-2.35c-3.93-1.35-7.82-2.83-11.79-4.03C103.67,147.62,102.35,149.11,103.29,152.59z M128.76,98.65
	c-3.03,1.56-6.67,3.07-9.9,5.19c-5.12,3.35-10.14,6.89-14.87,10.75c-3.18,2.6-5.84,5.86-8.57,8.96c-0.44,0.5-0.31,1.91,0.09,2.58
	c0.27,0.47,1.5,0.63,2.23,0.51c1.05-0.18,2.02-0.75,3.03-1.14c4.21-1.66,8.29-3.9,12.65-4.86c8.17-1.81,16.49-3.01,24.78-4.2
	c3.12-0.45,6.35-0.17,9.54-0.19c3.95-0.02,7.91-0.04,11.86-0.01c1.79,0.01,3.59,0.15,5.38,0.15c2.87,0,5.75-0.2,8.62-0.09
	c4.98,0.19,9.94,0.74,14.92,0.78c5.35,0.05,10.62,0.46,15.8,1.86c0.85,0.23,1.73,0.38,2.6,0.47c4.31,0.44,8.67,0.6,12.94,1.32
	c4.16,0.71,8.08,2.15,12.02,3.91c4.91,2.2,10.39,3.1,15.62,4.58c4.37,1.24,8.75,2.48,13.1,3.78c2.59,0.77,5.16,1.61,7.7,2.53
	c4.64,1.69,9.19,3.67,13.89,5.16c5.74,1.82,11.61,3.22,17.41,4.86c3.81,1.08,7.6,2.25,11.39,3.38c0.14,0.04,0.28,0.1,0.41,0.16
	c5.32,2.32,10.49,4.94,16.16,6.49c3.32,0.91,6.43,2.64,9.58,4.13c2.34,1.11,4.52,2.54,6.87,3.62c2.76,1.28,5.69,2.21,8.44,3.51
	c4.96,2.35,9.85,4.82,14.74,7.31c4.5,2.29,8.97,4.61,13.41,7.01c2.73,1.47,5.33,3.21,8.07,4.65c5.81,3.04,11.78,5.81,17.51,8.99
	c4.52,2.51,8.76,5.51,13.18,8.21c5.56,3.4,11.28,6.54,16.72,10.12c4.58,3.01,8.78,6.58,13.28,9.72c4.03,2.81,8.27,5.3,12.34,8.05
	c5.88,3.96,11.68,8.04,17.54,12.04c11.39,7.79,22.76,15.63,34.22,23.32c4.8,3.22,9.8,6.16,14.76,9.15
	c6.52,3.93,12.84,8.18,19.63,11.7c6.16,3.19,11.96,7.09,17.92,10.67c3.1,1.86,6.21,3.7,9.31,5.56c0.55,0.33,1.06,0.72,1.63,1
	c2.79,1.36,5.62,2.66,8.4,4.03c3.29,1.62,6.53,3.35,9.84,4.93c2.02,0.97,4.16,1.68,6.18,2.64c3.7,1.75,7.35,3.61,11.02,5.42
	c1.49,0.74,2.96,1.54,4.49,2.2c2.79,1.2,5.61,2.36,8.45,3.44c0.41,0.15,1.01-0.21,1.52-0.33c-0.19-0.44-0.26-1.02-0.58-1.28
	c-1.67-1.37-3.32-2.8-5.15-3.94c-4.94-3.09-10.1-5.84-14.94-9.08c-7.57-5.07-14.98-10.38-22.39-15.67
	c-6.73-4.81-13.37-9.73-20.06-14.59c-2.96-2.15-6-4.19-8.9-6.4c-5.03-3.84-9.94-7.84-14.98-11.66c-4.53-3.43-9.17-6.7-13.75-10.05
	c-6.89-5.05-13.8-10.09-20.65-15.2c-9.43-7.02-18.83-14.1-28.24-21.16c-3.56-2.67-7.03-5.47-10.71-7.97
	c-4.83-3.28-9.87-6.25-14.73-9.48c-3.9-2.59-7.59-5.48-11.5-8.04c-4.37-2.86-8.92-5.45-13.33-8.25c-2.31-1.47-4.46-3.19-6.76-4.69
	c-1.68-1.1-3.55-1.91-5.19-3.04c-3.79-2.62-7.5-5.35-11.24-8.04c-0.29-0.21-0.57-0.45-0.88-0.64c-4.66-3-9.35-5.96-13.97-9.01
	c-3.12-2.06-6.05-4.45-9.25-6.36c-3.2-1.91-6.67-3.38-9.98-5.12c-2.81-1.47-5.52-3.11-8.35-4.55c-2.51-1.28-5.11-2.37-7.66-3.56
	c-1.18-0.55-2.32-1.19-3.5-1.75c-2.41-1.15-4.84-2.27-7.25-3.42c-3.04-1.45-6.05-2.97-9.1-4.39c-2.75-1.29-5.55-2.47-8.31-3.73
	c-5.53-2.53-10.82-5.68-16.89-6.88c-3.18-0.63-6.27-1.42-8.72-3.76c-0.39-0.37-1.04-0.48-1.59-0.66c-2.35-0.81-4.71-1.57-7.05-2.4
	c-5.49-1.93-10.94-4-16.48-5.78c-1.98-0.64-4.22-0.43-6.26-0.92c-10.51-2.55-21.06-4.82-31.79-6.26c-4.28-0.57-8.52-1.48-12.76-2.34
	c-4.43-0.9-8.76-1.89-13.38-2.03c-5.9-0.18-11.65-2.21-17.71-2.15c-5.35,0.05-10.74-1.18-16.05-0.86c-3.64,0.22-7.33,0.5-10.98,0.86
	c-5.87,0.58-11.69,1.73-17.51,2.74C141.8,96.18,135.56,97.39,128.76,98.65z M89.55,177.72c0.99,1.86,2.02,3.79,3.06,5.71
	c0.56,1.04,1.15,2.07,1.74,3.09c1.99,3.43,3.63,7.15,6.08,10.22c4.01,5.03,8.34,9.85,12.91,14.4c6.63,6.6,13.5,12.96,20.41,19.27
	c6.02,5.5,13.06,9.61,20.11,13.62c3.25,1.85,6.74,3.29,10.06,5.03c2.73,1.43,5.33,3.11,8.08,4.5c4.95,2.51,9.98,4.89,14.96,7.34
	c2.83,1.4,5.54,3.1,8.48,4.21c6.01,2.26,12.14,4.2,18.21,6.29c1.24,0.43,2.46,0.9,3.65,1.45c1.9,0.87,3.69,2.02,5.66,2.69
	c3.82,1.29,7.71,2.35,11.59,3.46c5.37,1.53,10.75,3.06,16.14,4.51c8.1,2.18,16.21,4.34,24.34,6.44c12.49,3.22,25,6.39,37.5,9.57
	c2.71,0.69,5.43,1.36,8.17,1.95c8.28,1.78,16.57,3.49,24.86,5.26c10.02,2.14,20.02,4.33,30.04,6.46c7.78,1.66,15.57,3.25,23.34,4.9
	c9.08,1.92,18.13,3.99,27.23,5.79c11.45,2.27,22.47,6.63,34.34,6.93c2.36,0.06,4.69,1.01,7.06,1.35c2.07,0.3,4.2,0.2,6.28,0.47
	c2.97,0.38,5.91,0.98,8.88,1.41c1.58,0.22,3.23,0.58,4.76,0.34c5.32-0.86,10.43,0.15,15.56,1.24c0.58,0.12,1.15,0.32,1.73,0.38
	c5.86,0.55,11.74,0.9,17.57,1.65c4.58,0.59,9.15,1.45,13.64,2.55c17.06,4.18,34.08,8.49,51.11,12.79
	c12.58,3.18,25.15,6.4,37.72,9.63c0.69,0.18,1.32,0.6,2.01,0.83c3.03,1.05,6.03,2.2,9.13,3c0.73,0.19,2.16-0.66,2.55-1.41
	c0.29-0.56-0.32-2.02-0.96-2.55c-0.98-0.8-2.3-1.27-3.54-1.63c-5.36-1.56-10.75-3.05-16.14-4.52c-7.03-1.92-14.08-3.74-21.08-5.72
	c-1.66-0.47-3.15-1.49-4.77-2.12c-3.79-1.48-7.58-2.97-11.44-4.25c-1.56-0.51-3.32-0.35-4.95-0.72c-1.26-0.29-2.4-1.08-3.66-1.37
	c-26.91-6.21-53.83-12.37-80.74-18.59c-1.83-0.42-3.53-1.43-5.37-1.86c-2.13-0.49-4.37-0.49-6.5-0.97
	c-6.28-1.41-12.52-2.95-18.78-4.42c-0.64-0.15-1.3-0.27-1.96-0.33c-3.91-0.33-7.88-0.36-11.73-1.03c-6.89-1.18-13.7-2.76-20.55-4.15
	c-5.47-1.11-10.97-2.13-16.44-3.26c-7.85-1.62-15.7-3.27-23.54-4.95c-2.96-0.63-5.87-1.59-8.86-2c-3.96-0.53-8.04-0.3-11.94-1.04
	c-9.55-1.82-19.07-3.82-28.53-6.09c-13.26-3.19-26.45-6.67-39.66-10.06c-1.33-0.34-2.62-0.87-3.88-1.43
	c-2.1-0.93-4.08-2.24-6.27-2.88c-6.7-1.97-13.48-3.67-20.22-5.53c-3.96-1.09-7.88-2.32-11.83-3.45c-5.01-1.43-10.05-2.8-15.05-4.25
	c-1.11-0.32-2.19-0.8-3.23-1.31c-1.69-0.82-3.26-1.91-5.01-2.57c-2.88-1.08-5.91-1.75-8.77-2.85c-3.5-1.34-6.91-2.91-10.33-4.45
	c-1.5-0.68-2.87-1.65-4.4-2.27c-3.3-1.33-6.9-2.12-9.95-3.87c-4.55-2.6-9.15-4.92-14.14-6.57c-2.5-0.83-4.83-2.21-7.21-3.4
	c-1.71-0.86-3.34-1.89-5.06-2.72c-2.92-1.42-5.93-2.65-8.8-4.14c-1.5-0.78-2.73-2.04-4.19-2.91c-4.76-2.83-9.89-5.15-14.29-8.45
	c-7.11-5.34-13.83-11.22-20.58-17.03c-7.78-6.68-13.91-14.83-19.72-23.19c-2.76-3.97-4.68-8.52-7.32-12.58
	c-3.56-5.47-5.54-11.63-8.25-17.47c-0.43-0.93-1.46-1.59-2.21-2.37c-0.81,0.84-2.24,1.64-2.32,2.54c-0.29,3.35-0.73,6.86-0.01,10.07
	C85.65,166.16,87.74,171.84,89.55,177.72z M891.38,455.61c0.14,0.22,0.27,0.44,0.41,0.66c0.91-0.18,1.88-0.22,2.72-0.57
	c1.58-0.65,2.87-0.22,3.52,1.17c1.13,2.38,3.02,2.6,5.14,2.09c2.24-0.55,3.26,0.74,4,2.41c0.84,1.88-0.76,2.58-1.93,3.43
	c-0.35,0.25-0.9,0.35-1.1,0.68c-0.49,0.81-0.84,1.71-1.24,2.58c0.84,0.3,1.71,0.91,2.5,0.82c1.27-0.15,2.49-0.76,3.73-1.17
	c1.16-0.39,2.34-0.7,3.46-1.18c1.42-0.61,1.71,0.24,2.07,1.3c0.23,0.69,0.8,1.87,1.05,1.83c1.11-0.18,2.36-0.5,3.15-1.22
	c0.47-0.42,0.51-1.84,0.18-2.54c-1.65-3.52-0.25-7.08,3.33-8.73c3.68-1.69,7.37-0.62,10.94-0.05c4.95,0.78,9.86,2.02,14.66,3.47
	c2.64,0.8,5.08,2.36,7.53,3.7c1.7,0.93,3.23,2.16,4.91,3.13c2.59,1.49,4.56,3.23,5.85,6.21c1.03,2.36,2.85,5.19,6.21,5.15
	c2.72-0.03,5.45-0.61,7.48-2.62c0.58-0.57,0.93-1.86,0.72-2.64c-0.89-3.19-3.24-4.81-6.42-5.52c-0.92-0.21-1.69-1.09-2.52-1.67
	c0.8-0.53,1.59-1.09,2.41-1.58c1.71-1.01,3.64-1.74,5.11-3.01c1.58-1.36,1.29-2.5-0.49-3.6c-0.54-0.34-1.23-0.47-1.87-0.63
	c-5.46-1.31-11-2.39-16.37-4c-2.93-0.87-6.11-2.09-8.25-4.12c-3.55-3.39-7.95-3.87-12.15-4.37c-4.98-0.59-9.51-1.97-13.99-4.04
	c-2.36-1.09-4.89-1.95-7.42-2.53c-3.78-0.87-7.66-1.33-11.47-2.1c-1.49-0.3-3.22-0.6-4.29-1.53c-4.47-3.92-9.84-5.43-15.46-6.52
	c-1.19-0.23-2.25-1.06-3.42-1.42c-7.15-2.18-14.33-4.28-21.47-6.48c-1.43-0.44-2.86-1.05-4.09-1.88c-1.49-1-2.95-1.91-4.77-1.48
	c-2.26,0.54-3.96-0.31-5.59-1.73c-0.69-0.6-1.5-1.2-2.36-1.47c-4.42-1.35-8.91-2.49-13.3-3.93c-1.33-0.43-2.68-1.37-3.57-2.45
	c-1.69-2.03-4.57-3.7-7.52-2.04c-0.7,0.4-1.43,0.95-2.18,1c-1.05,0.07-2.25-0.03-3.13-0.52c-0.41-0.23-0.45-1.62-0.22-2.36
	c0.5-1.67-0.35-2.61-1.6-3.14c-2.94-1.26-5.88-2.73-8.97-3.38c-4.79-1-8.23-3.55-10.87-7.49c-0.24-0.36-0.61-0.62-0.9-0.95
	c-0.94-1.03-1.76-0.5-2.36,0.32c-1.98,2.71-1.94,2.71-4.87,1.54c-0.82-0.33-1.73-0.4-2.58-0.65c-3.3-0.99-6.6-1.94-9.85-3.06
	c-0.67-0.23-1.59-1.2-1.52-1.71c0.1-0.7,0.95-1.4,1.63-1.87c0.67-0.46,1.53-0.64,2.33-0.95c-1.17-2.31-4.32-4.33-6.16-3.3
	c-3.51,1.98-6.72-0.27-10.05-0.02c-1.5,0.12-3.13,0.01-4.55-0.44c-3.18-1.01-6.3-2.22-9.39-3.49c-4.75-1.96-9.5-3.93-14.16-6.1
	c-4.2-1.95-8.43-3.55-13.1-4.08c-1.86-0.21-3.72-1.16-5.4-2.09c-3.32-1.84-6.12-4.54-10.13-5.23c-2.29-0.4-2.81-2.2-2.55-4.63
	c0.09-0.85-0.62-1.92-1.23-2.67c-0.46-0.57-1.31-0.99-2.05-1.14c-2.08-0.41-4.05-1.88-6.34-0.52c-3.48,2.07-4.2,1.8-7.44-0.83
	c-1.05-0.85-2.83-1.3-4.18-1.13c-1.8,0.22-3.5,0.75-5.37,0.22c-0.67-0.19-1.81,0.16-2.25,0.68c-0.3,0.36,0.07,1.51,0.42,2.16
	c1.89,3.46,4.75,5.37,8.77,4.56c2.41-0.49,3.27,0.52,3.55,2.61c0.25,1.93,1.24,2.79,3.25,2.64c0.67-0.05,1.38,0.49,2.06,0.75
	c-0.43,0.54-0.8,1.16-1.31,1.61c-0.34,0.3-0.88,0.36-1.32,0.55c-4.05,1.84-8.14,3.62-12.12,5.61c-0.68,0.34-1.4,1.75-1.2,2.4
	c0.34,1.15,1.26,2.13,2.91,1.54c2.12-0.75,4.33-1.28,6.47-1.97c1.6-0.52,2.66-0.12,3.4,1.44c0.57,1.19,1.38,1.75,2.99,1.61
	c1.99-0.17,4.07,0.21,6.06,0.63c3.94,0.84,8.78-1.19,10.33-4.83c0.68-1.59,1.65-1.72,2.9-1.43c2.66,0.61,5.36,1.17,7.91,2.11
	c1.68,0.62,3.14,1.86,4.7,2.83c-0.15,0.33-0.29,0.65-0.44,0.98c-2.29-0.4-4.58-0.76-6.86-1.21c-2.95-0.59-8.72,1.47-9.72,3.87
	c-0.83,1.98-2.03,3.29-3.92,4.18c-0.61,0.29-1.05,0.93-2.14,1.95c1.55,0.26,2.55,0.74,3.36,0.52c2.39-0.66,4.77-1.43,7.02-2.45
	c3.03-1.38,8.09-0.68,9.75,1.75c1.3,1.89,2.92,2.39,5.09,1.94c2.69-0.55,6.1,1.45,6.92,4.08c0.53,1.67,1.52,2.02,2.99,1.47
	c1.01-0.37,1.95-0.91,2.96-1.28c1.46-0.53,2.84-1.8,5.05-0.59c-0.96,0.87-1.62,1.64-2.43,2.16c-2.22,1.44-4.49,2.8-6.76,4.14
	c-1.47,0.87-2.46,2.01-1.71,3.73c0.68,1.56,2.48,1.71,4.44,0.56c1.02-0.6,1.96-1.36,3.02-1.84c1.44-0.64,2.49-0.6,2.64,1.52
	c0.17,2.56,1.77,3.53,4.15,2.59c1.97-0.79,3.84-1.85,5.7-2.89c2.16-1.21,4.22-2.61,6.41-3.76c0.51-0.27,1.36,0.11,2.06,0.2
	c-0.29,0.72-0.39,1.68-0.92,2.12c-1.63,1.34-3.49,2.39-5.13,3.73c-0.57,0.46-1.15,1.54-0.98,2.11c0.23,0.76,1.11,1.69,1.86,1.84
	c0.97,0.2,2.17-0.1,3.11-0.54c2.38-1.11,4.65-2.45,7-3.63c1.01-0.5,2.11-0.81,3.17-1.21c0.14,0.16,0.28,0.31,0.42,0.47
	c-0.52,0.88-1.11,1.74-1.54,2.66c-0.35,0.73-0.51,1.54-0.75,2.32c0.89,0.05,1.83,0.32,2.65,0.11c1.56-0.39,3.02-1.18,4.59-1.53
	c0.78-0.17,2.27,0.05,2.46,0.5c0.94,2.3,2.69,1.82,4.42,1.63c0.69-0.08,1.39-0.14,2.08-0.21c0.34,2.81,0.94,3.26,3.6,2.76
	c1.11-0.21,2.24-0.45,3.27-0.9c1.51-0.65,2.52-0.22,3.33,1.09c1.13,1.82,2.76,2.01,4.62,1.41c0.7-0.23,1.38-0.51,2.09-0.73
	c1.83-0.58,2.82,0.23,2.57,2.14c-0.24,1.89-0.88,3.48-2.73,4.46c-1.85,0.98-1.96,2.95-1.78,4.62c0.23,2.06,3.16,2.76,5.46,1.63
	c1.57-0.77,3.21-1.42,4.86-2c1.2-0.42,1.96,0.21,2.26,1.4c0.72,2.77,2.14,3.32,4.68,1.9c1.71-0.96,3.44-1.9,5.23-2.68
	c0.66-0.29,1.52-0.1,2.29-0.13c0.12,0.29,0.23,0.57,0.35,0.86c-2.79,2.28-5.59,4.56-8.38,6.85c0.14,0.28,0.29,0.56,0.43,0.83
	c0.99-0.25,2.04-0.36,2.95-0.78c3.07-1.43,6.02-3.1,9.15-4.39c1.06-0.43,2.5-0.1,3.73,0.09c1.95,0.3,3.87,0.79,5.81,1.17
	c1.15,0.22,2.3,0.39,3.46,0.59c-0.57,0.91-1.17,1.81-1.69,2.75c-0.3,0.55-0.44,1.19-0.66,1.78c0.64,0.17,1.35,0.6,1.92,0.47
	c1.79-0.4,3.51-1.08,5.29-1.51c0.59-0.14,1.28,0.15,1.93,0.25c-0.44,0.56-0.76,1.31-1.33,1.64c-1.86,1.08-3.92,1.84-5.67,3.06
	c-0.69,0.48-0.77,1.84-1.13,2.8c0.96,0.27,2.08,1,2.86,0.74c2.85-0.98,5.57-2.35,8.39-3.45c0.75-0.29,1.68-0.11,2.53-0.14
	c-0.54,0.66-1.07,1.32-1.63,1.96c-0.13,0.15-0.42,0.13-0.61,0.25c-2.03,1.28-4.14,2.45-6.02,3.92c-0.62,0.49-0.66,1.73-0.96,2.62
	c1.01,0.15,2.2,0.73,2.99,0.39c4.34-1.92,8.63-3.96,12.83-6.17c4.42-2.33,6.19-1.66,8.88,0.62c1.01,0.86,1.42,1.76,0.43,2.77
	c-1.05,1.06-2.14,0.78-2.99-0.36c-1.13-1.52-2.53-1.76-4.24-1.15c-2.09,0.75-3.88,1.77-4.74,4.63c2.07-0.07,3.71-0.24,5.34-0.13
	c0.62,0.04,1.58,0.62,1.73,1.14c0.36,1.31,0.88,1.8,2.3,1.61c1.34-0.19,2.74-0.01,4.11,0.01c-0.92,1.39-2.05,2.21-2.98,3.22
	c-0.47,0.51-0.57,1.36-0.83,2.06c0.65,0.11,1.3,0.34,1.94,0.29c0.64-0.05,1.26-0.36,1.89-0.57c2.34-0.76,4.67-1.56,7.03-2.25
	c0.49-0.14,1.08,0.1,1.63,0.16c0.03,0.21,0.06,0.42,0.09,0.63c-2.77,1.5-5.58,2.93-8.28,4.54c-0.81,0.48-1.33,1.45-1.98,2.2
	c1.02,0.35,2.06,1.04,3.06,0.98c1.32-0.08,2.62-0.69,3.89-1.18c4.02-1.53,8.02-3.12,12.02-4.68c2.52-0.98,4.92-1.25,7.35,0.49
	c1.23,0.88,1.28,1.44,0.28,2.36C893.12,453.97,892.25,454.79,891.38,455.61z M391.69,296.59c0.07-0.31,0.13-0.61,0.2-0.92
	c-1.57-0.7-3.09-1.56-4.73-2.06c-8.83-2.67-18.06-3.75-26.67-7.54c-5.65-2.49-11.99-3.45-18-5.14c-3.67-1.03-7.31-2.16-10.97-3.25
	c-3.65-1.09-7.29-2.22-10.96-3.26c-5.58-1.59-11.2-3.06-16.77-4.69c-1.8-0.53-3.51-1.38-5.22-2.17c-0.98-0.46-1.81-1.32-2.83-1.63
	c-6.92-2.16-13.87-4.23-20.82-6.31c-3.72-1.12-7.45-2.2-11.17-3.31c-0.28-0.08-0.56-0.21-0.79-0.38c-4.7-3.54-10.46-4.64-15.75-6.8
	c-5.05-2.07-10.22-3.84-15.33-5.72c-4.99-1.84-9.98-3.66-14.97-5.49c-0.48-0.18-1-0.28-1.46-0.49c-4.81-2.18-9.58-4.44-14.43-6.54
	c-3.99-1.73-8.1-3.19-12.1-4.92c-3.11-1.35-6.21-2.76-9.15-4.45c-4.44-2.55-8.66-5.46-13.09-8.02c-5.61-3.25-11.45-6.11-16.99-9.47
	c-6.18-3.75-12.25-7.72-18.15-11.89c-3.85-2.72-7.42-5.87-10.92-9.04c-3.11-2.83-5.93-5.99-8.92-8.95c-0.76-0.75-1.6-1.55-2.55-1.96
	c-1.29-0.54-2.07,0.04-1.55,1.5c0.36,1.02,0.82,2.07,1.46,2.93c4.13,5.54,8.26,11.08,12.52,16.51c1.42,1.8,3.13,3.42,4.9,4.89
	c5.22,4.33,10.78,8.28,15.77,12.86c7.58,6.96,16.66,11.35,25.6,16.05c4.21,2.21,8.4,4.45,12.62,6.66c4.29,2.24,8.55,4.54,12.9,6.65
	c3.51,1.7,7.13,3.2,10.72,4.72c3.4,1.45,6.8,2.9,10.26,4.2c2.6,0.98,5.24,1.96,7.95,2.51c5.57,1.14,10.47,4.02,15.79,5.77
	c5.7,1.88,11.44,3.65,17.18,5.4c4.49,1.36,9.02,2.62,13.53,3.92c0.28,0.08,0.56,0.18,0.83,0.29c4.35,1.66,8.65,3.47,13.06,4.93
	c4.52,1.5,9.15,2.67,13.74,3.99c0.21,0.06,0.42,0.13,0.63,0.21c5.05,1.83,10.04,3.85,15.16,5.44c4.16,1.29,8.46,2.15,12.72,3.08
	c8.84,1.93,17.68,3.88,26.56,5.62c4.36,0.86,8.83,1.12,13.2,1.92c6.58,1.2,13.1,2.72,19.68,3.91
	C386.76,296.55,389.24,296.45,391.69,296.59z M94.79,206.27c1.15,2.32,1.99,4.43,3.16,6.32c3.02,4.87,6.02,9.75,9.33,14.41
	c2.65,3.74,5.59,7.3,8.67,10.7c3.88,4.28,7.74,8.66,12.14,12.36c4.6,3.87,9.83,7.01,14.81,10.43c1.18,0.81,2.44,1.52,3.71,2.2
	c5.08,2.7,10.21,5.32,15.26,8.07c2.67,1.45,5.11,3.34,7.85,4.63c4.76,2.23,9.61,4.29,14.52,6.17c5.58,2.14,11.26,4,16.9,5.99
	c1.92,0.68,3.88,1.27,5.76,2.04c1.8,0.75,3.44,1.91,5.28,2.5c4.48,1.43,8.98,2.84,13.55,3.89c14.38,3.31,28.79,6.45,43.2,9.65
	c0.72,0.16,1.44,0.35,2.17,0.42c4.47,0.46,8.99,0.65,13.42,1.38c6.31,1.05,12.54,2.54,18.82,3.75c8.72,1.68,17.47,3.23,26.19,4.94
	c3.2,0.63,6.13-0.02,9.23-1.49c-1.05-0.81-2.2-1.39-3.42-1.74c-5.15-1.5-10.3-3-15.5-4.34c-1.75-0.45-3.66-0.29-5.42-0.7
	c-13.83-3.23-27.66-6.44-41.44-9.83c-13.39-3.29-26.75-6.76-40.1-10.22c-1.89-0.49-3.7-1.32-5.51-2.08
	c-3.21-1.34-6.35-2.84-9.6-4.08c-4.02-1.53-8.14-2.81-12.19-4.29c-1.77-0.64-3.46-1.51-5.18-2.27c-3.64-1.6-7.28-3.2-10.91-4.81
	c-2.92-1.29-5.84-2.6-8.75-3.91c-3.36-1.51-6.73-3.02-10.08-4.54c-1.45-0.66-2.91-1.28-4.29-2.06c-2.74-1.55-5.46-3.15-8.13-4.82
	c-5.62-3.51-11.28-6.97-16.77-10.67c-4.05-2.72-7.93-5.69-11.75-8.73c-3.57-2.84-7.06-5.81-10.42-8.91
	c-6.11-5.65-12.08-11.46-18.14-17.18C99.55,207.95,98.43,205.53,94.79,206.27z M377.6,189.95c0.06-0.18,0.13-0.36,0.19-0.54
	c-0.65-0.44-1.26-0.95-1.94-1.32c-2.93-1.62-5.86-3.23-8.82-4.79c-3.85-2.03-7.69-4.07-11.59-6.02c-2.84-1.42-5.75-2.7-8.64-4.02
	c-1.71-0.78-3.58-1.28-5.13-2.29c-4.75-3.1-10.1-4.72-15.37-6.53c-4.19-1.44-8.58-2.34-12.31-4.93c-0.47-0.33-0.9-0.76-1.43-0.95
	c-4.06-1.44-8.08-3.03-12.21-4.2c-8.07-2.29-16.21-4.32-24.31-6.5c-1.11-0.3-2.15-0.84-3.22-1.29c-5-2.11-9.88-4.6-15.02-6.25
	c-7.13-2.3-14.43-4.16-21.73-5.86c-10.98-2.57-22.02-4.87-33.04-7.23c-6.76-1.45-13.54-2.8-20.31-4.16
	c-0.91-0.18-1.86-0.2-2.79-0.17c-2.38,0.1-4.76,0.38-7.14,0.39c-3.89,0-7.78-0.08-11.67-0.27c-4.2-0.2-8.39-0.63-12.59-0.82
	c-2.39-0.11-4.84-0.19-7.18,0.2c-3.19,0.54-6.26,1.77-9.45,2.31c-6.45,1.07-12.97,1.7-19.4,2.86c-3.17,0.57-6.25,1.77-9.25,2.99
	c-0.91,0.37-1.4,1.77-2.09,2.69c0.99,0.3,1.96,0.78,2.96,0.84c1.27,0.07,2.58-0.09,3.84-0.34c5.29-1.07,10.52-2.46,15.85-3.27
	c6.98-1.05,14.01-1.94,21.05-2.38c5.3-0.33,10.64,0.16,15.96,0.24c3.68,0.06,7.37-0.16,11.03,0.09c5,0.34,10,0.85,14.96,1.57
	c4.72,0.68,9.39,1.73,14.08,2.61c6.09,1.14,11.97,2.99,18.32,3.32c6.17,0.32,12.24,2.59,18.34,4.1c5.45,1.36,10.94,2.42,16.1,4.99
	c3.68,1.84,7.95,2.49,11.96,3.66c4.15,1.21,8.32,2.38,12.46,3.61c6.95,2.07,13.89,4.18,20.83,6.29c0.41,0.12,0.78,0.39,1.18,0.55
	c3.13,1.31,6.24,2.69,9.41,3.89c3.82,1.45,7.87,2.38,11.49,4.2c3.65,1.84,7.3,3.45,11.23,4.58c3.84,1.1,7.56,2.62,11.32,3.98
	c0.33,0.12,0.59,0.42,0.89,0.61c3.81,2.34,7.83,4.14,12.23,5.16c2.42,0.56,4.8,1.44,7.08,2.44c2.59,1.14,4.98,2.71,7.57,3.85
	C373.31,188.75,375.49,189.26,377.6,189.95z M952.47,472.57c1.95-0.54,2.32-1.73,1.02-2.66c-1.92-1.38-3.93-2.84-6.14-3.55
	c-3.92-1.26-7.99-2.06-12.04-2.88c-0.77-0.16-1.7,0.45-2.56,0.7c0.33,0.9,0.41,2.19,1.06,2.64c1.65,1.13,3.47,2.16,5.37,2.72
	c3.82,1.12,7.73,1.91,11.61,2.81C951.48,472.49,952.2,472.53,952.47,472.57z M196.22,87.66c-0.23-4.53-2.39-6.67-5.45-5.9
	c-2.13,0.54-4.22,1.28-6.26,2.1c-0.76,0.3-1.46,0.99-1.93,1.68c-0.29,0.43-0.33,1.33-0.06,1.76c0.27,0.45,1.2,0.94,1.59,0.78
	c1.37-0.57,2.86-1.17,3.89-2.18c1.91-1.86,3.63-1.4,5.69-0.04C194.43,86.35,195.12,86.88,196.22,87.66z M781,416.38
	c2.31-1.16,4.27-1.9,5.93-3.06c0.77-0.54,0.98-1.9,1.44-2.89c-1.19-0.25-2.57-1.02-3.52-0.66c-1.9,0.74-3.69,1.95-5.28,3.26
	c-0.64,0.53-0.64,1.84-0.93,2.79C779.54,416.04,780.43,416.24,781,416.38z M938.23,478.07c0.17-0.18,1.16-0.76,1.19-1.38
	c0.02-0.67-0.71-1.74-1.36-1.99c-1.7-0.65-3.53-1.06-5.34-1.34c-0.54-0.08-1.52,0.45-1.7,0.92c-0.23,0.61-0.12,1.72,0.31,2.14
	C933.06,478.14,935.12,479.15,938.23,478.07z M787.94,424.87c1.87,1.3,3.85,1.6,5.63,0.04c1.04-0.92,1.76-2.43,0.76-3.68
	c-0.58-0.72-1.9-1.15-2.9-1.17C789.66,420.02,788.36,422.01,787.94,424.87z M736.82,400.15c-2.33,0.38-2.58,2.03-2.34,3.47
	c0.09,0.55,1.77,1.33,2.57,1.18c1.72-0.32,2.48-1.87,2.23-3.5C739.05,399.75,737.75,399.82,736.82,400.15z M747.87,408.6
	c0.71-1.69,1.54-2.82,1.56-3.96c0.01-1.04-1.04-1.62-2.31-1.16c-1.53,0.56-2.76,2.19-2.08,3.28
	C745.46,407.44,746.5,407.74,747.87,408.6z M794.21,427.36c-0.77,1.33-1.26,2.17-1.74,3.01c0.74,0.29,1.59,0.96,2.19,0.79
	c0.75-0.22,1.29-1.13,1.92-1.74C795.95,428.86,795.32,428.32,794.21,427.36z M801.55,426.18c1.85,1.03,3.07,0.5,3.66-1.15
	c0.1-0.28-0.99-1.35-1.62-1.44C801.72,423.33,801.62,424.75,801.55,426.18z M668.07,342.41c-1.38-0.22-2.34-0.56-3.24-0.44
	c-0.39,0.05-0.65,1.05-0.96,1.61c0.94,0.39,1.86,0.95,2.84,1.05C667.01,344.67,667.45,343.47,668.07,342.41z M803.8,431.55
	c0.16,0.3,0.33,0.6,0.49,0.9c0.86-0.19,1.78-0.27,2.56-0.64c0.26-0.12,0.38-1.08,0.19-1.46c-0.19-0.37-1.08-0.79-1.3-0.65
	C805,430.19,804.43,430.92,803.8,431.55z M921.58,472.55c1.2,0.74,2.37,0.95,3.17-0.44c0.15-0.26-0.41-1.32-0.8-1.42
	C922.68,470.35,921.59,470.63,921.58,472.55z M991.43,470.61c0.35,0.06,0.69,0.12,1.04,0.18c0.08-0.64,0.39-1.41,0.15-1.9
	c-0.19-0.39-1.09-0.63-1.63-0.56c-0.29,0.04-0.71,0.89-0.65,1.32C990.39,470.01,991.04,470.29,991.43,470.61z"/>
</svg>
