<?xml version="1.0" encoding="utf-8"?>
<!-- Generator: Adobe Illustrator 23.1.1, SVG Export Plug-In . SVG Version: 6.00 Build 0)  -->
<svg version="1.1" id="Layer_1" xmlns="http://www.w3.org/2000/svg" xmlns:xlink="http://www.w3.org/1999/xlink" x="0px" y="0px"
	 viewBox="0 0 1313.27 383.53" style="enable-background:new 0 0 1313.27 383.53;" xml:space="preserve">
<style type="text/css">
	.st0{fill:#212121;}
</style>
<g>
	<path class="st0" d="M433.92,282.84h15.45c1.93,0,3.71,0.23,5.37,0.69c1.65,0.46,3.08,1.14,4.27,2.04c1.19,0.9,2.14,2.05,2.83,3.45
		c0.69,1.41,1.04,3.04,1.04,4.93c0,2.56-0.71,4.64-2.14,6.25c-1.42,1.61-3.26,2.79-5.53,3.55v0.12c1.34,0.08,2.6,0.43,3.77,1.04
		c1.17,0.61,2.19,1.41,3.05,2.39c0.86,0.98,1.54,2.12,2.04,3.42c0.5,1.29,0.75,2.7,0.75,4.21c0,2.01-0.41,3.78-1.22,5.31
		c-0.82,1.53-1.94,2.81-3.36,3.86c-1.42,1.05-3.08,1.84-4.96,2.39c-1.88,0.55-3.92,0.82-6.09,0.82h-15.26V282.84z M439.95,301.3
		h8.23c1.13,0,2.2-0.11,3.2-0.34c1.01-0.23,1.88-0.62,2.64-1.16c0.75-0.54,1.35-1.24,1.79-2.07c0.44-0.84,0.66-1.86,0.66-3.08
		c0-1.76-0.57-3.29-1.7-4.59c-1.13-1.29-2.91-1.94-5.34-1.94h-9.48V301.3z M439.95,322.02h8.85c0.92,0,1.94-0.09,3.05-0.28
		c1.11-0.19,2.15-0.56,3.11-1.13c0.96-0.56,1.78-1.33,2.45-2.29c0.67-0.96,1.01-2.24,1.01-3.83c0-2.64-0.86-4.61-2.57-5.94
		c-1.72-1.32-4.04-1.98-6.97-1.98h-8.92V322.02z"/>
	<path class="st0" d="M509.78,308.34l-16.83-25.5h7.72l12.12,19.53l12.5-19.53h7.35l-16.83,25.5v18.96h-6.03V308.34z"/>
	<path class="st0" d="M620.68,282.84h6.03v31.78c0,2.81-0.44,5.09-1.32,6.87c-0.88,1.78-1.98,3.18-3.3,4.21
		c-1.32,1.02-2.73,1.74-4.24,2.13c-1.51,0.4-2.89,0.6-4.15,0.6c-3.14,0-5.79-0.81-7.94-2.42c-2.16-1.61-3.53-4.05-4.11-7.32
		l5.9-1.32c0.34,1.67,1.03,2.99,2.07,3.96c1.05,0.96,2.41,1.44,4.08,1.44c1.51,0,2.71-0.29,3.61-0.88c0.9-0.59,1.6-1.35,2.1-2.29
		c0.5-0.94,0.84-2.02,1.01-3.23c0.17-1.21,0.25-2.45,0.25-3.71V282.84z"/>
	<path class="st0" d="M676.82,282.84h5.46l19.03,44.46h-7.03l-4.46-10.99h-21.16l-4.4,10.99h-7.03L676.82,282.84z M687.62,311.04
		l-8.29-20.41h-0.13l-8.41,20.41H687.62z"/>
	<path class="st0" d="M732.89,282.84h7.91l24.49,36.55h0.13v-36.55h6.03v44.46h-7.66l-24.74-36.55h-0.13v36.55h-6.03V282.84z"/>
	<path class="st0" d="M808.69,282.84h6.03v44.46h-6.03V282.84z"/>
	<path class="st0" d="M853.27,318.01c1.09,1.63,2.48,2.84,4.18,3.61c1.69,0.78,3.44,1.16,5.24,1.16c1,0,2.03-0.16,3.08-0.47
		c1.04-0.31,2-0.79,2.86-1.41c0.86-0.63,1.56-1.4,2.1-2.32c0.54-0.92,0.82-1.99,0.82-3.21c0-1.72-0.54-3.02-1.63-3.92
		c-1.09-0.9-2.44-1.66-4.05-2.26c-1.61-0.61-3.37-1.19-5.28-1.76c-1.91-0.56-3.66-1.35-5.27-2.36c-1.61-1-2.96-2.35-4.05-4.05
		c-1.09-1.69-1.63-3.99-1.63-6.87c0-1.3,0.28-2.68,0.85-4.15c0.56-1.46,1.45-2.8,2.67-4.02s2.78-2.23,4.68-3.05
		c1.91-0.82,4.2-1.22,6.88-1.22c2.43,0,4.75,0.34,6.97,1.01c2.22,0.67,4.16,2.03,5.84,4.08l-4.9,4.46
		c-0.76-1.17-1.82-2.11-3.21-2.82c-1.38-0.71-2.95-1.07-4.71-1.07c-1.67,0-3.07,0.22-4.18,0.66c-1.11,0.44-2,1.01-2.67,1.7
		c-0.67,0.69-1.14,1.43-1.41,2.23c-0.27,0.79-0.41,1.53-0.41,2.2c0,1.88,0.54,3.33,1.63,4.33c1.09,1.01,2.44,1.82,4.05,2.45
		c1.61,0.63,3.37,1.19,5.28,1.7c1.91,0.5,3.66,1.2,5.27,2.1c1.61,0.9,2.96,2.11,4.05,3.64c1.09,1.53,1.63,3.63,1.63,6.31
		c0,2.14-0.41,4.06-1.22,5.77c-0.82,1.72-1.91,3.16-3.3,4.33c-1.38,1.17-3.01,2.07-4.9,2.7c-1.88,0.63-3.89,0.94-6.03,0.94
		c-2.84,0-5.54-0.5-8.1-1.51c-2.55-1.01-4.59-2.55-6.09-4.65L853.27,318.01z"/>
</g>
<g>
	<path class="st0" d="M129.4,118.08c3.28,5.23,5.71,10.79,7.3,16.69c1.58,5.9,2.31,11.86,2.19,17.88c-0.12,6.02-1,11.98-2.64,17.87
		c-1.64,5.9-4.11,11.46-7.39,16.69c-3.77,6.08-8.45,10.94-14.04,14.59c-3.53,2.43-7.48,4.71-11.86,6.84
		c-4.38,2.13-8.82,3.86-13.32,5.2c-4.01,1.22-8.09,2.13-12.22,2.73c-4.14,0.61-8.15,1.22-12.04,1.83c-0.61,0-0.91-0.37-0.91-1.1
		c-0.24-0.61,0.06-1.03,0.91-1.27c3.89-0.61,7.87-1.21,11.95-1.83c4.07-0.61,8.05-1.46,11.95-2.56c4.62-1.82,8.9-4.1,12.86-6.84
		c3.95-2.73,7.51-6.11,10.67-10.12c5.11-6.57,8.81-13.86,11.13-21.88c2.31-8.03,3.16-16.17,2.55-24.44
		c-0.61-10.82-3.65-20.61-9.12-29.37c-6.08-9.85-14.11-16.96-24.08-21.34c-5.96-2.07-11.98-3.47-18.06-4.2
		c-1.95-0.12-3.8-0.18-5.56-0.18c-1.76,0-3.31,0-4.65,0c-1.1,0-1.73,0.37-1.91,1.1c-0.18,0.73-0.27,1.58-0.27,2.56v0.91
		c0.12,3.89,0.15,7.91,0.09,12.04c-0.06,4.14-0.09,8.15-0.09,12.04c0,8.64-0.09,16.6-0.27,23.89c-0.18,7.3-0.21,14.9-0.09,22.8
		c0.12,6.56,0.12,13.44,0,20.61c-0.12,7.17-0.18,14.04-0.18,20.61c0,0.97-0.06,1.98-0.18,3.01c-0.12,1.03-0.37,1.98-0.73,2.83
		c-0.36,0.85-0.91,1.55-1.64,2.1s-1.7,0.76-2.92,0.64c-1.09,0-2.19-0.37-3.28-1.1c-1.22-0.73-1.98-1.85-2.28-3.38
		c-0.31-1.52-0.46-2.95-0.46-4.28c-0.12-7.42-0.12-15.26,0-23.53c0.12-8.27,0.18-16.17,0.18-23.71v-30.82
		c0-4.87-0.06-9.82-0.18-14.87c-0.12-5.04-0.18-10-0.18-14.86c0-1.94-0.21-3.77-0.64-5.47c-0.43-1.7-1.98-2.8-4.65-3.29h-1.28
		c-0.85,0-1.52-0.12-2.01-0.36c-0.73-0.25-0.97-0.79-0.73-1.64c0.12-0.37,0.55-0.55,1.28-0.55h10.58c3.77,0,7.11-0.03,10.03-0.09
		c2.92-0.06,5.84,0.03,8.75,0.27c2.8,0.12,5.65,0.45,8.57,1c2.92,0.55,5.84,1.31,8.76,2.28c0.85,0.25,1.67,0.49,2.46,0.73
		c0.79,0.25,1.61,0.49,2.46,0.73c3.4,1.1,6.75,2.31,10.03,3.65c3.28,1.34,6.44,2.92,9.48,4.74c3.04,1.83,5.9,3.89,8.57,6.2
		C124.96,112.37,127.33,115.05,129.4,118.08z"/>
	<path class="st0" d="M237.92,205.45c0.12-0.12,0.39-0.37,0.82-0.73c0.42-0.37,0.85-0.7,1.28-1c0.42-0.31,0.76-0.48,1-0.55
		c0.24-0.06,0.3,0.09,0.18,0.45c-0.61,1.71-1.22,3.44-1.82,5.2c-0.61,1.76-1.22,3.49-1.83,5.2c-0.24,0.61-0.49,1.28-0.73,2.01
		c-0.25,0.73-0.49,1.46-0.73,2.19c-0.24,0.12-0.73,0.18-1.46,0.18h-56.91c-0.37,0-0.73-0.06-1.1-0.18
		c-0.36-0.12-0.79-0.24-1.28-0.37c-1.1-0.37-1.86-1.18-2.28-2.46c-0.43-1.28-0.64-2.58-0.64-3.92c0-1.46,0.03-4.89,0.09-10.3
		c0.06-5.41,0.12-11.82,0.18-19.24c0.06-7.42,0.12-15.41,0.18-23.99c0.06-8.57,0.09-16.69,0.09-24.35c0-7.66,0-14.44,0-20.34
		s-0.06-9.94-0.18-12.13c0-1.1-0.06-1.88-0.18-2.37c-0.37-1.46-0.85-2.67-1.46-3.65c-0.61-0.97-1.76-1.64-3.47-2.01
		c-0.49-0.12-1.07-0.21-1.73-0.27c-0.67-0.06-1.25-0.21-1.73-0.45c-0.49,0-0.73-0.24-0.73-0.73c0-0.24,0.06-0.48,0.18-0.73
		c0.12-0.24,0.3-0.37,0.55-0.37h68.03c1.58,0,2.46,0.12,2.64,0.37c0.18,0.25,0.39,1.04,0.64,2.37c0.37,1.58,0.7,3.13,1,4.65
		c0.3,1.52,0.64,3.13,1,4.83v0.91c-0.12,0.61-0.43,1.04-0.91,1.28c-0.49,0.25-0.97,0.25-1.46,0c-0.49-0.37-0.91-0.79-1.28-1.28
		c-0.24-0.48-0.46-0.91-0.64-1.28c-0.18-0.36-0.39-0.79-0.64-1.27c-1.7-4.14-4.62-6.69-8.76-7.66c-0.73-0.12-1.46-0.21-2.19-0.27
		c-0.73-0.06-1.46-0.09-2.19-0.09c-2.19,0-4.96,0-8.3,0c-3.35,0-6.63,0.03-9.85,0.09c-3.22,0.06-6.02,0.09-8.39,0.09s-3.74,0-4.1,0
		c-2.55,0.61-3.83,2.07-3.83,4.38c0,4.14-0.03,8.24-0.09,12.31c-0.06,4.08-0.09,8.18-0.09,12.31c0,4.01-0.03,8.06-0.09,12.13
		c-0.06,4.08,0.03,8.12,0.27,12.13c0,0.85,0.12,1.52,0.37,2.01c0.24,0.73,0.55,1.15,0.91,1.28h27.36c2.67-0.73,4.62-2.25,5.84-4.56
		c0.12-0.12,0.27-0.34,0.46-0.64c0.18-0.3,0.39-0.45,0.64-0.45h0.91v4.01v8.39c0,0.25-0.24,0.31-0.73,0.18
		c-0.25-0.24-0.55-0.51-0.91-0.82c-0.37-0.3-0.67-0.64-0.91-1c-1.09-1.21-2.43-2.13-4.01-2.74h-27.72
		c-1.34,0.12-2.19,0.91-2.55,2.37c0,0.12,0,1.64,0,4.56c0,2.92,0,6.47,0,10.67s0,8.75,0,13.68c0,4.92,0,9.48,0,13.68s0,7.69,0,10.49
		c0,2.8,0,4.26,0,4.38c0.12,1.34,0.3,2.31,0.55,2.92c0.24,0.61,1.03,0.97,2.37,1.1c1.7,0.12,3.52,0.18,5.47,0.18
		c1.94,0,3.77,0,5.47,0h22.98c0.97,0,1.88,0,2.74,0c0.85,0,1.76-0.12,2.74-0.36c3.28-0.61,5.71-2.19,7.3-4.74
		c0.37-0.49,0.67-0.94,0.91-1.37c0.24-0.42,0.55-0.88,0.91-1.37c0.24-0.48,0.52-0.97,0.82-1.46
		C237.22,206.42,237.56,205.94,237.92,205.45z"/>
	<path class="st0" d="M331.67,216.21c0,0.49-0.18,0.91-0.55,1.28c-0.49,0.61-1.25,0.91-2.28,0.91c-1.03,0-2.04,0-3.01,0h-50.52
		c-0.97,0-1.52-0.48-1.64-1.46c-0.12-0.97-0.18-1.76-0.18-2.37c-0.12-1.94-0.18-5.68-0.18-11.22s0.03-12.04,0.09-19.52
		c0.06-7.48,0.12-15.47,0.18-23.99c0.06-8.51,0.15-16.78,0.27-24.8c0.12-8.03,0.21-15.38,0.27-22.07c0.06-6.69,0.09-11.85,0.09-15.5
		c0-0.49-0.18-1.01-0.55-1.55c-0.37-0.55-0.73-0.94-1.1-1.18c-1.22-1.21-2.86-1.82-4.92-1.82c-0.37,0-0.79-0.03-1.28-0.09
		c-0.49-0.06-0.91-0.27-1.28-0.64s-0.43-0.79-0.18-1.28c0.24-0.24,0.67-0.37,1.28-0.37h27.9c0.61,0,1.03,0.18,1.28,0.55
		c0.24,0.85,0,1.4-0.73,1.64c-0.61,0.24-1.28,0.36-2.01,0.36c-2.07,0-3.71,0.61-4.92,1.83c-0.37,0.25-0.73,0.58-1.1,1
		c-0.37,0.43-0.55,0.88-0.55,1.37c0,0.97-0.03,3.1-0.09,6.38c-0.06,3.29-0.15,7.36-0.27,12.22c-0.12,4.86-0.21,10.3-0.27,16.32
		c-0.06,6.02-0.15,12.25-0.27,18.69c-0.12,6.45-0.25,12.86-0.37,19.24c-0.12,6.38-0.21,12.37-0.27,17.96
		c-0.06,5.6-0.12,10.55-0.18,14.87c-0.06,4.32-0.09,7.63-0.09,9.94c0,2.67,1.82,4.01,5.47,4.01h23.16c1.21,0,2.4,0,3.56,0
		c1.15,0,2.4-0.06,3.74-0.18c1.82,0,3.56-0.55,5.2-1.64c1.64-1.1,3.01-2.49,4.11-4.19c0.61-0.85,1.03-1.83,1.28-2.92
		c0-0.24,0.15-0.39,0.46-0.45c0.3-0.06,0.46,0.03,0.46,0.27V216.21z"/>
	<path class="st0" d="M390.57,216.21c0.73,0.25,0.97,0.79,0.73,1.64c-0.24,0.37-0.67,0.55-1.28,0.55h-4.74h-4.92h-13.13h-5.29
		c-0.73,0-1.16-0.18-1.28-0.55c-0.24-0.85,0-1.4,0.73-1.64c0.48-0.24,1.15-0.36,2.01-0.36c2.07,0,3.71-0.61,4.92-1.83
		c0.61-0.37,1.03-0.97,1.28-1.83c0.24-0.85,0.37-1.76,0.37-2.73V97.66c0-0.97-0.43-1.83-1.28-2.56c-1.22-1.21-2.86-1.83-4.92-1.83
		c-0.85,0-1.52-0.12-2.01-0.36c-0.61-0.25-0.91-0.52-0.91-0.82c0-0.3,0.06-0.57,0.18-0.82c0.24-0.48,0.61-0.73,1.1-0.73h4.56h18.42
		h5.29c0.24,0,0.49,0.06,0.73,0.18c0.24,0.12,0.37,0.31,0.37,0.55c0.12,0.25,0.18,0.52,0.18,0.82c0,0.31-0.31,0.58-0.91,0.82
		c-0.49,0.24-1.09,0.36-1.82,0.36c-2.07,0-3.77,0.61-5.11,1.83c-0.12,0.12-0.34,0.37-0.64,0.73c-0.31,0.37-0.46,0.97-0.46,1.83
		v113.08c0-0.24,0.03,0.09,0.09,1c0.06,0.91,0.39,1.67,1,2.28c1.34,1.22,3.04,1.83,5.11,1.83
		C389.54,215.85,390.09,215.97,390.57,216.21z"/>
	<path class="st0" d="M505.11,193.78c1.58-0.24,2.61,0.06,3.1,0.91c0.49,0.85,0.7,1.86,0.64,3.01c-0.06,1.15-0.37,2.37-0.91,3.65
		c-0.55,1.28-1,2.28-1.37,3.01c-2.31,3.53-5.35,6.33-9.12,8.39c-2.8,1.44-5.72,2.56-8.75,3.37c-3.04,0.81-6.08,1.39-9.12,1.74
		c-5.23,0.61-10.4,0.64-15.5,0.09c-5.11-0.55-10.21-1.86-15.32-3.92c-4.26-1.7-8.12-3.95-11.58-6.75c-3.47-2.79-6.6-6.08-9.39-9.85
		c-5.35-7.17-8.64-15.01-9.85-23.53c-0.49-3.16-0.76-6.23-0.82-9.21c-0.06-2.98,0.03-6.05,0.27-9.21c0.24-2.06,0.46-4.68,0.64-7.84
		c0.18-3.16,0.52-5.77,1.01-7.84c0.85-4.62,2.16-8.94,3.93-12.95c1.77-4.01,4.05-7.9,6.85-11.67c7.06-9.48,15.9-16.48,26.5-20.98
		c5.48-2.55,11.45-3.71,17.91-3.46c4.63,0,9.38,0.85,14.25,2.55c2.8,0.98,5.72,2.07,8.77,3.29c3.04,1.21,5.79,2.73,8.23,4.56
		c0.85,0.61,1.49,1.1,1.92,1.46c0.43,0.37,0.82,1.04,1.19,2.01c0,1.83,0,3.65,0,5.47c0,1.82-0.06,3.65-0.18,5.47
		c0,0.97-0.18,1.82-0.55,2.55c-0.37,1.1-1.22,1.46-2.56,1.1c-1.34-0.24-2.2-1.03-2.56-2.37c-0.24-0.61-0.37-1.12-0.37-1.55
		c0-0.42-0.12-0.94-0.37-1.55c-0.24-0.97-0.46-1.88-0.64-2.73c-0.18-0.85-0.39-1.76-0.64-2.74c-0.12-0.61-0.28-1.18-0.46-1.73
		c-0.18-0.55-0.39-1.12-0.64-1.73c-0.73-1.1-1.59-2.13-2.56-3.1c-1.71-1.34-3.44-2.56-5.21-3.65c-1.77-1.09-3.69-2.06-5.76-2.92
		c-3.29-1.1-6.28-1.76-8.96-2.01c-1.83-0.24-3.66-0.33-5.49-0.27c-1.83,0.06-3.66,0.21-5.48,0.45c-0.97,0.25-1.98,0.49-3.02,0.73
		c-1.04,0.25-2.04,0.55-3.01,0.91c-5.73,1.83-10.54,5.05-14.44,9.68c-1.71,1.7-3.17,3.53-4.39,5.48c-1.22,1.95-2.32,3.96-3.29,6.03
		c-1.71,3.29-3.11,6.7-4.2,10.23c-1.1,3.53-2.01,7.12-2.74,10.78c-0.61,3.04-1.13,6.58-1.56,10.6c-0.43,4.02-0.7,7.55-0.82,10.59
		c-0.12,5.36,0.3,10.53,1.28,15.53c0.97,4.99,2.67,9.87,5.11,14.61c3.16,6.45,7.41,11.87,12.77,16.26c2.92,2.43,5.99,4.47,9.21,6.12
		c3.22,1.65,6.72,2.77,10.49,3.38c4.25,0.7,8.45,0.75,12.58,0.16c4.13-0.59,8.09-2.1,11.86-4.53c6.32-3.89,10.58-9.24,12.77-16.05
		H505.11z"/>
	<path class="st0" d="M637.16,217.49c0.12,0.25,0.06,0.46-0.18,0.64c-0.24,0.18-0.43,0.27-0.55,0.27h-18.42
		c-0.73-0.12-1.25-0.45-1.55-1c-0.31-0.55-0.27-1.19,0.09-1.91c0-0.12,0.24-0.42,0.73-0.91c1.46-1.46,1.82-3.22,1.09-5.29
		c-0.49-1.94-1-3.92-1.55-5.93c-0.55-2.01-1.19-3.92-1.91-5.75c-0.98-2.55-1.92-5.17-2.83-7.84c-0.91-2.67-1.98-5.74-3.19-9.21
		c-1.22-3.47-2.62-7.45-4.19-11.95c-1.58-4.5-3.47-9.85-5.65-16.05h-38.48l-19.88,57.82c-0.12,0.48-0.18,0.97-0.18,1.46
		c-0.12,2.44,1.03,3.89,3.47,4.38c0.61,0,1.15,0.12,1.64,0.37c0.73,0.25,1.03,0.85,0.91,1.83h-1.83h-13.86
		c-0.36,0-0.73,0.03-1.09,0.09c-0.37,0.06-0.55-0.09-0.55-0.45c-0.12-0.48,0.24-0.88,1.1-1.18c0.85-0.3,1.46-0.52,1.82-0.64
		c2.07-0.36,3.71-1.52,4.92-3.46c0.48-0.85,0.91-1.7,1.28-2.55c2.8-8.03,4.95-14.32,6.47-18.88c1.52-4.56,2.83-8.42,3.92-11.58
		c1.09-3.16,2.1-6.08,3.01-8.75c0.91-2.67,2.12-6.14,3.65-10.4c1.52-4.25,3.46-9.73,5.84-16.41c2.37-6.69,5.56-15.69,9.58-27
		c0.97-3.4,2.07-6.78,3.28-10.12c1.21-3.34,2.37-6.78,3.46-10.3c0.12-0.48,0.43-1.21,0.91-2.19c0.97-1.7,2.31-2.85,4.01-3.46
		c0.85-0.24,1.55-0.42,2.1-0.55c0.55-0.12,1.25-0.06,2.1,0.18c1.58,0.61,2.61,1.58,3.1,2.92c0.49,0.98,0.79,1.71,0.91,2.19
		c3.16,8.39,6.2,16.84,9.12,25.35c2.92,8.52,5.77,16.96,8.57,25.35c3.65,10.7,7.36,21.41,11.13,32.1
		c3.77,10.7,7.78,21.34,12.04,31.92c0.61,1.7,1.25,2.86,1.92,3.46c0.67,0.61,1.31,1.15,1.91,1.64c0.24,0.24,0.61,0.48,1.09,0.73
		C636.92,216.64,637.16,217,637.16,217.49z M598.49,150.55c-2.68-8.75-5.75-17.47-9.21-26.17c-3.46-8.69-6.78-17.36-9.94-25.99
		c-4.62,13.01-8.15,23.04-10.58,30.1c-2.43,7.06-4.19,12.22-5.29,15.5l-2.19,6.56H598.49z"/>
	<path class="st0" d="M741.12,92.37c0,0.12,0.03,1,0.09,2.64c0.06,1.64,0.03,3.07-0.09,4.28l-0.37,0.18c-0.37,0.12-0.67,0.12-0.91,0
		l-0.37-0.37c-0.25-0.37-0.49-0.73-0.73-1.1c-0.25-0.36-0.49-0.79-0.73-1.27c-0.49-0.97-1.15-1.7-2-2.19
		c-0.85-0.48-1.77-0.91-2.74-1.28c-0.61-0.12-1.15-0.21-1.64-0.27c-0.49-0.06-0.98-0.09-1.46-0.09h-28.64
		c-2.92,0.36-4.86,1.76-5.84,4.19c-0.49,1.58-0.85,3.35-1.1,5.29v104.15c0,0.61,0.03,1.27,0.09,2c0.06,0.73,0.15,1.4,0.27,2.01
		c0.48,1.58,1.15,2.73,2.01,3.46c1.21,1.22,2.86,1.83,4.92,1.83c0.85,0,1.52,0.12,2.01,0.36c0.61,0.25,0.91,0.52,0.91,0.82
		c0,0.31-0.06,0.58-0.18,0.82c-0.24,0.37-0.67,0.55-1.28,0.55h-27.54c-0.24,0-0.49-0.03-0.73-0.09c-0.25-0.06-0.37-0.21-0.37-0.46
		c-0.12-0.24-0.18-0.51-0.18-0.82c0-0.3,0.3-0.58,0.91-0.82c0.48-0.24,1.09-0.36,1.82-0.36c0.48,0,0.94-0.06,1.37-0.18
		c0.42-0.12,0.88-0.24,1.37-0.37c0.97-0.48,1.82-1.1,2.55-1.83c0.36-0.48,0.55-1.1,0.55-1.83c0.12-0.73,0.18-1.49,0.18-2.28
		c0-0.79,0-1.55,0-2.28V104.41c0-0.97,0-1.88,0-2.73c0-0.85-0.12-1.7-0.37-2.56c-0.49-1.7-1.25-3.13-2.28-4.28
		c-1.03-1.15-2.77-1.8-5.2-1.91c-4.5-0.25-9.39-0.31-14.68-0.18c-5.29,0.12-10.67,0.18-16.14,0.18c-1.22,0-2.25,0.36-3.1,1.09
		c-0.85,0.73-1.58,1.64-2.19,2.74c-0.25,0.37-0.46,0.73-0.64,1.09c-0.18,0.37-0.39,0.67-0.64,0.91l-0.55,0.55
		c-0.25,0.25-0.49,0.18-0.73-0.18c-0.12-0.24-0.18-0.61-0.18-1.1v-5.47c0.12-0.97,0.42-1.55,0.91-1.74
		c0.48-0.18,1.21-0.27,2.19-0.27c0.97,0,1.88,0.03,2.74,0.09c0.85,0.06,1.76,0.09,2.73,0.09c0.12,0,0.39,0,0.82,0
		c0.42,0,1.49,0,3.19,0c1.7,0,4.29,0,7.75,0c3.47,0,8.3,0,14.5,0c6.2,0,14.07,0,23.62,0c9.55,0,21.25,0,35.11,0
		c1.21,0,2.37,0,3.46,0c1.1,0,2.25-0.06,3.46-0.18c0.73,0,1.49,0.09,2.28,0.27C740.18,91,740.76,91.52,741.12,92.37z"/>
	<path class="st0" d="M838.69,205.45c0.12-0.12,0.39-0.37,0.82-0.73c0.42-0.37,0.85-0.7,1.27-1c0.42-0.31,0.76-0.48,1.01-0.55
		c0.24-0.06,0.3,0.09,0.18,0.45c-0.61,1.71-1.22,3.44-1.83,5.2c-0.61,1.76-1.22,3.49-1.83,5.2c-0.24,0.61-0.48,1.28-0.73,2.01
		c-0.25,0.73-0.49,1.46-0.73,2.19c-0.25,0.12-0.73,0.18-1.46,0.18h-56.91c-0.37,0-0.73-0.06-1.1-0.18
		c-0.36-0.12-0.79-0.24-1.27-0.37c-1.1-0.37-1.86-1.18-2.28-2.46c-0.43-1.28-0.64-2.58-0.64-3.92c0-1.46,0.03-4.89,0.09-10.3
		c0.06-5.41,0.12-11.82,0.18-19.24c0.06-7.42,0.12-15.41,0.18-23.99c0.06-8.57,0.09-16.69,0.09-24.35c0-7.66,0-14.44,0-20.34
		s-0.06-9.94-0.18-12.13c0-1.1-0.06-1.88-0.18-2.37c-0.37-1.46-0.85-2.67-1.46-3.65c-0.61-0.97-1.77-1.64-3.47-2.01
		c-0.48-0.12-1.07-0.21-1.73-0.27c-0.67-0.06-1.25-0.21-1.73-0.45c-0.49,0-0.73-0.24-0.73-0.73c0-0.24,0.06-0.48,0.18-0.73
		c0.12-0.24,0.3-0.37,0.55-0.37h68.03c1.58,0,2.46,0.12,2.64,0.37c0.18,0.25,0.39,1.04,0.64,2.37c0.37,1.58,0.7,3.13,1,4.65
		c0.3,1.52,0.64,3.13,1,4.83v0.91c-0.12,0.61-0.42,1.04-0.91,1.28c-0.49,0.25-0.98,0.25-1.46,0c-0.49-0.37-0.91-0.79-1.28-1.28
		c-0.24-0.48-0.45-0.91-0.64-1.28c-0.18-0.36-0.39-0.79-0.64-1.27c-1.71-4.14-4.62-6.69-8.76-7.66c-0.73-0.12-1.46-0.21-2.19-0.27
		c-0.73-0.06-1.46-0.09-2.19-0.09c-2.19,0-4.95,0-8.3,0c-3.35,0-6.63,0.03-9.85,0.09c-3.23,0.06-6.02,0.09-8.39,0.09
		c-2.37,0-3.74,0-4.1,0c-2.56,0.61-3.83,2.07-3.83,4.38c0,4.14-0.03,8.24-0.09,12.31c-0.06,4.08-0.09,8.18-0.09,12.31
		c0,4.01-0.03,8.06-0.09,12.13c-0.06,4.08,0.03,8.12,0.28,12.13c0,0.85,0.12,1.52,0.37,2.01c0.24,0.73,0.54,1.15,0.91,1.28h27.36
		c2.67-0.73,4.62-2.25,5.83-4.56c0.12-0.12,0.28-0.34,0.46-0.64c0.18-0.3,0.39-0.45,0.64-0.45h0.91v4.01v8.39
		c0,0.25-0.25,0.31-0.73,0.18c-0.25-0.24-0.55-0.51-0.91-0.82c-0.37-0.3-0.67-0.64-0.91-1c-1.09-1.21-2.43-2.13-4.01-2.74h-27.72
		c-1.34,0.12-2.19,0.91-2.55,2.37c0,0.12,0,1.64,0,4.56c0,2.92,0,6.47,0,10.67s0,8.75,0,13.68c0,4.92,0,9.48,0,13.68s0,7.69,0,10.49
		c0,2.8,0,4.26,0,4.38c0.12,1.34,0.3,2.31,0.55,2.92c0.24,0.61,1.03,0.97,2.37,1.1c1.7,0.12,3.52,0.18,5.47,0.18
		c1.94,0,3.77,0,5.47,0h22.98c0.97,0,1.88,0,2.73,0s1.76-0.12,2.74-0.36c3.28-0.61,5.71-2.19,7.29-4.74
		c0.37-0.49,0.67-0.94,0.91-1.37c0.24-0.42,0.55-0.88,0.91-1.37c0.24-0.48,0.51-0.97,0.82-1.46
		C837.99,206.42,838.33,205.94,838.69,205.45z"/>
	<path class="st0" d="M940.46,182.47c0.24,4.14-0.37,8.15-1.83,12.04c-1.34,3.53-3.22,6.96-5.65,10.3
		c-2.44,3.35-5.29,5.99-8.58,7.93c-1.34,0.98-2.73,1.71-4.19,2.19c-1.46,0.49-2.92,0.91-4.38,1.27c-2.67,0.85-5.44,1.43-8.3,1.74
		c-2.86,0.3-5.87,0.45-9.03,0.45c-1.22,0-2.46-0.03-3.74-0.09c-1.28-0.06-2.46-0.15-3.56-0.28l-9.67-0.37
		c-2.8-0.24-5.17-0.67-7.11-1.28c-3.16-0.97-4.99-2.85-5.47-5.65c0-0.24-0.09-0.73-0.27-1.46c-0.18-0.73-0.31-1.46-0.37-2.19
		c-0.06-0.73-0.03-1.43,0.09-2.1c0.12-0.67,0.37-1.06,0.73-1.18c0.61-0.24,1.18-0.03,1.73,0.64c0.55,0.67,0.94,1.19,1.19,1.55
		c2.67,3.28,6.26,5.77,10.76,7.48c4.01,1.46,8.15,2.37,12.41,2.73c5.83,0.25,11.34-0.12,16.51-1.09c5.17-0.97,9.63-3.16,13.4-6.57
		c2.56-2.55,4.44-5.74,5.65-9.57c1.21-3.83,1.7-7.69,1.46-11.58c-0.37-3.89-1.52-7.42-3.47-10.58s-4.32-5.99-7.11-8.48
		c-2.8-2.49-5.9-4.68-9.3-6.56c-3.4-1.88-6.69-3.56-9.85-5.02c-3.89-1.82-7.72-3.74-11.49-5.74c-3.77-2.01-7.42-4.35-10.94-7.02
		c-1.34-1.1-2.64-2.19-3.92-3.28c-1.28-1.1-2.53-2.31-3.74-3.65c-1.94-2.06-3.4-4.38-4.38-6.93c-0.97-2.56-1.55-5.2-1.73-7.93
		c-0.18-2.74,0.03-5.47,0.64-8.21c0.61-2.74,1.64-5.32,3.1-7.75c1.94-3.4,4.53-6.17,7.75-8.3c3.22-2.13,6.72-3.77,10.49-4.92
		c3.77-1.15,7.66-1.88,11.67-2.19c4.01-0.3,7.78-0.27,11.31,0.09c2.43,0.25,4.77,0.52,7.02,0.82c2.25,0.31,4.59,0.64,7.02,1.01
		c0.73,0.12,1.58,0.21,2.56,0.27c0.97,0.06,1.85,0.25,2.64,0.55c0.79,0.31,1.46,0.7,2,1.18c0.55,0.49,0.82,1.28,0.82,2.37
		c0,2.07,0.06,3.95,0.18,5.65c0.12,1.71,0.06,3.59-0.18,5.65c-0.12,0.49-0.24,0.94-0.36,1.37c-0.12,0.43-0.49,0.7-1.1,0.82
		c-0.61,0-1.16-0.61-1.64-1.83c-0.37-1.21-0.7-2.4-1-3.56c-0.31-1.15-0.76-2.28-1.37-3.37c-1.83-3.89-4.87-6.39-9.12-7.48
		c-5.11-1.34-10.15-1.82-15.14-1.46c-2.43,0.12-4.99,0.42-7.66,0.91c-2.67,0.49-5.23,1.25-7.66,2.28c-2.43,1.04-4.68,2.37-6.75,4.01
		c-2.07,1.64-3.71,3.62-4.92,5.93c-1.22,2.31-1.89,4.77-2.01,7.39c-0.12,2.62,0.3,5.14,1.28,7.57c0.85,1.82,1.97,3.53,3.37,5.1
		c1.4,1.58,2.89,3.04,4.47,4.38c3.89,3.16,7.99,5.96,12.31,8.39c4.31,2.43,8.72,4.68,13.22,6.75c3.89,1.94,7.72,4.04,11.49,6.29
		c3.77,2.25,7.05,5.01,9.85,8.3C936.21,166.54,939.49,173.96,940.46,182.47z"/>
	<path class="st0" d="M1038.22,182.47c0.24,4.14-0.36,8.15-1.83,12.04c-1.34,3.53-3.22,6.96-5.65,10.3
		c-2.44,3.35-5.29,5.99-8.58,7.93c-1.34,0.98-2.73,1.71-4.19,2.19c-1.46,0.49-2.92,0.91-4.38,1.27c-2.67,0.85-5.44,1.43-8.3,1.74
		c-2.86,0.3-5.87,0.45-9.03,0.45c-1.22,0-2.46-0.03-3.74-0.09c-1.28-0.06-2.46-0.15-3.56-0.28l-9.67-0.37
		c-2.8-0.24-5.17-0.67-7.11-1.28c-3.16-0.97-4.99-2.85-5.47-5.65c0-0.24-0.09-0.73-0.27-1.46c-0.18-0.73-0.31-1.46-0.37-2.19
		c-0.06-0.73-0.03-1.43,0.09-2.1c0.12-0.67,0.37-1.06,0.73-1.18c0.61-0.24,1.18-0.03,1.73,0.64c0.55,0.67,0.94,1.19,1.19,1.55
		c2.67,3.28,6.26,5.77,10.76,7.48c4.01,1.46,8.15,2.37,12.41,2.73c5.83,0.25,11.34-0.12,16.51-1.09c5.17-0.97,9.63-3.16,13.4-6.57
		c2.56-2.55,4.44-5.74,5.65-9.57c1.21-3.83,1.7-7.69,1.46-11.58c-0.37-3.89-1.52-7.42-3.47-10.58c-1.94-3.16-4.32-5.99-7.11-8.48
		c-2.8-2.49-5.9-4.68-9.3-6.56c-3.4-1.88-6.69-3.56-9.85-5.02c-3.89-1.82-7.72-3.74-11.49-5.74c-3.77-2.01-7.42-4.35-10.94-7.02
		c-1.34-1.1-2.64-2.19-3.92-3.28c-1.28-1.1-2.53-2.31-3.74-3.65c-1.94-2.06-3.4-4.38-4.38-6.93c-0.97-2.56-1.55-5.2-1.73-7.93
		c-0.18-2.74,0.03-5.47,0.64-8.21c0.61-2.74,1.64-5.32,3.1-7.75c1.94-3.4,4.53-6.17,7.75-8.3c3.22-2.13,6.72-3.77,10.49-4.92
		c3.77-1.15,7.66-1.88,11.67-2.19c4.01-0.3,7.78-0.27,11.31,0.09c2.43,0.25,4.77,0.52,7.02,0.82c2.25,0.31,4.59,0.64,7.02,1.01
		c0.73,0.12,1.58,0.21,2.56,0.27c0.97,0.06,1.85,0.25,2.64,0.55c0.79,0.31,1.46,0.7,2,1.18c0.55,0.49,0.82,1.28,0.82,2.37
		c0,2.07,0.06,3.95,0.18,5.65c0.12,1.71,0.06,3.59-0.18,5.65c-0.12,0.49-0.24,0.94-0.36,1.37c-0.12,0.43-0.49,0.7-1.1,0.82
		c-0.61,0-1.16-0.61-1.64-1.83c-0.37-1.21-0.7-2.4-1-3.56c-0.31-1.15-0.76-2.28-1.37-3.37c-1.83-3.89-4.87-6.39-9.12-7.48
		c-5.11-1.34-10.15-1.82-15.14-1.46c-2.43,0.12-4.99,0.42-7.66,0.91c-2.67,0.49-5.23,1.25-7.66,2.28c-2.43,1.04-4.68,2.37-6.75,4.01
		c-2.07,1.64-3.71,3.62-4.92,5.93c-1.22,2.31-1.89,4.77-2.01,7.39c-0.12,2.62,0.3,5.14,1.28,7.57c0.85,1.82,1.97,3.53,3.37,5.1
		c1.4,1.58,2.89,3.04,4.47,4.38c3.89,3.16,7.99,5.96,12.31,8.39c4.31,2.43,8.72,4.68,13.22,6.75c3.89,1.94,7.72,4.04,11.49,6.29
		c3.77,2.25,7.05,5.01,9.85,8.3C1033.96,166.54,1037.25,173.96,1038.22,182.47z"/>
	<path class="st0" d="M1136.16,205.45c0.12-0.12,0.39-0.37,0.82-0.73s0.85-0.7,1.28-1c0.42-0.31,0.76-0.48,1-0.55
		c0.24-0.06,0.3,0.09,0.18,0.45c-0.61,1.71-1.21,3.44-1.82,5.2c-0.61,1.76-1.22,3.49-1.83,5.2c-0.25,0.61-0.49,1.28-0.73,2.01
		c-0.25,0.73-0.49,1.46-0.73,2.19c-0.24,0.12-0.73,0.18-1.46,0.18h-56.91c-0.37,0-0.73-0.06-1.1-0.18
		c-0.37-0.12-0.79-0.24-1.28-0.37c-1.1-0.37-1.86-1.18-2.28-2.46s-0.64-2.58-0.64-3.92c0-1.46,0.03-4.89,0.09-10.3
		c0.06-5.41,0.12-11.82,0.18-19.24s0.12-15.41,0.18-23.99c0.06-8.57,0.09-16.69,0.09-24.35c0-7.66,0-14.44,0-20.34
		s-0.06-9.94-0.18-12.13c0-1.1-0.06-1.88-0.18-2.37c-0.37-1.46-0.85-2.67-1.46-3.65c-0.61-0.97-1.76-1.64-3.46-2.01
		c-0.49-0.12-1.07-0.21-1.73-0.27c-0.67-0.06-1.25-0.21-1.73-0.45c-0.49,0-0.73-0.24-0.73-0.73c0-0.24,0.06-0.48,0.18-0.73
		c0.12-0.24,0.3-0.37,0.55-0.37h68.03c1.58,0,2.46,0.12,2.64,0.37c0.18,0.25,0.39,1.04,0.64,2.37c0.37,1.58,0.7,3.13,1.01,4.65
		c0.3,1.52,0.64,3.13,1,4.83v0.91c-0.12,0.61-0.43,1.04-0.91,1.28c-0.49,0.25-0.97,0.25-1.46,0c-0.48-0.37-0.91-0.79-1.27-1.28
		c-0.25-0.48-0.46-0.91-0.64-1.28c-0.18-0.36-0.39-0.79-0.64-1.27c-1.7-4.14-4.62-6.69-8.75-7.66c-0.73-0.12-1.46-0.21-2.19-0.27
		c-0.73-0.06-1.46-0.09-2.19-0.09c-2.19,0-4.96,0-8.3,0c-3.35,0-6.63,0.03-9.85,0.09c-3.22,0.06-6.02,0.09-8.39,0.09
		c-2.37,0-3.74,0-4.11,0c-2.55,0.61-3.83,2.07-3.83,4.38c0,4.14-0.03,8.24-0.09,12.31c-0.06,4.08-0.09,8.18-0.09,12.31
		c0,4.01-0.03,8.06-0.09,12.13c-0.06,4.08,0.03,8.12,0.27,12.13c0,0.85,0.12,1.52,0.37,2.01c0.24,0.73,0.55,1.15,0.91,1.28h27.36
		c2.67-0.73,4.62-2.25,5.84-4.56c0.12-0.12,0.27-0.34,0.45-0.64c0.18-0.3,0.39-0.45,0.64-0.45h0.91v4.01v8.39
		c0,0.25-0.24,0.31-0.73,0.18c-0.25-0.24-0.55-0.51-0.91-0.82c-0.37-0.3-0.67-0.64-0.91-1c-1.1-1.21-2.43-2.13-4.01-2.74h-27.72
		c-1.34,0.12-2.19,0.91-2.56,2.37c0,0.12,0,1.64,0,4.56c0,2.92,0,6.47,0,10.67s0,8.75,0,13.68c0,4.92,0,9.48,0,13.68s0,7.69,0,10.49
		c0,2.8,0,4.26,0,4.38c0.12,1.34,0.3,2.31,0.55,2.92c0.24,0.61,1.03,0.97,2.37,1.1c1.7,0.12,3.52,0.18,5.47,0.18
		c1.94,0,3.77,0,5.47,0h22.98c0.97,0,1.89,0,2.74,0c0.85,0,1.76-0.12,2.73-0.36c3.29-0.61,5.71-2.19,7.3-4.74
		c0.37-0.49,0.67-0.94,0.91-1.37c0.25-0.42,0.55-0.88,0.91-1.37c0.24-0.48,0.52-0.97,0.82-1.46
		C1135.46,206.42,1135.8,205.94,1136.16,205.45z"/>
	<path class="st0" d="M1270.49,91.18c-0.18,0.31-0.34,0.46-0.45,0.46c-0.49,0.37-0.97,0.61-1.46,0.73c-1.21,0.61-2.13,1.31-2.73,2.1
		c-0.61,0.79-0.98,1.86-1.1,3.19c0,7.29,0,14.62,0,21.97c0,7.36,0.03,14.9,0.09,22.62c0.06,7.72,0.09,15.75,0.09,24.08
		c0,8.33,0,17.05,0,26.17v19.51c0,0.61,0,1.22,0,1.83c0,0.61-0.06,1.22-0.18,1.83c0,0.73-0.34,1.31-1,1.73
		c-0.67,0.42-1.46,0.7-2.37,0.82c-0.91,0.12-1.82,0.15-2.73,0.09c-0.91-0.06-1.61-0.15-2.1-0.28c-1.46-0.24-2.67-0.88-3.65-1.91
		c-0.98-1.03-1.83-2.16-2.56-3.38c-1.7-2.55-3.35-5.11-4.92-7.66c-1.58-2.56-3.22-5.04-4.92-7.48
		c-7.42-11.31-14.77-22.49-22.07-33.56c-7.29-11.06-14.66-22.31-22.07-33.74c-2.92-4.38-5.81-8.72-8.66-13.04
		c-2.86-4.31-5.74-8.6-8.66-12.86c-0.12-0.24-0.24-0.48-0.36-0.73c-0.12-0.24-0.25-0.48-0.37-0.73c-0.37-0.37-0.85-0.55-1.46-0.55
		c-0.61,0-1.04,0.31-1.28,0.91c0,0.25-0.03,0.55-0.09,0.91c-0.06,0.37-0.09,0.73-0.09,1.1c-0.12,2.55-0.21,5.11-0.27,7.66
		c-0.06,2.56-0.09,5.11-0.09,7.66c0,1.82,0,4.98,0,9.48c0,4.5,0.03,9.7,0.09,15.59c0.06,5.9,0.09,12.13,0.09,18.7
		c0,6.56,0.03,12.8,0.09,18.69c0.06,5.9,0.09,11.13,0.09,15.69s0,7.69,0,9.39v3.1c0,1.21,0.28,2.13,0.82,2.73
		c0.54,0.61,1.37,1.22,2.46,1.83c0.36,0.24,0.7,0.39,1,0.45c0.3,0.06,0.7,0.21,1.18,0.45c0.24,0.25,0.46,0.43,0.64,0.55
		c0.18,0.12,0.28,0.49,0.28,1.1h-15.69c0-0.48,0.18-0.91,0.55-1.28c0.24-0.12,0.52-0.21,0.82-0.27c0.31-0.06,0.58-0.21,0.82-0.46
		c1.94-0.97,3.16-2.19,3.65-3.65V100.03c0-2.19-0.67-3.89-2.01-5.11c-1.21-1.21-2.86-1.83-4.92-1.83c-0.85,0-1.52-0.12-2-0.36
		c-0.61-0.25-0.91-0.52-0.91-0.82c0-0.3,0.06-0.57,0.18-0.82c0.12-0.37,0.55-0.55,1.28-0.55h19.33c0.73,0,1.34,0.31,1.82,0.91
		c0.48,0.61,0.97,1.21,1.46,1.82c8.02,11.8,16.02,24.08,23.98,36.85c7.96,12.77,15.96,25.05,23.99,36.84
		c2.06,3.04,4.53,6.69,7.39,10.94c2.85,4.26,5.62,8.36,8.3,12.31c2.67,3.95,4.98,7.36,6.93,10.21c1.94,2.86,3.04,4.35,3.28,4.47
		c0.48,0.49,0.88,0.58,1.18,0.27c0.31-0.3,0.49-0.76,0.55-1.37c0.06-0.61,0.09-1.28,0.09-2c0-0.73,0-1.34,0-1.83v-32.46
		c0-3.53,0-7.69,0-12.49c0-4.8,0-9.76,0-14.86s0-10.15,0-15.14c0-4.98,0-9.45,0-13.41c0-3.95,0-7.17,0-9.67c0-2.49,0-3.8,0-3.92
		c0-2.43-1.16-4.25-3.46-5.47c-0.98-0.24-1.71-0.49-2.19-0.73c-0.25-0.12-0.43-0.3-0.55-0.55c-0.12-0.24-0.18-0.48-0.18-0.73h15.14
		C1270.7,90.67,1270.67,90.88,1270.49,91.18z"/>
</g>
</svg>
